<?xml version="1.0" encoding="UTF-8"?>
<svg version="1.1" xmlns="http://www.w3.org/2000/svg" width="866" height="650">
<path d="M0 0 C285.78 0 571.56 0 866 0 C866 214.5 866 429 866 650 C580.22 650 294.44 650 0 650 C0 435.5 0 221 0 0 Z " fill="#FEFEFE" transform="translate(0,0)"/>
<path d="M0 0 C1.31581055 -0.01740234 1.31581055 -0.01740234 2.65820312 -0.03515625 C15.89942415 0.02339005 26.37655461 5.12527951 35.875 14.1875 C40.05966059 18.56893146 43.12218386 22.83964876 45.5625 28.375 C46.03816406 29.33019531 46.03816406 29.33019531 46.5234375 30.3046875 C50.42653989 39.50741516 50.23665647 53.62138273 46.7890625 62.94921875 C39.91383876 76.5463969 30.85558888 85.36372322 16.34765625 90.46484375 C15.42855469 90.76519531 14.50945313 91.06554687 13.5625 91.375 C12.5725 91.705 11.5825 92.035 10.5625 92.375 C-6.24033614 93.37790901 -20.03049112 91.54307925 -33.0625 80.0625 C-33.84625 79.175625 -34.63 78.28875 -35.4375 77.375 C-35.99179687 76.78589844 -36.54609375 76.19679688 -37.1171875 75.58984375 C-45.58574639 65.86735661 -48.5279594 53.73835308 -47.85546875 41.10546875 C-46.41614881 28.25920199 -39.19278801 17.58815545 -29.4375 9.375 C-20.13616348 2.73333483 -11.38832394 -0.14995598 0 0 Z " fill="#6725E8" transform="translate(562.4375,278.625)"/>
<path d="M0 0 C5.61 0 11.22 0 17 0 C19.56293907 5.87480883 22.12543968 11.74980797 24.6875 17.625 C25.07204346 18.50668854 25.45658691 19.38837708 25.8527832 20.29678345 C29.81491363 29.3820277 33.77547229 38.46788214 37.70703125 47.56640625 C37.98824829 48.21705551 38.26946533 48.86770477 38.5592041 49.53807068 C39.89949001 52.63953456 41.23898996 55.74133389 42.57763672 58.84350586 C46.10393786 66.99434415 49.71016191 75.10561735 53.46289062 83.1550293 C56 88.67686663 56 88.67686663 56 92 C49.07 92 42.14 92 35 92 C32.03 85.07 29.06 78.14 26 71 C14.12 70.67 2.24 70.34 -10 70 C-10.33 71.65 -10.66 73.3 -11 75 C-11.95968871 77.40467456 -12.94595292 79.76333792 -14 82.125 C-16.15467401 87.00043274 -16.15467401 87.00043274 -18 92 C-25.26 92 -32.52 92 -40 92 C-37.75011286 85.25033857 -37.75011286 85.25033857 -36.34277344 82.06298828 C-36.02723511 81.3447287 -35.71169678 80.62646912 -35.38659668 79.88644409 C-35.04761353 79.12212067 -34.70863037 78.35779724 -34.359375 77.5703125 C-34.00041138 76.75499054 -33.64144775 75.93966858 -33.27160645 75.09963989 C-32.10019434 72.44033585 -30.92511608 69.7826691 -29.75 67.125 C-28.93688948 65.28105013 -28.12406658 63.4369734 -27.31152344 61.59277344 C-26.07524237 58.78683627 -24.83880254 55.98097083 -23.60137939 53.17553711 C-21.02482838 47.33295172 -18.45928758 41.4857093 -15.90625 35.6328125 C-15.59165833 34.91187408 -15.27706665 34.19093567 -14.95294189 33.44815063 C-13.77071961 30.73831811 -12.58871449 28.02839431 -11.40905762 25.31744385 C-7.71295309 16.82502603 -3.90642048 8.39763445 0 0 Z " fill="#6723EA" transform="translate(151,279)"/>
<path d="M0 0 C-1.26170109 4.17708809 -2.82311609 7.67196937 -5.125 11.375 C-5.66382813 12.24898438 -6.20265625 13.12296875 -6.7578125 14.0234375 C-7.16773438 14.67570312 -7.57765625 15.32796875 -8 16 C-12.64877727 14.53196507 -17.13026938 12.76087011 -21.6328125 10.90234375 C-26.18237414 9.16810491 -30.04266021 8.83861974 -34.9375 8.8125 C-36.14277344 8.79832031 -37.34804688 8.78414063 -38.58984375 8.76953125 C-43.01976244 9.06891865 -45.84465495 9.84465495 -49 13 C-49.66707548 16.41499591 -49.66707548 16.41499591 -49 20 C-45.01702046 23.20072132 -41.30671106 24.73123812 -36.38671875 25.96484375 C-35.13826172 26.29033203 -33.88980469 26.61582031 -32.60351562 26.95117188 C-30.64964874 27.44556496 -28.69475625 27.93568571 -26.73950195 28.42456055 C-14.92491355 31.40469608 -5.06123973 34.54856279 2 45 C5.07740153 52.35900365 4.95742219 60.35484655 2.16015625 67.796875 C-1.49725369 74.74225953 -7.16242185 78.63021344 -14.41015625 81.2109375 C-15.26480469 81.47132813 -16.11945312 81.73171875 -17 82 C-18.08410156 82.35578125 -19.16820312 82.7115625 -20.28515625 83.078125 C-24.42339841 84.10507048 -28.13153014 84.38432221 -32.375 84.375 C-33.15230469 84.37338867 -33.92960938 84.37177734 -34.73046875 84.37011719 C-48.15683972 84.09356431 -62.74895029 80.50069981 -74 73 C-73.39733215 68.49272353 -71.63400206 65.1412037 -69.4375 61.1875 C-69.10814453 60.59001953 -68.77878906 59.99253906 -68.43945312 59.37695312 C-67.63226733 57.91466002 -66.81695083 56.4568601 -66 55 C-64.69289063 55.70576172 -64.69289063 55.70576172 -63.359375 56.42578125 C-50.32897297 63.3066736 -37.04231325 67.64165616 -22.1875 64 C-21.135625 63.67 -20.08375 63.34 -19 63 C-19 60.03 -19 57.06 -19 54 C-24.23911255 50.99029705 -29.47270811 49.15338438 -35.25 47.5 C-35.9917749 47.28698242 -36.7335498 47.07396484 -37.49780273 46.85449219 C-38.97549177 46.43188054 -40.45343361 46.01015173 -41.93164062 45.58935547 C-61.87652467 39.90628771 -61.87652467 39.90628771 -67.5 31.8125 C-71.11920666 25.02648752 -70.8724331 17.02649531 -69.57421875 9.546875 C-67.23620018 2.26028953 -61.70510694 -2.31266085 -55.125 -5.8125 C-36.68185663 -14.24365125 -16.95528754 -9.6336861 0 0 Z " fill="#6724E9" transform="translate(750,288)"/>
<path d="M0 0 C17.37896652 -2.04501138 17.37896652 -2.04501138 22.9453125 1.09863281 C26.25515737 3.98275488 28.61663054 7.50843554 30.90185547 11.22949219 C32.56781798 13.9154771 34.48296233 16.40781427 36.375 18.9375 C37.00148438 19.82179688 37.62796875 20.70609375 38.2734375 21.6171875 C39.77305135 23.68679032 41.32956625 25.63076935 43 27.5625 C45 30 45 30 45 32 C48.38659825 28.73708621 51.29914533 25.42660931 54.0625 21.625 C54.85269531 20.59117187 55.64289063 19.55734375 56.45703125 18.4921875 C58.30118094 16.03474585 59.92319482 13.51179819 61.51171875 10.8828125 C68.0143645 0.75822983 68.0143645 0.75822983 73.58984375 -0.65771484 C79.76570962 -1.2899151 85.86351532 -0.84079154 92 0 C90.24237075 3.6721459 88.07042424 6.65683161 85.5625 9.875 C85.12292969 10.44089844 84.68335938 11.00679688 84.23046875 11.58984375 C82.8246936 13.39670164 81.41335833 15.19906891 80 17 C79.54351074 17.58168945 79.08702148 18.16337891 78.61669922 18.76269531 C77.24515582 20.50900671 75.87260032 22.25451929 74.5 24 C73.12916722 25.74571757 71.75837701 27.49146849 70.38769531 29.23730469 C69.44672828 30.43255134 68.5032861 31.62585278 67.55761719 32.81738281 C66.15749449 34.58201202 64.7656395 36.35289336 63.375 38.125 C62.55773437 39.15882813 61.74046875 40.19265625 60.8984375 41.2578125 C58.66237707 44.37665819 58.66237707 44.37665819 58 48 C59.00346654 49.68959454 59.00346654 49.68959454 60.6875 51.25 C64.28336196 55.10169404 67.43673575 59.14321191 70.5625 63.375 C73.94968521 67.95062332 77.36753431 72.49342621 80.88671875 76.96875 C81.52988037 77.78682129 82.17304199 78.60489258 82.83569336 79.44775391 C84.09689439 81.0468944 85.36194432 82.64300799 86.63110352 84.23583984 C87.20143311 84.95980957 87.7717627 85.6837793 88.359375 86.4296875 C88.86952148 87.07147949 89.37966797 87.71327148 89.90527344 88.37451172 C91 90 91 90 91 92 C72.71959835 93.95030957 72.71959835 93.95030957 67.05859375 89.890625 C65.22259858 87.31256726 63.64734684 84.70689466 62.14746094 81.92236328 C59.88273852 78.12823044 56.94707491 74.82460741 54.125 71.4375 C53.56425781 70.74720703 53.00351562 70.05691406 52.42578125 69.34570312 C50.05457356 66.42929075 47.69522961 63.62513972 45 61 C44.72760498 61.58249512 44.45520996 62.16499023 44.17456055 62.76513672 C43.0156936 64.97013944 41.73723652 66.79626913 40.20703125 68.7578125 C39.66377197 69.46172119 39.1205127 70.16562988 38.56079102 70.89086914 C37.37807013 72.40226124 36.18958035 73.90915379 34.99584961 75.41186523 C31.7736238 79.50909013 29.31128118 83.34141421 27.0625 88.0625 C24.94448327 90.56275892 23.71266792 91.84682321 20.47265625 92.54321289 C19.55355469 92.5611792 18.63445312 92.57914551 17.6875 92.59765625 C16.69097412 92.62013428 15.69444824 92.6426123 14.66772461 92.66577148 C10.09740415 92.60576335 5.55464639 92.37872843 1 92 C2.25650301 89.35814034 3.61196634 87.01339302 5.36328125 84.671875 C5.83169434 84.04474609 6.30010742 83.41761719 6.78271484 82.77148438 C7.28754395 82.10439453 7.79237305 81.43730469 8.3125 80.75 C9.10068115 79.70295898 9.10068115 79.70295898 9.90478516 78.63476562 C14.29410725 72.84454091 18.83441254 67.1852764 23.45825195 61.58105469 C24.98333204 59.72950115 26.49245257 57.86584346 28 56 C28.57782227 55.30519531 29.15564453 54.61039062 29.75097656 53.89453125 C30.31010742 53.19714844 30.86923828 52.49976563 31.4453125 51.78125 C32.21512451 50.83862305 32.21512451 50.83862305 33.00048828 49.87695312 C34.20104352 48.04648314 34.20104352 48.04648314 33.77612305 45.93286133 C32.57734502 42.9474176 30.67551048 40.70818314 28.6875 38.1875 C28.24599609 37.62417969 27.80449219 37.06085938 27.34960938 36.48046875 C25.90806631 34.64687422 24.45581794 32.82227752 23 31 C22.50967285 30.38592285 22.0193457 29.7718457 21.51416016 29.13916016 C19.50767618 26.62925257 17.49855911 24.12146834 15.48779297 21.61499023 C12.06802247 17.34830864 8.66889372 13.06676331 5.3125 8.75 C4.50425781 7.71359375 3.69601562 6.6771875 2.86328125 5.609375 C1 3 1 3 0 0 Z " fill="#6725E8" transform="translate(264,279)"/>
<path d="M0 0 C6.29047513 5.00163718 10.09629391 10.84751244 11.2421875 18.859375 C11.66091668 28.8537794 9.35731908 37.90430058 2.640625 45.52734375 C-3.49600319 50.97177093 -11.64635695 53.30494448 -19.76171875 52.90625 C-27.93423444 51.65390557 -34.90724523 47.85847802 -40.234375 41.52734375 C-45.41561103 33.76179292 -46.65686805 25.69679538 -45.234375 16.52734375 C-42.66070988 8.59109641 -38.45047242 1.91083455 -31.234375 -2.47265625 C-20.31813164 -7.37526635 -9.98868202 -6.58344952 0 0 Z " fill="#FDFBFD" transform="translate(580.234375,301.47265625)"/>
<path d="M0 0 C2.61308201 2.61308201 3.68602679 5.61825364 5.08984375 8.97265625 C5.39033127 9.67942001 5.69081879 10.38618378 6.00041199 11.11436462 C6.646977 12.6363194 7.29139589 14.15918731 7.93389893 15.68286133 C9.61942351 19.67940896 11.32065937 23.66926881 13.01953125 27.66015625 C13.3586554 28.45805573 13.69777954 29.2559552 14.04718018 30.07803345 C17.02324594 37.07423355 20.05669357 44.04369323 23.125 51 C23.549021 51.96301025 23.97304199 52.92602051 24.40991211 53.91821289 C26.05010958 57.63247919 27.69200056 61.34185608 29.41308594 65.01953125 C30.10192871 66.49486328 30.10192871 66.49486328 30.8046875 68 C31.43479736 69.3303125 31.43479736 69.3303125 32.07763672 70.6875 C33 73 33 73 33 76 C26.07 76 19.14 76 12 76 C7 65.25 7 65.25 7 63 C7.66 63 8.32 63 9 63 C9 63.99 9 64.98 9 66 C9.66 66 10.32 66 11 66 C11.33 67.98 11.66 69.96 12 72 C12.66 72 13.32 72 14 72 C14 71.34 14 70.68 14 70 C14.99 70.33 15.98 70.66 17 71 C16.505 72.98 16.505 72.98 16 75 C21.94 74.01 21.94 74.01 28 73 C28.33 71.35 28.66 69.7 29 68 C28.34 68 27.68 68 27 68 C27 66.68 27 65.36 27 64 C25.68 64 24.36 64 23 64 C22.938125 62.72125 22.87625 61.4425 22.8125 60.125 C22.29801489 55.19062004 20.48971305 51.53856036 18.05859375 47.26171875 C17 45 17 45 17 41 C16.34 41 15.68 41 15 41 C14.67 40.01 14.34 39.02 14 38 C13.34 38.66 12.68 39.32 12 40 C11.67 39.01 11.34 38.02 11 37 C7.87802522 38.3089572 7.87802522 38.3089572 6 41 C5.34 41 4.68 41 4 41 C4 39.68 4 38.36 4 37 C-6.56 37 -17.12 37 -28 37 C-26.0407967 31.1223901 -23.6571689 25.76375873 -21 20.1875 C-20.54882812 19.22134766 -20.09765625 18.25519531 -19.6328125 17.25976562 C-19.19710937 16.34259766 -18.76140625 15.42542969 -18.3125 14.48046875 C-17.91675781 13.64410889 -17.52101562 12.80774902 -17.11328125 11.94604492 C-16 10 -16 10 -14 9 C-13.01 9.33 -12.02 9.66 -11 10 C-11 10.99 -11 11.98 -11 13 C-10.01 12.67 -9.02 12.34 -8 12 C-8 14.97 -8 17.94 -8 21 C-7.34 21 -6.68 21 -6 21 C-5.87625 20.278125 -5.7525 19.55625 -5.625 18.8125 C-5 16 -5 16 -4 13.5625 C-2.89092718 10.72050091 -2.42056764 8.01406808 -2 5 C-1.34 5 -0.68 5 0 5 C0 3.35 0 1.7 0 0 Z " fill="#6724E9" transform="translate(174,295)"/>
<path d="M0 0 C0 20.13 0 40.26 0 61 C4.95 61 9.9 61 15 61 C12.01042921 64.73696348 9.88765264 67.10499659 6.25 69.9375 C4.94482422 70.95650391 4.94482422 70.95650391 3.61328125 71.99609375 C2.75089844 72.65738281 1.88851563 73.31867188 1 74 C0.20980469 74.60972656 -0.58039063 75.21945312 -1.39453125 75.84765625 C-6.84264184 80 -6.84264184 80 -8 80 C-8 55.25 -8 30.5 -8 5 C-7.34 5 -6.68 5 -6 5 C-6 4.34 -6 3.68 -6 3 C-1.5 0 -1.5 0 0 0 Z " fill="#5F31C0" transform="translate(445,279)"/>
<path d="M0 0 C0.16225265 9.82256643 0.28659989 19.6448137 0.3626852 29.46844769 C0.39920472 34.03014675 0.44872926 38.59092852 0.52807617 43.15209961 C0.60418537 47.55475167 0.64599993 51.95652209 0.6641407 56.35978127 C0.67706636 58.03881525 0.70230883 59.71780141 0.7401104 61.39645958 C1.02526085 74.58475774 1.02526085 74.58475774 -1.5697937 78.16690063 C-3.51735472 79.5968418 -5.46093855 81 -8 81 C-8 60.54 -8 40.08 -8 19 C-12.95 19 -17.9 19 -23 19 C-17.37044745 13.37044745 -17.37044745 13.37044745 -14.80859375 11.2109375 C-14.25623047 10.74429687 -13.70386719 10.27765625 -13.13476562 9.796875 C-12.57466797 9.32765625 -12.01457031 8.8584375 -11.4375 8.375 C-10.59155273 7.65957031 -10.59155273 7.65957031 -9.72851562 6.9296875 C-1.49951172 0 -1.49951172 0 0 0 Z " fill="#6425E2" transform="translate(430,290)"/>
<path d="M0 0 C0.5775 0.226875 1.155 0.45375 1.75 0.6875 C1.75 1.3475 1.75 2.0075 1.75 2.6875 C2.36488281 2.66429687 2.97976563 2.64109375 3.61328125 2.6171875 C4.42152344 2.59914063 5.22976563 2.58109375 6.0625 2.5625 C6.86300781 2.53929687 7.66351562 2.51609375 8.48828125 2.4921875 C10.75 2.6875 10.75 2.6875 13.75 4.6875 C12.1 4.6875 10.45 4.6875 8.75 4.6875 C8.75 5.6775 8.75 6.6675 8.75 7.6875 C12.10433109 6.73816101 15.44246505 5.79001165 18.75 4.6875 C21.4375 5.125 21.4375 5.125 23.75 5.6875 C23.75 7.0075 23.75 8.3275 23.75 9.6875 C25.07 9.0275 26.39 8.3675 27.75 7.6875 C27.75 7.0275 27.75 6.3675 27.75 5.6875 C29.4 5.0275 31.05 4.3675 32.75 3.6875 C32.75 5.0075 32.75 6.3275 32.75 7.6875 C31.780625 7.935 30.81125 8.1825 29.8125 8.4375 C28.801875 8.85 27.79125 9.2625 26.75 9.6875 C25.78122943 11.71993548 25.78122943 11.71993548 25.75 13.6875 C27.4 13.3575 29.05 13.0275 30.75 12.6875 C30.42 13.3475 30.09 14.0075 29.75 14.6875 C28.1 14.6875 26.45 14.6875 24.75 14.6875 C24.75 15.3475 24.75 16.0075 24.75 16.6875 C14.35634153 19.13771607 3.7549832 18.18196399 -6.25 14.6875 C-6.353125 14.048125 -6.45625 13.40875 -6.5625 12.75 C-6.789375 12.069375 -7.01625 11.38875 -7.25 10.6875 C-8.24 10.3575 -9.23 10.0275 -10.25 9.6875 C-9.26 8.7903125 -9.26 8.7903125 -8.25 7.875 C-5.9126154 5.81248166 -5.9126154 5.81248166 -6.25 2.6875 C-4.08146295 0.51896295 -3.10906228 -0.43181421 0 0 Z " fill="#6724EB" transform="translate(551.25,352.3125)"/>
<path d="M0 0 C2.93570303 1.46785152 3.29752415 3.51546799 4.6015625 6.49609375 C5.09140625 7.61177734 5.58125 8.72746094 6.0859375 9.87695312 C6.59382813 11.05193359 7.10171875 12.22691406 7.625 13.4375 C8.140625 14.60861328 8.65625 15.77972656 9.1875 16.98632812 C13 25.72582879 13 25.72582879 13 28 C4.42 28 -4.16 28 -13 28 C-11.67582127 24.02746381 -10.42924068 20.5762361 -8.65234375 16.85546875 C-8.21212891 15.93185547 -7.77191406 15.00824219 -7.31835938 14.05664062 C-6.86267578 13.10982422 -6.40699219 12.16300781 -5.9375 11.1875 C-5.47794922 10.22134766 -5.01839844 9.25519531 -4.54492188 8.25976562 C-1.13547633 1.13547633 -1.13547633 1.13547633 0 0 Z " fill="#FAF6FC" transform="translate(159,304)"/>
<path d="M0 0 C0.97854084 3.24988509 1.09161558 6.11728983 1.02172852 9.50292969 C1.00163223 10.60376892 0.98153595 11.70460815 0.96083069 12.83880615 C0.93379562 14.02121887 0.90676056 15.20363159 0.87890625 16.421875 C0.85529526 17.63699768 0.83168427 18.85212036 0.80735779 20.10406494 C0.7307682 23.98616351 0.64672307 27.86806026 0.5625 31.75 C0.50927464 34.38150053 0.45653427 37.01301092 0.40429688 39.64453125 C0.27515926 46.09648204 0.1393348 52.54826169 0 59 C3.96 59 7.92 59 12 59 C10.515 59.495 10.515 59.495 9 60 C9 61.32 9 62.64 9 64 C7.02 64.495 7.02 64.495 5 65 C5 65.66 5 66.32 5 67 C3.68 67 2.36 67 1 67 C1 68.32 1 69.64 1 71 C-0.9375 71.5625 -0.9375 71.5625 -3 72 C-4.84401308 70.15598692 -4.15667834 67.16260107 -4.17700195 64.69189453 C-4.18357315 64.03332458 -4.19014435 63.37475464 -4.19691467 62.69622803 C-4.21668793 60.50842182 -4.22831877 58.32068435 -4.23828125 56.1328125 C-4.24235678 55.38725979 -4.2464323 54.64170708 -4.25063133 53.87356186 C-4.27150878 49.92791773 -4.28580347 45.98230856 -4.29516602 42.03662109 C-4.30623716 37.95512816 -4.34063963 33.87417945 -4.38033772 29.7928791 C-4.40644766 26.65993212 -4.41485276 23.5271159 -4.41844749 20.39406967 C-4.42332771 18.88932492 -4.43498244 17.38458656 -4.45348549 15.87994766 C-4.4777607 13.7751546 -4.47693449 11.67178388 -4.4699707 9.56689453 C-4.47583694 8.36855988 -4.48170319 7.17022522 -4.48774719 5.93557739 C-4 3 -4 3 -1.97062683 1.08956909 C-0.99516655 0.55023239 -0.99516655 0.55023239 0 0 Z " fill="#6823EA" transform="translate(443,282)"/>
<path d="M0 0 C1.59912081 4.79736243 -1.44498626 8.85675475 -3.56640625 13.2265625 C-5.24950871 17.17865088 -5.54667066 20.86793022 -5.6875 25.125 C-5.72166016 25.81464844 -5.75582031 26.50429688 -5.79101562 27.21484375 C-6.26790833 34.21535485 -6.26790833 34.21535485 -5 41 C-5.66 41.99 -6.32 42.98 -7 44 C-5.8553125 43.505 -5.8553125 43.505 -4.6875 43 C-2 42 -2 42 1 42 C1 40.02 1 38.04 1 36 C2.32 36 3.64 36 5 36 C4.31282934 39.89396706 3.27666659 43.17000022 2 47 C-5.26 47 -12.52 47 -20 47 C-18.78702828 43.36108483 -17.64913077 40.02126836 -16.12060547 36.55517578 C-15.760383 35.73477814 -15.40016052 34.91438049 -15.02902222 34.06912231 C-14.64561676 33.20326508 -14.2622113 32.33740784 -13.8671875 31.4453125 C-13.47048859 30.54376434 -13.07378967 29.64221619 -12.66506958 28.71334839 C-11.40421628 25.84945498 -10.13966478 22.98721204 -8.875 20.125 C-8.01668204 18.1771913 -7.15860644 16.22927577 -6.30078125 14.28125 C-4.20332607 9.51959268 -2.10283655 4.75928306 0 0 Z " fill="#6726E5" transform="translate(131,324)"/>
<path d="M0 0 C4.17065164 1.53756742 6.29444944 4.56657582 8.875 8 C9.83719094 9.25264154 10.79943325 10.50524361 11.76171875 11.7578125 C12.53394775 12.77149902 12.53394775 12.77149902 13.32177734 13.80566406 C15.78456762 17.02585013 18.2793822 20.22082781 20.77197266 23.41796875 C23.51918193 26.9417916 26.25952549 30.47093873 29 34 C26 34 26 34 24.68139648 32.73071289 C24.24899658 32.1505542 23.81659668 31.57039551 23.37109375 30.97265625 C22.89349609 30.34552734 22.41589844 29.71839844 21.92382812 29.07226562 C21.43333984 28.40904297 20.94285156 27.74582031 20.4375 27.0625 C19.46035729 25.75921839 18.48003173 24.45831529 17.49609375 23.16015625 C17.06482178 22.57886963 16.6335498 21.99758301 16.18920898 21.39868164 C15.03227664 19.8529149 15.03227664 19.8529149 13 19 C12.71125 18.360625 12.4225 17.72125 12.125 17.0625 C10.75371947 14.5484857 9.5160747 14.2174555 7 13 C6.67 12.01 6.34 11.02 6 10 C4.10786631 12.38573379 2.97608217 14.07175348 2 17 C1.01 17 0.02 17 -1 17 C-0.50168276 20.68754757 0.10067643 22.60490662 3 25 C2.67 25.99 2.34 26.98 2 28 C1.31292969 27.16855469 0.62585938 26.33710938 -0.08203125 25.48046875 C-0.99210836 24.38274688 -1.902269 23.28509426 -2.8125 22.1875 C-3.49022461 21.36668945 -3.49022461 21.36668945 -4.18164062 20.52929688 C-6.35702693 17.90930608 -8.52526283 15.34318968 -11 13 C-11.2475 13.5775 -11.495 14.155 -11.75 14.75 C-13.16683317 17.3002997 -14.87627537 19.01785701 -17 21 C-17 19.35 -17 17.7 -17 16 C-16.01 16 -15.02 16 -14 16 C-13.67 14.68 -13.34 13.36 -13 12 C-9.535 11.505 -9.535 11.505 -6 11 C-6 12.65 -6 14.3 -6 16 C-5.34 16 -4.68 16 -4 16 C-3.79375 15.05125 -3.5875 14.1025 -3.375 13.125 C-2 10 -2 10 1.125 8.625 C2.07375 8.41875 3.0225 8.2125 4 8 C4 7.01 4 6.02 4 5 C2.68 4.67 1.36 4.34 0 4 C0 2.68 0 1.36 0 0 Z " fill="#682BDE" transform="translate(320,327)"/>
<path d="M0 0 C1.73056641 -0.02513672 1.73056641 -0.02513672 3.49609375 -0.05078125 C6.5625 0.3125 6.5625 0.3125 8.4765625 1.609375 C9.5625 3.3125 9.5625 3.3125 9.5 6.875 C8.5625 10.3125 8.5625 10.3125 6.5 11.75 C5.860625 11.935625 5.22125 12.12125 4.5625 12.3125 C4.5625 12.9725 4.5625 13.6325 4.5625 14.3125 C2.9125 14.9725 1.2625 15.6325 -0.4375 16.3125 C-1.0975 14.3325 -1.7575 12.3525 -2.4375 10.3125 C-3.0975 10.3125 -3.7575 10.3125 -4.4375 10.3125 C-4.4375 8.9925 -4.4375 7.6725 -4.4375 6.3125 C-5.0975 6.3125 -5.7575 6.3125 -6.4375 6.3125 C-7.0975 4.9925 -7.7575 3.6725 -8.4375 2.3125 C-5.65940605 -0.46559395 -3.86994797 0.01294297 0 0 Z " fill="#6724EA" transform="translate(277.4375,279.6875)"/>
<path d="M0 0 C0.061875 0.61875 0.12375 1.2375 0.1875 1.875 C0.455625 2.57625 0.72375 3.2775 1 4 C1.825 4.33 2.65 4.66 3.5 5 C4.325 5.33 5.15 5.66 6 6 C6.6875 8.0625 6.6875 8.0625 7 10 C7.66 10.33 8.32 10.66 9 11 C8.01 12.485 8.01 12.485 7 14 C6.34 13.67 5.68 13.34 5 13 C5.33 13.99 5.66 14.98 6 16 C4 18 4 18 1 19 C0.34 19.33 -0.32 19.66 -1 20 C-1.66 19.67 -2.32 19.34 -3 19 C-3 18.01 -3 17.02 -3 16 C-3.99 15.67 -4.98 15.34 -6 15 C-6.3721042 13.67696283 -6.70630173 12.34262065 -7 11 C-7.66 10.67 -8.32 10.34 -9 10 C-8.34 10 -7.68 10 -7 10 C-7 9.34 -7 8.68 -7 8 C-6.01 8 -5.02 8 -4 8 C-3.896875 7.236875 -3.79375 6.47375 -3.6875 5.6875 C-2.95635961 2.82940576 -2.23048087 1.84257115 0 0 Z " fill="#6723EB" transform="translate(326,336)"/>
<path d="M0 0 C2.16643631 2.16643631 2.90700031 3.79226211 4.1015625 6.59375 C4.50584473 7.53379883 4.91012695 8.47384766 5.32666016 9.44238281 C5.7551123 10.45139648 6.18356445 11.46041016 6.625 12.5 C7.52000702 14.5888959 8.41585151 16.67743317 9.3125 18.765625 C9.76109375 19.81169922 10.2096875 20.85777344 10.671875 21.93554688 C11.90291115 24.77598176 13.16077186 27.60173373 14.4375 30.421875 C14.9931665 31.65067383 14.9931665 31.65067383 15.56005859 32.90429688 C16.25670165 34.4387642 16.95738977 35.97140311 17.66259766 37.50195312 C20 42.67024993 20 42.67024993 20 46 C13.07 46 6.14 46 -1 46 C-6 35.25 -6 35.25 -6 33 C-5.34 33 -4.68 33 -4 33 C-4 33.99 -4 34.98 -4 36 C-3.34 36 -2.68 36 -2 36 C-1.67 37.98 -1.34 39.96 -1 42 C-0.34 42 0.32 42 1 42 C1 41.34 1 40.68 1 40 C1.99 40.33 2.98 40.66 4 41 C3.67 42.32 3.34 43.64 3 45 C6.96 44.34 10.92 43.68 15 43 C15.33 41.35 15.66 39.7 16 38 C15.34 38 14.68 38 14 38 C14 36.68 14 35.36 14 34 C12.68 34 11.36 34 10 34 C9.938125 32.72125 9.87625 31.4425 9.8125 30.125 C9.29801489 25.19062004 7.48971305 21.53856036 5.05859375 17.26171875 C4 15 4 15 4 11 C3.34 11 2.68 11 2 11 C0.80712589 7.12315913 0 4.08378077 0 0 Z " fill="#6632CE" transform="translate(187,325)"/>
<path d="M0 0 C1.32 0.33 2.64 0.66 4 1 C4 7.6 4 14.2 4 21 C3.01 21 2.02 21 1 21 C1.33 22.32 1.66 23.64 2 25 C1.34 25 0.68 25 0 25 C-0.33 25.66 -0.66 26.32 -1 27 C-1 24.36 -1 21.72 -1 19 C0.32 18.34 1.64 17.68 3 17 C3 15.68 3 14.36 3 13 C2.195625 13.144375 1.39125 13.28875 0.5625 13.4375 C-3.61359481 14.09688339 -7.79598059 14.56091353 -12 15 C-11.67 13.68 -11.34 12.36 -11 11 C-9.35 10.67 -7.7 10.34 -6 10 C-5.938125 9.38125 -5.87625 8.7625 -5.8125 8.125 C-5 6 -5 6 -2.4375 4.75 C-1.633125 4.5025 -0.82875 4.255 0 4 C-0.33 3.01 -0.66 2.02 -1 1 C-0.67 0.67 -0.34 0.34 0 0 Z " fill="#6824EC" transform="translate(425,293)"/>
<path d="M0 0 C-2.05357143 6.58928571 -2.05357143 6.58928571 -5 9 C-6.125 2.25 -6.125 2.25 -5 0 C-6.32 -0.33 -7.64 -0.66 -9 -1 C-9 -1.66 -9 -2.32 -9 -3 C-24.09706164 -7.44381315 -38.67387017 -9.14399109 -54 -4 C-55.71317384 -2.46008898 -55.71317384 -2.46008898 -57 -1 C-59.1875 -1.3125 -59.1875 -1.3125 -61 -2 C-42.5959556 -15.68505866 -18.53001455 -10.52841736 0 0 Z " fill="#6C3DCC" transform="translate(750,288)"/>
<path d="M0 0 C0.33 0 0.66 0 1 0 C1.33 22.11 1.66 44.22 2 67 C3.32 67 4.64 67 6 67 C6 65.68 6 64.36 6 63 C7.32 63 8.64 63 10 63 C10 62.34 10 61.68 10 61 C11.98 60.505 11.98 60.505 14 60 C14 58.68 14 57.36 14 56 C16.475 55.505 16.475 55.505 19 55 C18.65307301 57.88463372 18.0885595 58.91466393 15.9609375 60.96484375 C14.68089844 61.94130859 14.68089844 61.94130859 13.375 62.9375 C12.02921875 63.97197266 12.02921875 63.97197266 10.65625 65.02734375 C7.46591449 67.39663703 4.26224748 69.73061045 1 72 C-0.44957456 69.10085089 -0.11932924 66.585717 -0.11352539 63.34716797 C-0.11367142 62.66412598 -0.11381744 61.98108398 -0.1139679 61.27734375 C-0.11327023 59.0155929 -0.10548465 56.753924 -0.09765625 54.4921875 C-0.09579155 52.92562912 -0.09436789 51.35907016 -0.09336853 49.79251099 C-0.08954743 45.66610102 -0.0797206 41.53972616 -0.06866455 37.41333008 C-0.0584417 33.20394363 -0.05386903 28.99455153 -0.04882812 24.78515625 C-0.03809798 16.52342138 -0.02102642 8.26171505 0 0 Z " fill="#632ADA" transform="translate(438,286)"/>
<path d="M0 0 C2.9444049 -0.30401999 5.67466124 -0.41990857 8.62109375 -0.3984375 C9.904645 -0.40274277 9.904645 -0.40274277 11.21412659 -0.40713501 C13.02565166 -0.40917837 14.83719866 -0.40362951 16.64868164 -0.39111328 C19.42319114 -0.37508267 22.19623953 -0.39094217 24.97070312 -0.41015625 C26.72916989 -0.40817348 28.48763574 -0.4043291 30.24609375 -0.3984375 C31.07741318 -0.40451019 31.9087326 -0.41058289 32.76524353 -0.4168396 C38.54764032 -0.34620377 38.54764032 -0.34620377 40.7313385 1.32504272 C42.61690827 3.81447652 42.20162586 5.97561206 42 9 C41.34 9.33 40.68 9.66 40 10 C39.01 7.69 38.02 5.38 37 3 C25.12 2.67 13.24 2.34 1 2 C0.67 3.65 0.34 5.3 0 7 C-0.95394836 9.02237052 -1.94535351 11.0282696 -3 13 C-4.32757546 9.01727361 -3.3296542 6.9189808 -2 3 C-1.34 2.01 -0.68 1.02 0 0 Z " fill="#662ED4" transform="translate(140,347)"/>
<path d="M0 0 C0.66 0.33 1.32 0.66 2 1 C0.625 2.5 0.625 2.5 -1 4 C-1.66 4 -2.32 4 -3 4 C-3.20625 4.928125 -3.4125 5.85625 -3.625 6.8125 C-5.36446869 10.8449047 -7.0988999 11.25695527 -11 13 C-11.97608217 15.92824652 -12.08226668 17.95613276 -12 21 C-12.99 20.67 -13.98 20.34 -15 20 C-15.12375 20.556875 -15.2475 21.11375 -15.375 21.6875 C-16 24 -16 24 -17.02685547 26.28588867 C-18.10496861 29.29275867 -18.22937847 31.55311309 -18.1953125 34.73828125 C-18.18886719 35.80498047 -18.18242188 36.87167969 -18.17578125 37.97070312 C-18.15902344 39.07349609 -18.14226563 40.17628906 -18.125 41.3125 C-18.11597656 42.43462891 -18.10695313 43.55675781 -18.09765625 44.71289062 C-18.07414486 47.47547909 -18.04128155 50.23762932 -18 53 C-22.41002093 46.3849686 -21.6942371 37.6990327 -21 30 C-18.38515614 17.83724055 -10.29724262 6.86482841 0 0 Z " fill="#6939CD" transform="translate(536,286)"/>
<path d="M0 0 C1.20628008 2.33214148 2.1654738 4.49642139 3 7 C1.865625 7.268125 0.73125 7.53625 -0.4375 7.8125 C-1.613125 8.204375 -2.78875 8.59625 -4 9 C-4.33 9.99 -4.66 10.98 -5 12 C-5.66 12 -6.32 12 -7 12 C-7.33 12.99 -7.66 13.98 -8 15 C-8.66 15 -9.32 15 -10 15 C-10.309375 15.78375 -10.61875 16.5675 -10.9375 17.375 C-12 20 -12 20 -13 22 C-13.66 22 -14.32 22 -15 22 C-15 21.34 -15 20.68 -15 20 C-21.435 20.495 -21.435 20.495 -28 21 C-28.33 21.99 -28.66 22.98 -29 24 C-29.99 23.34 -30.98 22.68 -32 22 C-32.66 22 -33.32 22 -34 22 C-34.66 21.67 -35.32 21.34 -36 21 C-36.34833144 16.12335991 -35.41685712 13.22949995 -33 9 C-31.68 9.66 -30.36 10.32 -29 11 C-30.98 13.64 -32.96 16.28 -35 19 C-27.74 19 -20.48 19 -13 19 C-12.34 17.35 -11.68 15.7 -11 14 C-9.76318359 12.1472168 -9.76318359 12.1472168 -8.3984375 10.44921875 C-7.90859375 9.83369141 -7.41875 9.21816406 -6.9140625 8.58398438 C-6.40617187 7.95814453 -5.89828125 7.33230469 -5.375 6.6875 C-4.859375 6.04232422 -4.34375 5.39714844 -3.8125 4.73242188 C-2.54705818 3.1506196 -1.27425738 1.57470937 0 0 Z " fill="#F9F0FB" transform="translate(300,352)"/>
<path d="M0 0 C0.89912109 -0.02449219 1.79824219 -0.04898437 2.72460938 -0.07421875 C8.45201194 -0.09906648 12.60329839 0.79481181 17.69775391 3.43994141 C20.67181014 4.83756538 23.43240586 5.09797071 26.6875 5.375 C27.0175 4.385 27.3475 3.395 27.6875 2.375 C28.1825 3.365 28.1825 3.365 28.6875 4.375 C27.25 7 27.25 7 25.6875 9.375 C21.03872273 7.90696507 16.55723062 6.13587011 12.0546875 4.27734375 C7.50512586 2.54310491 3.64483979 2.21361974 -1.25 2.1875 C-2.45527344 2.17332031 -3.66054688 2.15914063 -4.90234375 2.14453125 C-9.33226244 2.44391865 -12.15715495 3.21965495 -15.3125 6.375 C-15.81257794 9.83286015 -15.81257794 9.83286015 -15.3125 13.375 C-13.4120533 15.21815671 -13.4120533 15.21815671 -11.3125 16.375 C-11.3125 17.035 -11.3125 17.695 -11.3125 18.375 C-13.6875 18.0625 -13.6875 18.0625 -16.3125 17.375 C-18.79811263 13.64658106 -18.71316693 10.6865246 -18.3125 6.375 C-17.6875 4 -17.6875 4 -16.3125 2.375 C-10.93652174 0.000968 -5.76899498 0.0081656 0 0 Z " fill="#6635C8" transform="translate(716.3125,294.625)"/>
<path d="M0 0 C1.65 0 3.3 0 5 0 C5 0.66 5 1.32 5 2 C3.02 2.99 3.02 2.99 1 4 C1 5.32 1 6.64 1 8 C2.32 8.33 3.64 8.66 5 9 C4.01 11.31 3.02 13.62 2 16 C1.34 16 0.68 16 0 16 C-0.66 14.68 -1.32 13.36 -2 12 C-2.99 12 -3.98 12 -5 12 C-5.226875 12.61875 -5.45375 13.2375 -5.6875 13.875 C-7.37929835 16.61410209 -8.99244161 17.05024472 -12 18 C-11.505 17.505 -11.01 17.01 -10.5 16.5 C-8.33522512 12.89204187 -8.86510341 10.18179438 -9 6 C-8.67 5.34 -8.34 4.68 -8 4 C-7.34 4 -6.68 4 -6 4 C-6 4.99 -6 5.98 -6 7 C-4.68 6.67 -3.36 6.34 -2 6 C-2 4.68 -2 3.36 -2 2 C-1.34 2 -0.68 2 0 2 C0 1.34 0 0.68 0 0 Z " fill="#6722EF" transform="translate(334,288)"/>
<path d="M0 0 C1.58206057 0.00667536 3.16410534 0.0186375 4.74609375 0.03515625 C5.55240234 0.03966797 6.35871094 0.04417969 7.18945312 0.04882812 C9.18753131 0.06065107 11.18557158 0.07858711 13.18359375 0.09765625 C14.21399542 2.38544663 15.23311393 4.67716761 16.24609375 6.97265625 C16.54064453 7.62363281 16.83519531 8.27460938 17.13867188 8.9453125 C17.88020888 10.63776166 18.53798376 12.366342 19.18359375 14.09765625 C18.85359375 14.75765625 18.52359375 15.41765625 18.18359375 16.09765625 C14.18359375 9.47265625 14.18359375 9.47265625 14.18359375 6.09765625 C13.52359375 6.09765625 12.86359375 6.09765625 12.18359375 6.09765625 C12.18359375 4.77765625 12.18359375 3.45765625 12.18359375 2.09765625 C11.60351562 2.18144531 11.0234375 2.26523437 10.42578125 2.3515625 C5.76044072 2.95975046 1.82917258 3.1697129 -2.81640625 2.09765625 C-2.87828125 2.92265625 -2.94015625 3.74765625 -3.00390625 4.59765625 C-3.74125013 7.77390682 -4.31504766 9.07429451 -6.06640625 11.66015625 C-9.65904299 17.03340012 -11.6480946 23.04483734 -13.81640625 29.09765625 C-14.47640625 28.76765625 -15.13640625 28.43765625 -15.81640625 28.09765625 C-14.03878154 22.3179475 -11.64352188 16.83072554 -9.25390625 11.28515625 C-8.84205078 10.31900391 -8.43019531 9.35285156 -8.00585938 8.35742188 C-7.61205078 7.44025391 -7.21824219 6.52308594 -6.8125 5.578125 C-6.45341553 4.74176514 -6.09433105 3.90540527 -5.72436523 3.04370117 C-4.14190456 -0.34801543 -4.19296169 0.10729175 0 0 Z " fill="#6435C9" transform="translate(154.81640625,278.90234375)"/>
<path d="M0 0 C5.75994053 -0.35999628 9.7249539 0.77892796 15 3 C15.928125 3.28875 16.85625 3.5775 17.8125 3.875 C20.96696064 5.49729404 21.80776443 6.6336878 23 10 C22.64593285 14.49665276 22.25976647 18.74023353 19 22 C16.47802734 22.22705078 16.47802734 22.22705078 13.3359375 22.1953125 C12.21445312 22.18886719 11.09296875 22.18242187 9.9375 22.17578125 C8.761875 22.15902344 7.58625 22.14226562 6.375 22.125 C4.59996094 22.11146484 4.59996094 22.11146484 2.7890625 22.09765625 C-0.14082523 22.07402812 -3.0703134 22.04108514 -6 22 C-6.33 21.34 -6.66 20.68 -7 20 C-5.72125 20.02320313 -4.4425 20.04640625 -3.125 20.0703125 C-1.41667255 20.08908533 0.29166127 20.10728389 2 20.125 C2.83917969 20.14175781 3.67835938 20.15851563 4.54296875 20.17578125 C10.05254877 20.21849117 14.71048292 19.55502007 20 18 C20 15.03 20 12.06 20 9 C13.54871457 5.52623092 6.98500818 3.1886359 0 1 C0 0.67 0 0.34 0 0 Z " fill="#7545D4" transform="translate(711,333)"/>
<path d="M0 0 C4.95 0 9.9 0 15 0 C15.33 20.13 15.66 40.26 16 61 C17.65 59.68 19.3 58.36 21 57 C21.66 57.33 22.32 57.66 23 58 C19.375 63.875 19.375 63.875 16 65 C14 63 14 63 13.75949097 60.4057312 C13.76393219 59.30874908 13.76837341 58.21176697 13.77294922 57.08154297 C13.77310028 55.84040741 13.77325134 54.59927185 13.77340698 53.32052612 C13.783621 51.9610783 13.794053 50.6016321 13.8046875 49.2421875 C13.80841716 47.85499271 13.81126435 46.46779529 13.81326294 45.08059692 C13.82090316 41.42759949 13.84055484 37.77476083 13.8626709 34.12182617 C13.88312104 30.39504138 13.89226287 26.66823096 13.90234375 22.94140625 C13.92380052 15.62752337 13.95898566 8.31380415 14 1 C9.38 1 4.76 1 0 1 C0 0.67 0 0.34 0 0 Z " fill="#EFD8FD" transform="translate(407,309)"/>
<path d="M0 0 C9.67412058 7.81371278 16.06003596 15.72281113 19 28 C19.29110443 30.9433892 19.33318869 33.85621216 19.3125 36.8125 C19.30839111 37.99573853 19.30839111 37.99573853 19.30419922 39.20288086 C19.20000564 45.02873888 18.7154259 50.73107727 16 56 C15.01 56.495 15.01 56.495 14 57 C14.2165625 55.90042969 14.433125 54.80085938 14.65625 53.66796875 C17.48683165 38.87784425 18.79599957 27.15054085 10.54296875 13.609375 C8.16672836 10.32401889 5.51569514 7.46128205 2.625 4.625 C1.75875 3.75875 0.8925 2.8925 0 2 C0 1.34 0 0.68 0 0 Z " fill="#6737C4" transform="translate(592,288)"/>
<path d="M0 0 C-1.46387712 3.01613927 -3.08228897 5.58559431 -5.125 8.25 C-5.66382813 8.95640625 -6.20265625 9.6628125 -6.7578125 10.390625 C-7.16773438 10.92171875 -7.57765625 11.4528125 -8 12 C-8.33 10.68 -8.66 9.36 -9 8 C-8.34 8 -7.68 8 -7 8 C-7 6.35 -7 4.7 -7 3 C-11.62 3 -16.24 3 -21 3 C-21.66 4.32 -22.32 5.64 -23 7 C-23.66 7 -24.32 7 -25 7 C-25.33 8.65 -25.66 10.3 -26 12 C-27.32 12.33 -28.64 12.66 -30 13 C-29.71769531 12.43796875 -29.43539063 11.8759375 -29.14453125 11.296875 C-28.38314572 9.76890678 -27.67127929 8.21522803 -27.01171875 6.640625 C-21.43819599 -3.42130989 -9.98376598 -0.78490836 0 0 Z " fill="#6233C7" transform="translate(356,279)"/>
<path d="M0 0 C18.65518924 -1.64396326 18.65518924 -1.64396326 24.17578125 2.2265625 C26.11475577 4.74333016 27.66791297 7.11981182 29 10 C28.01 10.495 28.01 10.495 27 11 C24.63950749 8.85409771 23.38096396 6.85399218 22 4 C20.11153817 1.67133771 20.11153817 1.67133771 16.9609375 1.8046875 C15.18589844 1.83949219 15.18589844 1.83949219 13.375 1.875 C11.59222656 1.90207031 11.59222656 1.90207031 9.7734375 1.9296875 C8.85820312 1.95289063 7.94296875 1.97609375 7 2 C7 2.99 7 3.98 7 5 C7 5.66 7 6.32 7 7 C7.66 7 8.32 7 9 7 C11.18975773 10.28463659 11.99806563 13.20696275 13 17 C8.1596523 12.46217403 3.85310406 7.40199452 0 2 C0 1.34 0 0.68 0 0 Z " fill="#653ABF" transform="translate(264,279)"/>
<path d="M0 0 C4.65396084 -0.34904706 7.87329612 0.54669151 12.09765625 2.265625 C14.36117626 3.13942739 16.60599495 3.62593671 19 4 C19 3.34 19 2.68 19 2 C20.32 1.67 21.64 1.34 23 1 C22.67 2.32 22.34 3.64 22 5 C23.13179687 4.89300781 24.26359375 4.78601563 25.4296875 4.67578125 C26.91139121 4.55386892 28.39316612 4.43281984 29.875 4.3125 C30.62136719 4.23966797 31.36773438 4.16683594 32.13671875 4.09179688 C34.3046875 3.92578125 34.3046875 3.92578125 38 4 C38.66 4.99 39.32 5.98 40 7 C26.03641906 7.58794025 13.00615641 6.58484859 0 1 C0 0.67 0 0.34 0 0 Z " fill="#7843DC" transform="translate(686,365)"/>
<path d="M0 0 C0 24.75 0 49.5 0 75 C-0.33 75 -0.66 75 -1 75 C-1 51.57 -1 28.14 -1 4 C-1.99 3.67 -2.98 3.34 -4 3 C-1.125 0 -1.125 0 0 0 Z " fill="#5B2EC2" transform="translate(430,290)"/>
<path d="M0 0 C0.66 0 1.32 0 2 0 C2 0.99 2 1.98 2 3 C2.99 2.67 3.98 2.34 5 2 C5 4.97 5 7.94 5 11 C5.66 11 6.32 11 7 11 C7.33 9.68 7.66 8.36 8 7 C8.28875 7.639375 8.5775 8.27875 8.875 8.9375 C9.82823451 11.15206079 9.82823451 11.15206079 12 12 C11.67 13.32 11.34 14.64 11 16 C10.34 15.67 9.68 15.34 9 15 C9.33 15.66 9.66 16.32 10 17 C10.35412344 18.32796291 10.68521554 19.66216607 11 21 C11.185625 21.7425 11.37125 22.485 11.5625 23.25 C11.706875 23.8275 11.85125 24.405 12 25 C11.34 25 10.68 25 10 25 C8.32414653 21.40003498 6.66091487 17.79437864 5 14.1875 C4.28457031 12.65125977 4.28457031 12.65125977 3.5546875 11.08398438 C3.10351562 10.10107422 2.65234375 9.11816406 2.1875 8.10546875 C1.76855469 7.19949951 1.34960938 6.29353027 0.91796875 5.36010742 C0 3 0 3 0 0 Z " fill="#6731D9" transform="translate(161,305)"/>
<path d="M0 0 C4.87723104 4.23549011 6.56081771 7.71797268 7.21875 14.1328125 C7.45187313 19.7083407 6.56946464 24.99853179 4 30 C3.01 30.66 2.02 31.32 1 32 C0.67 29.69 0.34 27.38 0 25 C0.99 25.33 1.98 25.66 3 26 C3.88277755 21.48184719 4.10589503 17.22487306 4.0625 12.625 C4.04896484 10.75714844 4.04896484 10.75714844 4.03515625 8.8515625 C4.02355469 7.91054688 4.01195312 6.96953125 4 6 C3.01 5.67 2.02 5.34 1 5 C0.67 3.35 0.34 1.7 0 0 Z " fill="#6936D1" transform="translate(747,328)"/>
<path d="M0 0 C0.66 1.32 1.32 2.64 2 4 C1.01 4.495 1.01 4.495 0 5 C0 5.66 0 6.32 0 7 C-0.99 7.33 -1.98 7.66 -3 8 C-3 9.32 -3 10.64 -3 12 C-4.32 12 -5.64 12 -7 12 C-7.226875 12.556875 -7.45375 13.11375 -7.6875 13.6875 C-9.36167263 16.63723273 -11.57832311 18.6373884 -14 21 C-15.02813611 22.31175986 -16.04084432 23.6369893 -17 25 C-17.66 24.67 -18.32 24.34 -19 24 C-12.81168755 15.87380265 -6.5228705 7.86210719 0 0 Z " fill="#6733D5" transform="translate(288,340)"/>
<path d="M0 0 C1.16144531 0.00902344 2.32289063 0.01804687 3.51953125 0.02734375 C4.39996094 0.03894531 5.28039062 0.05054688 6.1875 0.0625 C6.6825 1.0525 6.6825 1.0525 7.1875 2.0625 C5.99253906 2.18367188 4.79757812 2.30484375 3.56640625 2.4296875 C-9.84779881 2.81447991 -9.84779881 2.81447991 -21.3984375 7.6484375 C-21.86507812 8.11507813 -22.33171875 8.58171875 -22.8125 9.0625 C-25 8.75 -25 8.75 -26.8125 8.0625 C-18.80416219 2.10758214 -9.91103834 -0.1001115 0 0 Z " fill="#6D3CCE" transform="translate(715.8125,277.9375)"/>
<path d="M0 0 C0.33 0 0.66 0 1 0 C1.00257813 0.72703125 1.00515625 1.4540625 1.0078125 2.203125 C1.41706062 12.84357619 5.2038472 20.87704947 12 29 C9.525 28.01 9.525 28.01 7 27 C7 26.34 7 25.68 7 25 C6.34 25 5.68 25 5 25 C5 24.01 5 23.02 5 22 C4.34 22 3.68 22 3 22 C2.67 20.02 2.34 18.04 2 16 C0.35 16 -1.3 16 -3 16 C-2.67 15.34 -2.34 14.68 -2 14 C-1.68416554 10.62671248 -1.48866238 7.25265635 -1.28125 3.87109375 C-1 1 -1 1 0 0 Z " fill="#6735CC" transform="translate(534,320)"/>
<path d="M0 0 C3.65397551 3.51093732 6.83030052 7.19501935 9.875 11.25 C10.74458042 12.39469176 11.61437343 13.53922205 12.484375 14.68359375 C12.90783203 15.24288574 13.33128906 15.80217773 13.76757812 16.37841797 C15.53509983 18.70406757 17.32886081 21.00891499 19.125 23.3125 C19.96417969 24.38951172 19.96417969 24.38951172 20.8203125 25.48828125 C21.40425781 26.23658203 21.40425781 26.23658203 22 27 C19 27 19 27 17.68139648 25.73071289 C17.24899658 25.1505542 16.81659668 24.57039551 16.37109375 23.97265625 C15.89349609 23.34552734 15.41589844 22.71839844 14.92382812 22.07226562 C14.43333984 21.40904297 13.94285156 20.74582031 13.4375 20.0625 C12.46035729 18.75921839 11.48003173 17.45831529 10.49609375 16.16015625 C10.06482178 15.57886963 9.6335498 14.99758301 9.18920898 14.39868164 C8.03227664 12.8529149 8.03227664 12.8529149 6 12 C5.71125 11.360625 5.4225 10.72125 5.125 10.0625 C3.77090236 7.57998766 2.57821507 7.03128603 0 6 C0 4.02 0 2.04 0 0 Z " fill="#6C3DC9" transform="translate(327,334)"/>
<path d="M0 0 C-0.34692699 2.88463372 -0.9114405 3.91466393 -3.0390625 5.96484375 C-4.31910156 6.94130859 -4.31910156 6.94130859 -5.625 7.9375 C-6.5221875 8.62714844 -7.419375 9.31679688 -8.34375 10.02734375 C-11.53408551 12.39663703 -14.73775252 14.73061045 -18 17 C-19.35439668 14.29120665 -19.06501451 11.99066732 -19 9 C-18.566875 9.495 -18.13375 9.99 -17.6875 10.5 C-16.00259517 12.33218192 -16.00259517 12.33218192 -13 12 C-13 10.68 -13 9.36 -13 8 C-11.68 8 -10.36 8 -9 8 C-9 7.34 -9 6.68 -9 6 C-7.68 5.67 -6.36 5.34 -5 5 C-5 3.68 -5 2.36 -5 1 C-2 0 -2 0 0 0 Z " fill="#6936D8" transform="translate(457,341)"/>
<path d="M0 0 C0.99 0 1.98 0 3 0 C3 1.65 3 3.3 3 5 C3.66 5 4.32 5 5 5 C5.02684679 7.64590014 5.04676357 10.29153096 5.0625 12.9375 C5.07087891 13.69224609 5.07925781 14.44699219 5.08789062 15.22460938 C5.09652441 17.14994313 5.05224333 19.07535581 5 21 C4.67 21.33 4.34 21.66 4 22 C3.63239269 24.32817964 3.29758419 26.6618385 3 29 C1.68 29.33 0.36 29.66 -1 30 C-0.7834375 29.44054687 -0.566875 28.88109375 -0.34375 28.3046875 C2.88407138 19.00975743 3.5327491 9.28930042 0 0 Z " fill="#6836CE" transform="translate(588,311)"/>
<path d="M0 0 C0.66 0 1.32 0 2 0 C2 0.99 2 1.98 2 3 C2.66 3 3.32 3 4 3 C4.33 4.98 4.66 6.96 5 9 C5.66 9 6.32 9 7 9 C7 8.34 7 7.68 7 7 C7.99 7.33 8.98 7.66 10 8 C9.67 9.32 9.34 10.64 9 12 C14.28 12 19.56 12 25 12 C25.33 11.34 25.66 10.68 26 10 C26 10.99 26 11.98 26 13 C19.07 13 12.14 13 5 13 C0 2.25 0 2.25 0 0 Z " fill="#7B4DD5" transform="translate(181,358)"/>
<path d="M0 0 C1.51289503 0.00031716 3.0258126 0.01164445 4.53857422 0.03173828 C5.33480194 0.03456818 6.13102966 0.03739807 6.9513855 0.04031372 C9.49882935 0.05152438 12.04592383 0.07663016 14.59326172 0.10205078 C16.31851706 0.11207945 18.04377791 0.1212055 19.76904297 0.12939453 C24.00225086 0.15146656 28.23519702 0.18600212 32.46826172 0.22705078 C32.46826172 0.55705078 32.46826172 0.88705078 32.46826172 1.22705078 C20.91826172 1.22705078 9.36826172 1.22705078 -2.53173828 1.22705078 C-2.86173828 2.87705078 -3.19173828 4.52705078 -3.53173828 6.22705078 C-4.48568664 8.2494213 -5.47709179 10.25532038 -6.53173828 12.22705078 C-7.85727946 8.25042724 -6.87939823 6.12817167 -5.53173828 2.22705078 C-3.53173828 0.22705078 -3.53173828 0.22705078 0 0 Z " fill="#5C32B5" transform="translate(143.53173828125,347.77294921875)"/>
<path d="M0 0 C0.66 0.33 1.32 0.66 2 1 C2 1.99 2 2.98 2 4 C10.415 3.505 10.415 3.505 19 3 C19 3.99 19 4.98 19 6 C11.74 6 4.48 6 -3 6 C-2 4 -1 2 0 0 Z " fill="#784DD0" transform="translate(268,365)"/>
<path d="M0 0 C6.52162071 1.01145506 11.78660422 2.85056254 17 7 C17.33 7.66 17.66 8.32 18 9 C15.69 8.34 13.38 7.68 11 7 C11 6.34 11 5.68 11 5 C6.545 5.495 6.545 5.495 2 6 C1.34 4.02 0.68 2.04 0 0 Z " fill="#6C31D8" transform="translate(729,319)"/>
<path d="M0 0 C0.33 0.99 0.66 1.98 1 3 C0.030625 3.268125 -0.93875 3.53625 -1.9375 3.8125 C-2.948125 4.204375 -3.95875 4.59625 -5 5 C-5.33 5.99 -5.66 6.98 -6 8 C-7.66666667 8.66666667 -9.33333333 9.33333333 -11 10 C-11.33 10.99 -11.66 11.98 -12 13 C-9.36 13 -6.72 13 -4 13 C-4 13.33 -4 13.66 -4 14 C-8.62 14 -13.24 14 -18 14 C-14.59409784 10.50724423 -11.0797227 7.28659317 -7.3125 4.1875 C-5.88357422 3.00220703 -5.88357422 3.00220703 -4.42578125 1.79296875 C-2 0 -2 0 0 0 Z " fill="#6537C6" transform="translate(425,295)"/>
<path d="M0 0 C0.96912042 3.27078142 1 5.39035432 1 9 C6.94 9 12.88 9 19 9 C19.33 8.01 19.66 7.02 20 6 C20.66 7.32 21.32 8.64 22 10 C13.42 10 4.84 10 -4 10 C-1.75 3.25 -1.75 3.25 0 0 Z " fill="#EFDAFE" transform="translate(150,322)"/>
<path d="M0 0 C0.66 0.33 1.32 0.66 2 1 C1.71203055 4.83959264 0.87490058 7.42510761 -1.25 10.5625 C-4.84263674 15.93574387 -6.83168835 21.94718109 -9 28 C-9.66 27.67 -10.32 27.34 -11 27 C-9.22018665 21.19115863 -6.78827933 15.69062546 -4.375 10.125 C-3.95476562 9.15046875 -3.53453125 8.1759375 -3.1015625 7.171875 C-2.06989974 4.78029314 -1.03598716 2.38971101 0 0 Z " fill="#6D40C7" transform="translate(150,280)"/>
<path d="M0 0 C3.16337537 0.38343944 5.93387035 1.33497 8.875 2.5 C12.60277115 3.95283857 16.02755147 4.58620328 20 5 C20.33 4.01 20.66 3.02 21 2 C21.33 2.66 21.66 3.32 22 4 C20.5625 6.625 20.5625 6.625 19 9 C12.15594111 6.83871824 5.38343379 4.2946755 -1 1 C-0.67 0.67 -0.34 0.34 0 0 Z " fill="#6A36CB" transform="translate(723,295)"/>
<path d="M0 0 C1.32 0.66 2.64 1.32 4 2 C3.01 2.495 3.01 2.495 2 3 C2.66 4.65 3.32 6.3 4 8 C2.68 7.34 1.36 6.68 0 6 C0.495 6.61875 0.99 7.2375 1.5 7.875 C3 10 3 10 3 12 C3.66 12.33 4.32 12.66 5 13 C4.01 13 3.02 13 2 13 C-0.04296875 10.8125 -0.04296875 10.8125 -2.1875 8 C-2.90292969 7.071875 -3.61835938 6.14375 -4.35546875 5.1875 C-4.89816406 4.465625 -5.44085938 3.74375 -6 3 C-3.50907189 1.75453595 -2.58919267 2.2232422 0 3 C0 2.01 0 1.02 0 0 Z " fill="#682DD6" transform="translate(290,303)"/>
<path d="M0 0 C1.23363281 0.01353516 1.23363281 0.01353516 2.4921875 0.02734375 C4.49492083 0.05063135 6.49750154 0.08649041 8.5 0.125 C8.5 0.785 8.5 1.445 8.5 2.125 C9.82 2.455 11.14 2.785 12.5 3.125 C12.17 3.785 11.84 4.445 11.5 5.125 C10.95472656 4.9084375 10.40945313 4.691875 9.84765625 4.46875 C-0.07715163 0.80420555 -7.52881989 1.99386307 -17.5 5.125 C-17.5 4.135 -17.5 3.145 -17.5 2.125 C-11.50325593 0.37824198 -6.22635779 -0.13182842 0 0 Z " fill="#6939C9" transform="translate(565.5,294.875)"/>
<path d="M0 0 C0.99 0.66 1.98 1.32 3 2 C3 2.66 3 3.32 3 4 C-3.93 4 -10.86 4 -18 4 C-18.33 3.01 -18.66 2.02 -19 1 C-12.73 1.33 -6.46 1.66 0 2 C0 1.34 0 0.68 0 0 Z " fill="#7A4DCC" transform="translate(352,367)"/>
<path d="M0 0 C1.32 0.33 2.64 0.66 4 1 C4.33 2.98 4.66 4.96 5 7 C4.34 7 3.68 7 3 7 C3.66 8.65 4.32 10.3 5 12 C5.66 12 6.32 12 7 12 C6.67 12.99 6.34 13.98 6 15 C4.68227638 13.40012144 3.37098863 11.79494034 2.0625 10.1875 C1.33160156 9.29417969 0.60070312 8.40085937 -0.15234375 7.48046875 C-2 5 -2 5 -3 2 C-2.01 2 -1.02 2 0 2 C0 1.34 0 0.68 0 0 Z " fill="#682BDB" transform="translate(326,353)"/>
<path d="M0 0 C3.63262555 3.63262555 5.1562935 8.77502182 7.1875 13.4375 C7.66380859 14.50033203 8.14011719 15.56316406 8.63085938 16.65820312 C9.29891602 18.18670898 9.29891602 18.18670898 9.98046875 19.74609375 C10.39192139 20.68122803 10.80337402 21.6163623 11.22729492 22.57983398 C12 25 12 25 11 28 C8.2946129 23.94191935 6 19.95110601 6 15 C5.34 15 4.68 15 4 15 C3.32532438 13.25307205 2.66055844 11.50231475 2 9.75 C1.62875 8.77546875 1.2575 7.8009375 0.875 6.796875 C0 4 0 4 0 0 Z " fill="#6D3ECC" transform="translate(174,295)"/>
<path d="M0 0 C6.93 0 13.86 0 21 0 C21 0.99 21 1.98 21 3 C13.74 3 6.48 3 -1 3 C-0.67 2.01 -0.34 1.02 0 0 Z " fill="#7E53D0" transform="translate(112,368)"/>
<path d="M0 0 C0.66 0.33 1.32 0.66 2 1 C-0.39707314 9.17824952 -4.08858772 16.46651278 -8 24 C-8.33 24 -8.66 24 -9 24 C-9.17754126 20.09409237 -9.20731737 17.31097606 -7 14 C-6.34 13.67 -5.68 13.34 -5 13 C-4.7834375 11.576875 -4.7834375 11.576875 -4.5625 10.125 C-3.95205858 6.73365876 -3.41462431 6.21340561 -1 4 C-0.28552357 1.89667109 -0.28552357 1.89667109 0 0 Z " fill="#6A3AD0" transform="translate(157,302)"/>
<path d="M0 0 C-0.66 1.65 -1.32 3.3 -2 5 C0.31 5.33 2.62 5.66 5 6 C1.15790627 7.46055379 -1.39037478 6.49637507 -5.1875 5.1875 C-6.25355469 4.83042969 -7.31960938 4.47335937 -8.41796875 4.10546875 C-11 3 -11 3 -12 1 C-7.93631321 0.22596442 -4.13574827 -0.0984702 0 0 Z " fill="#6F39D8" transform="translate(705,326)"/>
<path d="M0 0 C-2 2 -2 2 -4.52197266 2.22705078 C-5.5588623 2.21657715 -6.59575195 2.20610352 -7.6640625 2.1953125 C-8.78554688 2.18886719 -9.90703125 2.18242187 -11.0625 2.17578125 C-12.238125 2.15902344 -13.41375 2.14226562 -14.625 2.125 C-16.40003906 2.11146484 -16.40003906 2.11146484 -18.2109375 2.09765625 C-21.14082523 2.07402812 -24.0703134 2.04108514 -27 2 C-27.33 1.34 -27.66 0.68 -28 0 C-26.02966797 0.01740234 -26.02966797 0.01740234 -24.01953125 0.03515625 C-22.28385559 0.04453828 -20.54817839 0.05363804 -18.8125 0.0625 C-17.51602539 0.07506836 -17.51602539 0.07506836 -16.19335938 0.08789062 C-10.83524797 0.10841979 -5.04978272 -1.68326091 0 0 Z " fill="#6133C6" transform="translate(732,353)"/>
<path d="M0 0 C1.32 0.33 2.64 0.66 4 1 C4 2.66666667 4 4.33333333 4 6 C4.66 6 5.32 6 6 6 C8.18975773 9.28463659 8.99806563 12.20696275 10 16 C0.64204545 6.90198864 0.64204545 6.90198864 0 0 Z " fill="#6533D1" transform="translate(267,280)"/>
<path d="M0 0 C0.66 0.33 1.32 0.66 2 1 C0.7874262 4.72433382 -0.50859979 8.37802806 -2 12 C-2.33 12 -2.66 12 -3 12 C-4.19287411 8.12315913 -5 5.08378077 -5 1 C-3.68 1.33 -2.36 1.66 -1 2 C-0.67 1.34 -0.34 0.68 0 0 Z " fill="#6B31D8" transform="translate(538,306)"/>
<path d="M0 0 C0 2.1875 0 2.1875 -1 5 C-3.50803179 6.96188534 -6.19641043 8.49921743 -9 10 C-9 6.47899095 -8.41671132 5.89968686 -6.1875 3.3125 C-5.40439453 2.37857422 -5.40439453 2.37857422 -4.60546875 1.42578125 C-3 0 -3 0 0 0 Z " fill="#652ED9" transform="translate(589,341)"/>
<path d="M0 0 C1.17340184 3.52020552 0.53516133 4.45335026 -0.96484375 7.68359375 C-2.32410708 10.72526604 -3.49888413 13.82542598 -4.6875 16.9375 C-5.12449219 18.08089844 -5.56148438 19.22429687 -6.01171875 20.40234375 C-6.50091797 21.68818359 -6.50091797 21.68818359 -7 23 C-7.66 22.67 -8.32 22.34 -9 22 C-7.45173401 17.04242102 -5.48219062 12.36189599 -3.375 7.625 C-2.88773438 6.52091797 -2.88773438 6.52091797 -2.390625 5.39453125 C-1.59615497 3.59529031 -0.79841229 1.79749504 0 0 Z " fill="#6E42CF" transform="translate(131,324)"/>
<path d="M0 0 C2.475 0.495 2.475 0.495 5 1 C5.33 1.99 5.66 2.98 6 4 C8.99587647 6.77395969 12.12032356 7.85373196 16 9 C16 9.66 16 10.32 16 11 C11.80791448 10.44206056 9.18406742 9.06174844 5.75 6.625 C4.87859375 6.01914062 4.0071875 5.41328125 3.109375 4.7890625 C1 3 1 3 0 0 Z " fill="#6A3CCB" transform="translate(528,356)"/>
<path d="M0 0 C0.99 0.33 1.98 0.66 3 1 C0.03 4.63 -2.94 8.26 -6 12 C-7.10191901 7.59232396 -6.58706842 6.1077065 -5 2 C-4.67 2.99 -4.34 3.98 -4 5 C-3.34 5 -2.68 5 -2 5 C-2 4.01 -2 3.02 -2 2 C-1.34 2 -0.68 2 0 2 C0 1.34 0 0.68 0 0 Z " fill="#6630D3" transform="translate(338,299)"/>
<path d="M0 0 C2.15377564 2.62198774 3.40072174 4.64404172 4 8 C5.32 8.33 6.64 8.66 8 9 C7.67 10.32 7.34 11.64 7 13 C7.66 13 8.32 13 9 13 C9.33 14.32 9.66 15.64 10 17 C4.82346533 12.25484322 0.87618065 7.22849035 0 0 Z " fill="#6534CA" transform="translate(518,339)"/>
<path d="M0 0 C0 1.32 0 2.64 0 4 C-2.475 3.01 -2.475 3.01 -5 2 C-5.2475 2.5775 -5.495 3.155 -5.75 3.75 C-7.16683317 6.3002997 -8.87627537 8.01785701 -11 10 C-11 8.35 -11 6.7 -11 5 C-10.01 5 -9.02 5 -8 5 C-7.67 3.68 -7.34 2.36 -7 1 C-4.50935112 0.31292445 -2.62113708 0 0 0 Z " fill="#6631D1" transform="translate(314,338)"/>
<path d="M0 0 C1.1171875 3.7734375 1.1171875 3.7734375 0.0625 5.8125 C-1.43421465 8.89397134 -1.12978288 11.62564522 -1 15 C-2.65 15.66 -4.3 16.32 -6 17 C-5.34496718 12.94180817 -4.05440879 9.46028718 -2.4375 5.6875 C-1.75494141 4.08455078 -1.75494141 4.08455078 -1.05859375 2.44921875 C-0.53458984 1.23685547 -0.53458984 1.23685547 0 0 Z " fill="#6A3AD1" transform="translate(119,351)"/>
<path d="M0 0 C3.73639216 1.24546405 4.18756513 2.63404953 6 6 C4 5 2 4 0 3 C-0.226875 3.5775 -0.45375 4.155 -0.6875 4.75 C-2.33038023 7.5663661 -4.39533227 9.08077114 -7 11 C-5.22054913 6.95579349 -2.60470327 3.53921513 0 0 Z " fill="#EEDBFD" transform="translate(309,340)"/>
<path d="M0 0 C5.85272256 0.45020943 10.08220119 3.03839227 15 6 C14.34 6.66 13.68 7.32 13 8 C12.01 7.67 11.02 7.34 10 7 C9.67 6.34 9.34 5.68 9 5 C7.35 5 5.7 5 4 5 C3.67 4.01 3.34 3.02 3 2 C2.01 1.34 1.02 0.68 0 0 Z " fill="#6C35D6" transform="translate(577,281)"/>
<path d="M0 0 C0.66 0 1.32 0 2 0 C0.36041242 5.23272633 -1.38952035 10.15196636 -4 15 C-5.3480932 11.339671 -4.6336844 9.33449773 -3.125 5.8125 C-2.75632813 4.93207031 -2.38765625 4.05164063 -2.0078125 3.14453125 C-1 1 -1 1 0 0 Z " fill="#F3E1FE" transform="translate(148,281)"/>
<path d="M0 0 C1.18851563 0.00902344 2.37703125 0.01804687 3.6015625 0.02734375 C4.51679687 0.03894531 5.43203125 0.05054688 6.375 0.0625 C6.705 0.7225 7.035 1.3825 7.375 2.0625 C-0.545 2.5575 -0.545 2.5575 -8.625 3.0625 C-8.625 2.4025 -8.625 1.7425 -8.625 1.0625 C-5.74084117 -0.37957941 -3.20778472 -0.03144887 0 0 Z " fill="#774ADB" transform="translate(715.625,277.9375)"/>
<path d="M0 0 C8.25 0.33 16.5 0.66 25 1 C24.67 1.66 24.34 2.32 24 3 C16 3 8 3 0 3 C0 2.01 0 1.02 0 0 Z " fill="#F4E0FC" transform="translate(332,277)"/>
<path d="M0 0 C2.64 0.33 5.28 0.66 8 1 C7.67 1.99 7.34 2.98 7 4 C8.65 4.33 10.3 4.66 12 5 C10.02 5.99 10.02 5.99 8 7 C2.25 3.375 2.25 3.375 0 0 Z " fill="#6534D2" transform="translate(683,320)"/>
<path d="M0 0 C0.33 0.66 0.66 1.32 1 2 C-0.33616468 5.87487756 -3.12031331 8.19054957 -6 11 C-7.02813611 12.31175986 -8.04084432 13.6369893 -9 15 C-9.66 14.67 -10.32 14.34 -11 14 C-9.35504034 11.85349184 -7.70907674 9.70776711 -6.0625 7.5625 C-5.59392578 6.95083984 -5.12535156 6.33917969 -4.64257812 5.70898438 C-1.11328125 1.11328125 -1.11328125 1.11328125 0 0 Z " fill="#7044CB" transform="translate(280,350)"/>
<path d="M0 0 C0.33 0 0.66 0 1 0 C2.65715064 5.72470222 1.2888464 10.64591438 -1 16 C-1.66 16.33 -2.32 16.66 -3 17 C-2.01 11.39 -1.02 5.78 0 0 Z " fill="#6A35D3" transform="translate(609,328)"/>
<path d="M0 0 C1.1054086 3.31622581 1.35457365 5.52517825 1 9 C-0.9375 11.25 -0.9375 11.25 -3 13 C-3.33 13.66 -3.66 14.32 -4 15 C-4.66 14.67 -5.32 14.34 -6 14 C-4.02 9.38 -2.04 4.76 0 0 Z " fill="#6B3BD4" transform="translate(138,308)"/>
<path d="M0 0 C0.33 0 0.66 0 1 0 C1 4.29 1 8.58 1 13 C1.99 13 2.98 13 4 13 C4 14.98 4 16.96 4 19 C3.34 19 2.68 19 2 19 C-0.04898287 14.78103134 -0.21207997 11.34627854 -0.125 6.6875 C-0.10695313 5.43324219 -0.08890625 4.17898438 -0.0703125 2.88671875 C-0.03550781 1.45779297 -0.03550781 1.45779297 0 0 Z " fill="#6630D1" transform="translate(680,300)"/>
<path d="M0 0 C0.66 0 1.32 0 2 0 C2 0.66 2 1.32 2 2 C2.66 2.33 3.32 2.66 4 3 C1.03 5.31 -1.94 7.62 -5 10 C-5.33 9.01 -5.66 8.02 -6 7 C-5.195625 6.21625 -4.39125 5.4325 -3.5625 4.625 C-1.01309583 2.28017144 -1.01309583 2.28017144 0 0 Z " fill="#F1E2FC" transform="translate(412,299)"/>
<path d="M0 0 C0.33 0.66 0.66 1.32 1 2 C1.66 2.33 2.32 2.66 3 3 C2.236875 3.4125 1.47375 3.825 0.6875 4.25 C-3.23373615 6.80336307 -5.05652523 9.81405435 -7 14 C-7.74609375 12.328125 -7.74609375 12.328125 -8 10 C-6.34765625 7.421875 -6.34765625 7.421875 -4.0625 4.75 C-2.93521484 3.41195313 -2.93521484 3.41195313 -1.78515625 2.046875 C-1.19605469 1.37140625 -0.60695313 0.6959375 0 0 Z " fill="#ECD9FD" transform="translate(329,314)"/>
<path d="M0 0 C0.99 0 1.98 0 3 0 C3 0.99 3 1.98 3 3 C3.66 3.33 4.32 3.66 5 4 C4.67 4.99 4.34 5.98 4 7 C2.35 6.67 0.7 6.34 -1 6 C-1 3 -1 3 0 0 Z " fill="#682FD6" transform="translate(682,358)"/>
<path d="M0 0 C6.18160604 0.53753096 11.326858 2.54582388 17 5 C13.26840331 6.24386556 10.81984796 5.77811718 7 5 C6.67 4.34 6.34 3.68 6 3 C4.02111039 2.27306096 2.02045442 1.60183749 0 1 C0 0.67 0 0.34 0 0 Z " fill="#F7E8FE" transform="translate(713,335)"/>
<path d="M0 0 C0.66 0 1.32 0 2 0 C0.22054913 4.04420651 -2.39529673 7.46078487 -5 11 C-5.66 9.68 -6.32 8.36 -7 7 C-4.66666667 4.66666667 -2.33333333 2.33333333 0 0 Z " fill="#F1E2FC" transform="translate(294,329)"/>
<path d="M0 0 C0.33 0.66 0.66 1.32 1 2 C2.32 2.33 3.64 2.66 5 3 C3.35 5.31 1.7 7.62 0 10 C-1.07193479 6.78419562 -1.14636054 4.36629251 -1 1 C-0.67 0.67 -0.34 0.34 0 0 Z " fill="#6A33D5" transform="translate(295,350)"/>
<path d="M0 0 C0.66 0 1.32 0 2 0 C0.97137215 5.44567686 -0.24614784 10.11817117 -3 15 C-4.43410153 11.21180727 -3.51009497 8.93478721 -2.0625 5.25 C-1.49208984 3.77273438 -1.49208984 3.77273438 -0.91015625 2.265625 C-0.60980469 1.51796875 -0.30945313 0.7703125 0 0 Z " fill="#F7E4FE" transform="translate(589,328)"/>
<path d="M0 0 C0.99 0.33 1.98 0.66 3 1 C0.69 3.64 -1.62 6.28 -4 9 C-4.92538169 5.29847322 -5.08174162 4.36541838 -4 1 C-3.67 1.99 -3.34 2.98 -3 4 C-2.34 4 -1.68 4 -1 4 C-0.67 2.68 -0.34 1.36 0 0 Z " fill="#6C36D7" transform="translate(325,316)"/>
<path d="M0 0 C1.98 0 3.96 0 6 0 C2.98112756 3.48331435 0.43090471 4.79157144 -4 6 C-4.33 4.68 -4.66 3.36 -5 2 C-3.35 2 -1.7 2 0 2 C0 1.34 0 0.68 0 0 Z " fill="#6D3CD8" transform="translate(587,361)"/>
<path d="M0 0 C1.37553268 3.82092412 0.81309902 7.08234111 0 11 C-0.99 11.495 -0.99 11.495 -2 12 C-2.66 11.67 -3.32 11.34 -4 11 C-3.39301257 6.87248551 -1.96189209 3.6678852 0 0 Z " fill="#673CCB" transform="translate(680,350)"/>
<path d="M0 0 C0.99 0 1.98 0 3 0 C3 0.66 3 1.32 3 2 C4.98 2.66 6.96 3.32 9 4 C9 4.99 9 5.98 9 7 C9.66 7 10.32 7 11 7 C10.67 7.66 10.34 8.32 10 9 C5.82117329 6.43571997 2.87494471 3.98069267 0 0 Z " fill="#EFDBFE" transform="translate(540,342)"/>
<path d="M0 0 C2.07444392 2.07444392 3.00647758 3.73908275 4.25 6.375 C4.62640625 7.14585937 5.0028125 7.91671875 5.390625 8.7109375 C6 11 6 11 5.109375 13.2890625 C4.56023437 14.13597656 4.56023437 14.13597656 4 15 C4 13.68 4 12.36 4 11 C3.34 11 2.68 11 2 11 C0.80712589 7.12315913 0 4.08378077 0 0 Z " fill="#6E3ED5" transform="translate(187,325)"/>
<path d="M0 0 C5.42039575 -0.40652968 9.07015675 0.96006486 14 3 C14 3.66 14 4.32 14 5 C12.03964825 4.55037804 10.08175691 4.09001752 8.125 3.625 C7.03445313 3.36976563 5.94390625 3.11453125 4.8203125 2.8515625 C2 2 2 2 0 0 Z " fill="#6F3ECF" transform="translate(686,365)"/>
<path d="M0 0 C1.32 0.66 2.64 1.32 4 2 C2.02 4.64 0.04 7.28 -2 10 C-3.19156292 5.23374833 -2.3415946 4.12120649 0 0 Z " fill="#F3E2FC" transform="translate(267,361)"/>
<path d="M0 0 C0.66 0.99 1.32 1.98 2 3 C0.98819642 6.77126791 0.32378142 7.78414572 -3 10 C-3.36923077 4.58461538 -3.36923077 4.58461538 -1.5 1.625 C-1.005 1.08875 -0.51 0.5525 0 0 Z " fill="#612AD9" transform="translate(291,357)"/>
<path d="M0 0 C4.58752421 0.55606354 8.72349252 2.33288691 13 4 C13 4.66 13 5.32 13 6 C11.41531323 5.54636829 9.83230076 5.08688548 8.25 4.625 C7.36828125 4.36976563 6.4865625 4.11453125 5.578125 3.8515625 C3.23919428 3.0790066 1.16557438 2.16374324 -1 1 C-0.67 0.67 -0.34 0.34 0 0 Z " fill="#7342D0" transform="translate(723,295)"/>
<path d="M0 0 C2.6855594 2.6855594 3.06049974 5.37621328 4 9 C2.35 9 0.7 9 -1 9 C-0.67 6.03 -0.34 3.06 0 0 Z " fill="#6F3BD8" transform="translate(198,350)"/>
<path d="M0 0 C0.33 1.32 0.66 2.64 1 4 C-0.4540625 4.433125 -0.4540625 4.433125 -1.9375 4.875 C-5.10664203 5.64214682 -5.10664203 5.64214682 -6 8 C-6.33 7.01 -6.66 6.02 -7 5 C-6.01 4.67 -5.02 4.34 -4 4 C-4 3.34 -4 2.68 -4 2 C-2.68 1.34 -1.36 0.68 0 0 Z " fill="#6721F8" transform="translate(583,356)"/>
<path d="M0 0 C0.66 0.66 1.32 1.32 2 2 C-0.31 4.31 -2.62 6.62 -5 9 C-5.66 8.67 -6.32 8.34 -7 8 C-6.67 7.01 -6.34 6.02 -6 5 C-5.360625 4.855625 -4.72125 4.71125 -4.0625 4.5625 C-1.79688294 4.19895007 -1.79688294 4.19895007 -0.75 1.9375 C-0.5025 1.298125 -0.255 0.65875 0 0 Z " fill="#EDDEFD" transform="translate(531,287)"/>
<path d="M0 0 C2.31 0.33 4.62 0.66 7 1 C6.67 1.99 6.34 2.98 6 4 C4.02 4 2.04 4 0 4 C0 2.68 0 1.36 0 0 Z " fill="#6921F4" transform="translate(720,360)"/>
<path d="M0 0 C1.65 1.65 3.3 3.3 5 5 C4.67 5.99 4.34 6.98 4 8 C2.68 7.34 1.36 6.68 0 6 C0 4.02 0 2.04 0 0 Z " fill="#6A37D4" transform="translate(327,334)"/>
<path d="M0 0 C5.19209404 -0.21192221 9.126739 0.4087311 14 2 C11 4 11 4 8.30078125 3.5390625 C7.31464844 3.23742187 6.32851563 2.93578125 5.3125 2.625 C4.31863281 2.32851563 3.32476563 2.03203125 2.30078125 1.7265625 C1.54152344 1.48679687 0.78226563 1.24703125 0 1 C0 0.67 0 0.34 0 0 Z " fill="#703DD8" transform="translate(711,333)"/>
<path d="M0 0 C1.98 0.99 1.98 0.99 4 2 C4 2.66 4 3.32 4 4 C5.65 4 7.3 4 9 4 C8.34 5.32 7.68 6.64 7 8 C6.34 8 5.68 8 5 8 C3.7109375 6.25 3.7109375 6.25 2.375 4 C1.92898438 3.2575 1.48296875 2.515 1.0234375 1.75 C0.68570312 1.1725 0.34796875 0.595 0 0 Z " fill="#F2DEFE" transform="translate(304,303)"/>
<path d="M0 0 C0.99 0.66 1.98 1.32 3 2 C3 3.32 3 4.64 3 6 C1.35 6 -0.3 6 -2 6 C-1.49396008 3.83125748 -1.00016187 2.00032373 0 0 Z " fill="#6629DA" transform="translate(349,363)"/>
<path d="M0 0 C1.65 0.33 3.3 0.66 5 1 C4.67 1.99 4.34 2.98 4 4 C2.0625 4.8125 2.0625 4.8125 0 5 C-0.66 4.34 -1.32 3.68 -2 3 C-1.34 2.01 -0.68 1.02 0 0 Z " fill="#642ADA" transform="translate(739,362)"/>
<path d="M0 0 C-0.75 2.4375 -0.75 2.4375 -2 5 C-3.875 5.75 -3.875 5.75 -6 6 C-7.11375 6.2784375 -7.11375 6.2784375 -8.25 6.5625 C-8.8275 6.706875 -9.405 6.85125 -10 7 C-3.24137931 0 -3.24137931 0 0 0 Z " fill="#F3E8FA" transform="translate(600,357)"/>
<path d="M0 0 C0.66 0 1.32 0 2 0 C1.39301257 4.12751449 -0.03810791 7.3321148 -2 11 C-3.31826804 7.04519588 -2.29536133 4.88608399 -1 1 C-0.67 0.67 -0.34 0.34 0 0 Z " fill="#6838CE" transform="translate(139,349)"/>
<path d="M0 0 C0.99 0 1.98 0 3 0 C3 1.65 3 3.3 3 5 C2.01 4.67 1.02 4.34 0 4 C-0.33 5.32 -0.66 6.64 -1 8 C-1.33 8 -1.66 8 -2 8 C-1.125 1.125 -1.125 1.125 0 0 Z " fill="#652EDB" transform="translate(521,302)"/>
<path d="M0 0 C1 3 1 3 -0.125 5.5625 C-2.23794891 8.30933359 -3.72518425 9.02640613 -7 10 C-4.75421558 6.59260295 -2.48862878 3.23521742 0 0 Z " fill="#EDDBFB" transform="translate(343,296)"/>
<path d="M0 0 C0.66 0.33 1.32 0.66 2 1 C1.75 3.875 1.75 3.875 1 7 C-0.98 7.99 -0.98 7.99 -3 9 C-2.01 6.03 -1.02 3.06 0 0 Z " fill="#6839D0" transform="translate(150,280)"/>
<path d="M0 0 C0.66 0 1.32 0 2 0 C2 0.99 2 1.98 2 3 C1.34 3 0.68 3 0 3 C-0.33 3.99 -0.66 4.98 -1 6 C-1.66 6 -2.32 6 -3 6 C-3.33 6.99 -3.66 7.98 -4 9 C-4.66 8.67 -5.32 8.34 -6 8 C-5.04956626 6.66102417 -4.08940853 5.32894573 -3.125 4 C-2.59132813 3.2575 -2.05765625 2.515 -1.5078125 1.75 C-1.01023437 1.1725 -0.51265625 0.595 0 0 Z " fill="#F1DEFE" transform="translate(293,361)"/>
<path d="M0 0 C-2 2 -2 2 -4.1640625 2.1953125 C-5.38222656 2.16050781 -5.38222656 2.16050781 -6.625 2.125 C-7.44226563 2.10695313 -8.25953125 2.08890625 -9.1015625 2.0703125 C-9.72804688 2.04710937 -10.35453125 2.02390625 -11 2 C-7.72338241 -1.27661759 -4.29690696 -1.43230232 0 0 Z " fill="#6833D4" transform="translate(732,353)"/>
<path d="M0 0 C1.65 0.33 3.3 0.66 5 1 C3.35 2.65 1.7 4.3 0 6 C-0.66 5.67 -1.32 5.34 -2 5 C-2 4.34 -2 3.68 -2 3 C-1.34 3 -0.68 3 0 3 C0 2.01 0 1.02 0 0 Z " fill="#6732D8" transform="translate(425,364)"/>
<path d="M0 0 C1.98 0.99 1.98 0.99 4 2 C3.34 2.66 2.68 3.32 2 4 C1.34 2.68 0.68 1.36 0 0 Z M0 3 C0.33 3.66 0.66 4.32 1 5 C1.66 5.33 2.32 5.66 3 6 C1.35 6.33 -0.3 6.66 -2 7 C-1.34 5.68 -0.68 4.36 0 3 Z " fill="#F2ECF7" transform="translate(676,361)"/>
<path d="M0 0 C0.99 0 1.98 0 3 0 C3 0.99 3 1.98 3 3 C3.66 3 4.32 3 5 3 C4.67 3.66 4.34 4.32 4 5 C3.01 5.33 2.02 5.66 1 6 C1 5.34 1 4.68 1 4 C0.34 4 -0.32 4 -1 4 C-0.67 2.68 -0.34 1.36 0 0 Z " fill="#F1E6F8" transform="translate(137,358)"/>
<path d="M0 0 C0.75 1.5625 0.75 1.5625 1 4 C-0.13084437 6.50286409 -1.52139516 8.67007722 -3 11 C-3.99 10.34 -4.98 9.68 -6 9 C-4.73046875 7.53515625 -3.4609375 6.0703125 -2.19140625 4.60546875 C-0.79128769 2.89287029 -0.79128769 2.89287029 0 0 Z " fill="#E8D7F8" transform="translate(752,353)"/>
<path d="M0 0 C0.433125 0.474375 0.86625 0.94875 1.3125 1.4375 C3.02309613 3.23686957 3.02309613 3.23686957 6 4 C4.35 5.32 2.7 6.64 1 8 C-0.35439668 5.29120665 -0.06501451 2.99066732 0 0 Z " fill="#6533CD" transform="translate(438,350)"/>
<path d="M0 0 C0.66 0.33 1.32 0.66 2 1 C-1.465 3.97 -1.465 3.97 -5 7 C-5.33 6.01 -5.66 5.02 -6 4 C-4.02 2.68 -2.04 1.36 0 0 Z " fill="#F1DDFE" transform="translate(582,344)"/>
<path d="M0 0 C0.33 0 0.66 0 1 0 C1 2.97 1 5.94 1 9 C-0.32 9.33 -1.64 9.66 -3 10 C-2.01 6.7 -1.02 3.4 0 0 Z " fill="#7846D2" transform="translate(590,331)"/>
<path d="M0 0 C0.66 0 1.32 0 2 0 C1.49396008 2.16874252 1.00016187 3.99967627 0 6 C-0.66 6 -1.32 6 -2 6 C-2 6.66 -2 7.32 -2 8 C-2.66 8 -3.32 8 -4 8 C-2.87548273 5.0280615 -1.77706209 2.66559313 0 0 Z " fill="#652FD8" transform="translate(146,326)"/>
<path d="M0 0 C0.66 0.66 1.32 1.32 2 2 C1.625 4.125 1.625 4.125 1 6 C0.34 6 -0.32 6 -1 6 C-1.33 6.66 -1.66 7.32 -2 8 C-2.99 7.67 -3.98 7.34 -5 7 C-3.35 4.69 -1.7 2.38 0 0 Z " fill="#F3E1FC" transform="translate(349,288)"/>
<path d="M0 0 C2.4375 0.75 2.4375 0.75 5 2 C5.8125 4.125 5.8125 4.125 6 6 C5.01 6 4.02 6 3 6 C0 2.66666667 0 2.66666667 0 0 Z " fill="#F2E3FD" transform="translate(343,353)"/>
<path d="M0 0 C0.88336837 2.4667645 1.1312406 3.63859372 0.22265625 6.140625 C-0.16019531 6.83671875 -0.54304687 7.5328125 -0.9375 8.25 C-1.31777344 8.95640625 -1.69804688 9.6628125 -2.08984375 10.390625 C-2.39019531 10.92171875 -2.69054687 11.4528125 -3 12 C-4.21386936 8.35839192 -3.6674695 7.66834531 -2.0625 4.3125 C-1.49208984 3.10013672 -1.49208984 3.10013672 -0.91015625 1.86328125 C-0.60980469 1.24839844 -0.30945313 0.63351562 0 0 Z " fill="#F6EAFD" transform="translate(684,338)"/>
<path d="M0 0 C0.99 0.33 1.98 0.66 3 1 C2.0409375 2.1446875 2.0409375 2.1446875 1.0625 3.3125 C-1.14232781 5.88246713 -1.14232781 5.88246713 -2 9 C-2.66 9 -3.32 9 -4 9 C-2.80100302 5.9168649 -1.52299523 2.93720508 0 0 Z " fill="#F3E0FE" transform="translate(609,340)"/>
<path d="M0 0 C0.66 0 1.32 0 2 0 C1.01 2.97 0.02 5.94 -1 9 C-1.66 8.67 -2.32 8.34 -3 8 C-1.125 2.25 -1.125 2.25 0 0 Z " fill="#F4E7FE" transform="translate(129,324)"/>
<path d="M0 0 C0.66 0.33 1.32 0.66 2 1 C0.02 5.455 0.02 5.455 -2 10 C-2.66 8.68 -3.32 7.36 -4 6 C-2.68 4.02 -1.36 2.04 0 0 Z " fill="#F0DCFD" transform="translate(134,314)"/>
<path d="M0 0 C5.57142857 5.14285714 5.57142857 5.14285714 6 9 C5.34 9 4.68 9 4 9 C2.96210419 7.35666496 1.96432076 5.68756133 1 4 C0.34 3.34 -0.32 2.68 -1 2 C-0.67 1.34 -0.34 0.68 0 0 Z " fill="#F4E2FE" transform="translate(583,305)"/>
<path d="M0 0 C1.65 0 3.3 0 5 0 C3.35 1.98 1.7 3.96 0 6 C-1.125 2.25 -1.125 2.25 0 0 Z " fill="#6634D0" transform="translate(541,301)"/>
<path d="M0 0 C0 4.29 0 8.58 0 13 C-0.33 13 -0.66 13 -1 13 C-1 10.03 -1 7.06 -1 4 C-1.99 3.67 -2.98 3.34 -4 3 C-1.125 0 -1.125 0 0 0 Z " fill="#6036BE" transform="translate(430,290)"/>
<path d="M0 0 C1.33332095 2.6666419 0.67102033 4.16680303 0 7 C-0.33 6.34 -0.66 5.68 -1 5 C-1.66 5 -2.32 5 -3 5 C-3.33 5.99 -3.66 6.98 -4 8 C-4.66 7.67 -5.32 7.34 -6 7 C-4.02 4.69 -2.04 2.38 0 0 Z " fill="#7746DD" transform="translate(325,292)"/>
<path d="M0 0 C1.32 0 2.64 0 4 0 C4 0.66 4 1.32 4 2 C5.32 2.33 6.64 2.66 8 3 C7.67 3.66 7.34 4.32 7 5 C4.03 4.01 1.06 3.02 -2 2 C-1.34 1.34 -0.68 0.68 0 0 Z " fill="#6E42D3" transform="translate(570,295)"/>
<path d="M0 0 C0.99 0.66 1.98 1.32 3 2 C3 2.66 3 3.32 3 4 C1.35 4.33 -0.3 4.66 -2 5 C-2.33 3.68 -2.66 2.36 -3 1 C-2.01 0.67 -1.02 0.34 0 0 Z " fill="#6A34E1" transform="translate(293,290)"/>
<path d="M0 0 C1.77503906 0.03480469 1.77503906 0.03480469 3.5859375 0.0703125 C5.36871094 0.09738281 5.36871094 0.09738281 7.1875 0.125 C8.10273438 0.14820313 9.01796875 0.17140625 9.9609375 0.1953125 C9.9609375 0.5253125 9.9609375 0.8553125 9.9609375 1.1953125 C6.0009375 1.1953125 2.0409375 1.1953125 -2.0390625 1.1953125 C-2.3690625 2.1853125 -2.6990625 3.1753125 -3.0390625 4.1953125 C-3.6990625 3.5353125 -4.3590625 2.8753125 -5.0390625 2.1953125 C-3.0390625 0.1953125 -3.0390625 0.1953125 0 0 Z " fill="#6328DE" transform="translate(274.0390625,279.8046875)"/>
<path d="M0 0 C3.3 0.99 6.6 1.98 10 3 C7 5 7 5 5 5 C5 4.34 5 3.68 5 3 C3.35 2.67 1.7 2.34 0 2 C0 1.34 0 0.68 0 0 Z " fill="#EFDBFD" transform="translate(539,366)"/>
<path d="M0 0 C1.32 0.33 2.64 0.66 4 1 C2.35 2.98 0.7 4.96 -1 7 C-2 4 -2 4 -1.0625 1.8125 C-0.5365625 0.9153125 -0.5365625 0.9153125 0 0 Z " fill="#7144D4" transform="translate(597,353)"/>
<path d="M0 0 C0.66 0.33 1.32 0.66 2 1 C1.01 2.485 1.01 2.485 0 4 C-0.99 3.67 -1.98 3.34 -3 3 C-2.01 2.01 -1.02 1.02 0 0 Z M-5 4 C-4.34 4.33 -3.68 4.66 -3 5 C-3.99 5.99 -4.98 6.98 -6 8 C-6.66 7.67 -7.32 7.34 -8 7 C-7.01 6.01 -6.02 5.02 -5 4 Z " fill="#EFDEFE" transform="translate(454,345)"/>
<path d="M0 0 C0.99 0.33 1.98 0.66 3 1 C1.35 2.98 -0.3 4.96 -2 7 C-2.66 6.01 -3.32 5.02 -4 4 C-2.68 2.68 -1.36 1.36 0 0 Z " fill="#F5E5FE" transform="translate(281,345)"/>
<path d="M0 0 C3.82946843 1.45255699 5.12050295 3.42895561 7 7 C6.34 7 5.68 7 5 7 C4 6 3 5 2 4 C1.34 4 0.68 4 0 4 C0 2.68 0 1.36 0 0 Z " fill="#6738D1" transform="translate(320,327)"/>
<path d="M0 0 C0.33 0.66 0.66 1.32 1 2 C1.66 2 2.32 2 3 2 C3.33 3.65 3.66 5.3 4 7 C3.01 6.67 2.02 6.34 1 6 C-0.1875 3.4375 -0.1875 3.4375 -1 1 C-0.67 0.67 -0.34 0.34 0 0 Z " fill="#FDFDEF" transform="translate(325,324)"/>
<path d="M0 0 C5.75 2.625 5.75 2.625 8 6 C5.69 5.34 3.38 4.68 1 4 C0.67 2.68 0.34 1.36 0 0 Z " fill="#6C3CCD" transform="translate(739,322)"/>
<path d="M0 0 C2.5625 2.25 2.5625 2.25 5 5 C4.9375 7.25 4.9375 7.25 4 9 C3.01 9.495 3.01 9.495 2 10 C1.855625 8.906875 1.71125 7.81375 1.5625 6.6875 C1.11711896 3.06877013 1.11711896 3.06877013 0 0 Z " fill="#F3DEFE" transform="translate(294,319)"/>
<path d="M0 0 C2.375 -0.1875 2.375 -0.1875 5 0 C5.66 0.99 6.32 1.98 7 3 C6.67 3.99 6.34 4.98 6 6 C3.97945196 4.35830472 1.97956942 2.69088222 0 1 C0 0.67 0 0.34 0 0 Z " fill="#7042CB" transform="translate(578,300)"/>
<path d="M0 0 C0.625 1.8125 0.625 1.8125 1 4 C0.01 5.485 0.01 5.485 -1 7 C-1.99 7 -2.98 7 -4 7 C-2.79618552 4.50638429 -1.54571278 2.31856917 0 0 Z " fill="#6F3CD6" transform="translate(330,285)"/>
<path d="M0 0 C-0.99 1.485 -0.99 1.485 -2 3 C-5.125 3.1875 -5.125 3.1875 -8 3 C-5.53387212 -0.1151089 -3.89156016 -0.31553191 0 0 Z " fill="#6323F4" transform="translate(729,355)"/>
<path d="M0 0 C1.65 0.99 3.3 1.98 5 3 C2 4 2 4 0 4 C-0.33 4.66 -0.66 5.32 -1 6 C-1.66 5.67 -2.32 5.34 -3 5 C-2.01 3.35 -1.02 1.7 0 0 Z " fill="#6F49C4" transform="translate(684,343)"/>
<path d="M0 0 C0.99 0.33 1.98 0.66 3 1 C3 2.65 3 4.3 3 6 C1.35 4.35 -0.3 2.7 -2 1 C-1.34 0.67 -0.68 0.34 0 0 Z " fill="#EDDEFE" transform="translate(748,325)"/>
<path d="M0 0 C0.66 0 1.32 0 2 0 C2 2.31 2 4.62 2 7 C1.01 7.495 1.01 7.495 0 8 C-0.38063221 5.6739143 -0.71269945 3.33944736 -1 1 C-0.67 0.67 -0.34 0.34 0 0 Z " fill="#6C2CDB" transform="translate(745,289)"/>
<path d="M0 0 C0.66 0.33 1.32 0.66 2 1 C1.3125 3.4375 1.3125 3.4375 0 6 C-2.625 6.8125 -2.625 6.8125 -5 7 C-3.35 4.69 -1.7 2.38 0 0 Z " fill="#EFDDFD" transform="translate(355,281)"/>
<path d="M0 0 C1.134375 0.020625 2.26875 0.04125 3.4375 0.0625 C3.4375 0.3925 3.4375 0.7225 3.4375 1.0625 C2.014375 1.18625 2.014375 1.18625 0.5625 1.3125 C-2.66711791 1.71324923 -2.66711791 1.71324923 -3.9375 4.125 C-4.14375 4.764375 -4.35 5.40375 -4.5625 6.0625 C-5.2225 6.0625 -5.8825 6.0625 -6.5625 6.0625 C-4.25951087 0.07472826 -4.25951087 0.07472826 0 0 Z " fill="#6436CD" transform="translate(337.5625,279.9375)"/>
<path d="M0 0 C0.66 0.33 1.32 0.66 2 1 C1.34 2.32 0.68 3.64 0 5 C-0.99 5 -1.98 5 -3 5 C-3 3.68 -3 2.36 -3 1 C-2.01 0.67 -1.02 0.34 0 0 Z " fill="#FCFCEA" transform="translate(149,274)"/>
</svg>
