<?xml version="1.0" encoding="UTF-8"?>
<svg version="1.1" xmlns="http://www.w3.org/2000/svg" width="866" height="650">
<path d="M0 0 C285.78 0 571.56 0 866 0 C866 214.5 866 429 866 650 C580.22 650 294.44 650 0 650 C0 435.5 0 221 0 0 Z " fill="#1113BA" transform="translate(0,0)"/>
<path d="M0 0 C2.72028167 0.01067158 5.43989514 0.00007126 8.16015625 -0.01269531 C61.45252286 -0.05855897 113.35381773 18.57520704 155.98828125 50.26074219 C156.60445312 50.71707031 157.220625 51.17339844 157.85546875 51.64355469 C167.52037259 58.86057895 176.31135959 66.89510023 184.98828125 75.26074219 C186.28958984 76.50017578 186.28958984 76.50017578 187.6171875 77.76464844 C193.22926583 83.22056459 198.14463257 89.11998081 202.98828125 95.26074219 C203.76945313 96.22496094 204.550625 97.18917969 205.35546875 98.18261719 C223.14442811 120.57510916 240.60626503 149.14636728 246.98828125 177.26074219 C247.65730469 177.35871094 248.32632813 177.45667969 249.015625 177.55761719 C252.34978645 178.07676179 255.66800447 178.65896389 258.98828125 179.26074219 C260.22191406 179.48246094 261.45554687 179.70417969 262.7265625 179.93261719 C289.66607441 185.28041111 315.61309619 199.3519154 335.625 218.05371094 C337.22345617 219.54648405 338.85250247 221.00705416 340.5078125 222.43652344 C369.00060089 247.07775211 388.10907398 287.94694028 390.98828125 325.26074219 C391.18067741 330.42779314 391.23258623 335.59084702 391.23828125 340.76074219 C391.23962067 341.47661499 391.24096008 342.19248779 391.24234009 342.93005371 C391.23809658 353.3702575 390.67584983 363.12584571 387.98828125 373.26074219 C387.79492188 374.20820313 387.6015625 375.15566406 387.40234375 376.13183594 C379.30726975 414.03150056 354.30320509 447.2625581 322.27319336 468.41333008 C287.90943991 490.26074219 287.90943991 490.26074219 272.98828125 490.26074219 C272.98828125 473.43074219 272.98828125 456.60074219 272.98828125 439.26074219 C278.26828125 436.62074219 283.54828125 433.98074219 288.98828125 431.26074219 C313.40916297 417.03759129 331.86878996 395.00955104 339.375 367.47558594 C346.94691684 336.12910699 340.13358033 305.40630393 324.08203125 278.00683594 C319.18209415 270.30550038 313.37313275 263.73564801 306.98828125 257.26074219 C305.81845703 256.07158203 305.81845703 256.07158203 304.625 254.85839844 C277.89065045 229.29227257 244.22080374 225.16188593 208.98828125 224.26074219 C208.78259521 223.45145264 208.57690918 222.64216309 208.36499023 221.80834961 C198.8239425 184.51441226 185.97519 149.56305393 159.98828125 120.26074219 C158.84939453 118.95943359 158.84939453 118.95943359 157.6875 117.63183594 C150.01722546 108.98182885 142.04988489 101.45118352 132.98828125 94.26074219 C131.97507812 93.4421875 130.961875 92.62363281 129.91796875 91.78027344 C111.622348 77.17724271 90.76459288 67.51199878 68.98828125 59.26074219 C67.9209375 58.84824219 66.85359375 58.43574219 65.75390625 58.01074219 C56.45169235 54.64722982 46.70750018 52.94917621 36.98828125 51.26074219 C36.31265137 51.13924805 35.63702148 51.01775391 34.94091797 50.89257812 C14.68645474 47.3941274 -8.81446133 47.48863427 -29.01171875 51.26074219 C-29.86958984 51.41671875 -30.72746094 51.57269531 -31.61132812 51.73339844 C-62.91595051 57.58270504 -92.75350057 69.64659495 -118.01171875 89.26074219 C-118.81480469 89.87175781 -119.61789062 90.48277344 -120.4453125 91.11230469 C-127.15987358 96.33354739 -133.38926046 102.0481704 -139.56201172 107.89013672 C-140.78973474 109.05087048 -142.02668689 110.2018305 -143.265625 111.35058594 C-156.28311383 123.78951971 -166.93228632 140.25040057 -175.38671875 156.07324219 C-175.71019287 156.67595947 -176.03366699 157.27867676 -176.36694336 157.8996582 C-177.92580477 160.88953896 -179.22204862 163.83929999 -180.375 167.01074219 C-181.6548939 170.45399656 -182.83055334 173.30291447 -185.01171875 176.26074219 C-188.57971069 177.85149527 -191.9904988 177.94595582 -195.86083984 178.10644531 C-200.22863198 178.41977614 -204.52198014 179.28241927 -208.82421875 180.07324219 C-209.77707764 180.24702393 -210.72993652 180.42080566 -211.71166992 180.59985352 C-246.04514936 187.07416678 -278.39573384 206.90652687 -298.47802734 235.82470703 C-320.15753908 268.14446993 -329.4335036 306.20482635 -321.984375 344.83886719 C-319.23454658 357.77187613 -315.00069383 369.48975446 -309.01171875 381.26074219 C-308.46644531 382.37191406 -307.92117188 383.48308594 -307.359375 384.62792969 C-299.23470524 400.5713993 -284.84730596 421.18205604 -268.41235352 428.96533203 C-264.12456583 431.01426991 -260.59897756 433.17511394 -258.01171875 437.26074219 C-255.61708305 446.1504321 -256.7032198 455.79394887 -257.13671875 464.88574219 C-257.20700298 467.44156174 -257.27087102 469.99756629 -257.328125 472.55371094 C-257.4818207 478.79344638 -257.71549539 485.02623368 -258.01171875 491.26074219 C-259.60268381 490.6312753 -261.19296485 490.00007942 -262.78295898 489.36816406 C-263.66862045 489.01685425 -264.55428192 488.66554443 -265.46678162 488.30358887 C-278.10373013 483.12530779 -289.09918542 475.34128295 -300.01171875 467.26074219 C-300.89085937 466.62910156 -301.77 465.99746094 -302.67578125 465.34667969 C-324.11538188 449.21172252 -341.15740533 427.17841284 -353.01171875 403.26074219 C-353.40053223 402.4829541 -353.7893457 401.70516602 -354.18994141 400.90380859 C-367.39159292 374.1143015 -373.35338133 346.39992454 -373.38671875 316.63574219 C-373.38880341 315.88096588 -373.39088806 315.12618958 -373.39303589 314.34854126 C-373.38874346 300.65662742 -372.06622422 287.35268697 -368.82421875 274.01074219 C-368.61063721 273.12942627 -368.39705566 272.24811035 -368.17700195 271.34008789 C-364.34575286 256.14411266 -358.41834781 242.03453696 -351.01171875 228.26074219 C-350.54644775 227.37443115 -350.54644775 227.37443115 -350.07177734 226.47021484 C-342.66145483 212.40588513 -333.01516045 199.71050133 -322.01171875 188.26074219 C-321.24964111 187.44404053 -321.24964111 187.44404053 -320.47216797 186.61083984 C-295.27552818 159.67448428 -259.74099503 138.60488991 -223.01171875 132.26074219 C-221.01216494 132.21849809 -219.01102659 132.20812882 -217.01171875 132.26074219 C-216.77195313 131.42285156 -216.5321875 130.58496094 -216.28515625 129.72167969 C-214.82278997 125.74727316 -212.90100067 122.44566227 -210.63671875 118.88574219 C-209.97905518 117.84571045 -209.97905518 117.84571045 -209.30810547 116.78466797 C-193.75477207 92.56692053 -173.99547931 69.56868339 -150.72265625 52.52294922 C-148.95533 51.21914261 -147.21732752 49.88215181 -145.48046875 48.53808594 C-113.17518621 23.80741485 -74.35521034 8.7926442 -34.34130859 2.62548828 C-32.59861761 2.3526335 -30.85984895 2.05451563 -29.12353516 1.74365234 C-19.39116791 0.13280739 -9.84548166 -0.04577656 0 0 Z " fill="#FCFDFE" transform="translate(424.01171875,74.7392578125)"/>
<path d="M0 0 C3.75975605 1.94381946 6.43843457 4.67796656 9.39587402 7.67358398 C10.40646378 8.67365982 10.40646378 8.67365982 11.43746948 9.69393921 C13.66057716 11.89944827 15.86874189 14.11926091 18.07629395 16.34033203 C19.61555967 17.87690373 21.15541881 19.4128812 22.69584656 20.94828796 C25.92092818 24.16747222 29.13866282 27.39378164 32.35144043 30.62524414 C36.47522255 34.77183434 40.61672586 38.90018466 44.76387501 43.02338886 C47.94603816 46.19111728 51.11863623 49.36828723 54.28839684 52.54842186 C55.81213226 54.07482998 57.33885665 55.59826027 58.86857033 57.11867714 C61.00207161 59.24204973 63.12237752 61.37776996 65.23962402 63.51733398 C66.19564262 64.4612072 66.19564262 64.4612072 67.17097473 65.42414856 C67.74432556 66.00877869 68.31767639 66.59340881 68.90840149 67.195755 C69.41073712 67.69959874 69.91307276 68.20344248 70.43063068 68.72255421 C71.4942627 70.28955078 71.4942627 70.28955078 71.4942627 74.28955078 C61.0992627 74.78455078 61.0992627 74.78455078 50.4942627 75.28955078 C50.40151338 96.46520907 50.33020582 117.64081813 50.28701401 138.81663895 C50.26642279 148.64980247 50.2383682 158.48283716 50.19250488 168.31591797 C50.15253153 176.89030763 50.1268049 185.46460394 50.11790872 194.0390842 C50.11271169 198.57572666 50.10056912 203.11210217 50.07134247 207.64865875 C50.04400712 211.92667831 50.03585394 216.20432327 50.04183197 220.48242188 C50.04073978 222.04480786 50.03289436 223.60720758 50.0174408 225.16951752 C49.86959419 240.90014778 53.31100274 252.03771265 64.1192627 263.53955078 C64.85402832 264.33232422 64.85402832 264.33232422 65.6036377 265.14111328 C67.53716566 267.22256141 69.48530831 269.28059639 71.4942627 271.28955078 C71.4942627 272.60955078 71.4942627 273.92955078 71.4942627 275.28955078 C59.83665377 275.38255184 48.17913424 275.45346802 36.52122879 275.49679947 C31.10699536 275.51760463 25.69301722 275.54579225 20.27893066 275.59130859 C15.04637927 275.63501955 9.81407223 275.65874097 4.58135223 275.66905975 C2.59281319 275.67640602 0.60428634 275.69075068 -1.38414764 275.71247101 C-16.32619264 275.86908082 -29.19219919 275.28819917 -40.5057373 264.28955078 C-49.01700781 255.13089057 -51.63534781 244.46814899 -51.62599182 232.18373108 C-51.62684625 231.50396397 -51.62770067 230.82419685 -51.62858099 230.12383074 C-51.63021699 227.86532251 -51.62474546 225.60688996 -51.6192627 223.34838867 C-51.61898039 221.72176109 -51.6191394 220.09513337 -51.6197052 218.46850586 C-51.61999149 214.06615698 -51.61412199 209.66383549 -51.60713124 205.26149297 C-51.60086965 200.6557296 -51.60029169 196.04996557 -51.59910583 191.44419861 C-51.59600079 182.72855614 -51.58779855 174.01292625 -51.57775635 165.29728931 C-51.56656953 155.37228731 -51.56107829 145.44728469 -51.55606091 135.52227795 C-51.54561524 115.11136169 -51.5278298 94.70045747 -51.5057373 74.28955078 C-58.4357373 74.28955078 -65.3657373 74.28955078 -72.5057373 74.28955078 C-72.5057373 69.789293 -72.5057373 69.789293 -69.88191223 67.14433289 C-69.00926476 66.25043098 -69.00926476 66.25043098 -68.11898804 65.33847046 C-67.47229156 64.69672882 -66.82559509 64.05498718 -66.15930176 63.39379883 C-65.48458328 62.70885849 -64.80986481 62.02391815 -64.11470032 61.31822205 C-61.87643136 59.05210161 -59.6235531 56.80120036 -57.36901855 54.55126953 C-55.81113478 52.98561582 -54.25370134 51.41951388 -52.69670105 49.85298157 C-49.4289881 46.57033189 -46.15361248 43.29556046 -42.87316895 40.02563477 C-38.6636924 35.82775654 -34.47739793 31.60757616 -30.29699421 27.38077068 C-27.08613554 24.14049627 -23.86158101 20.91413117 -20.632864 17.69165993 C-19.08317846 16.14094523 -17.53823587 14.58547605 -15.99810219 13.02527428 C-13.84578383 10.84837132 -11.67536537 8.6913023 -9.49914551 6.53833008 C-8.86257019 5.88646729 -8.22599487 5.23460449 -7.57012939 4.56298828 C-3.28599137 0.37971314 -3.28599137 0.37971314 0 0 Z " fill="#FDFDFE" transform="translate(275.5057373046875,298.71044921875)"/>
<path d="M0 0 C4.08040195 1.29803802 6.54986634 4.1512448 9.50927734 7.15759277 C10.19436371 7.83391754 10.87945007 8.51024231 11.58529663 9.20706177 C13.84825991 11.44800253 16.09242586 13.70676057 18.3359375 15.96716309 C19.89987266 17.52773139 21.46454952 19.08755673 23.02993774 20.64666748 C26.30794503 23.9172998 29.57672842 27.19681512 32.83935547 30.48278809 C37.02933994 34.70128278 41.24140044 38.89690437 45.46059227 43.08616257 C48.69515947 46.30269462 51.91776265 49.5310005 55.13682938 52.76303864 C56.68576275 54.31531521 58.23844033 55.86386469 59.79484177 57.40865326 C61.96456632 59.56573014 64.11769656 61.73809487 66.26708984 63.91540527 C67.24252747 64.87566116 67.24252747 64.87566116 68.2376709 65.85531616 C68.81806122 66.4498056 69.39845154 67.04429504 69.99642944 67.65679932 C70.7623771 68.42557467 70.7623771 68.42557467 71.54379845 69.20988083 C71.85934496 69.73306522 72.17489147 70.25624962 72.5 70.79528809 C72.17 72.11528809 71.84 73.43528809 71.5 74.79528809 C64.57 74.79528809 57.64 74.79528809 50.5 74.79528809 C50.51490062 90.99931445 50.55628428 107.20296424 50.63209057 123.40680981 C50.66663908 130.93176148 50.6920827 138.45653189 50.69555664 145.98156738 C50.69861074 152.54585619 50.71929373 159.10982134 50.76052457 165.6739853 C50.78172645 169.14482505 50.79452219 172.61520621 50.78615379 176.08611107 C50.77710882 179.97540181 50.80745031 183.86388159 50.84057617 187.75305176 C50.82763771 189.45023346 50.82763771 189.45023346 50.81443787 191.18170166 C50.98648696 203.31439292 54.7661233 212.85641553 63.203125 221.57653809 C64.68163451 223.00475816 66.17049992 224.42237434 67.671875 225.82653809 C68.31640625 226.43497559 68.9609375 227.04341309 69.625 227.67028809 C70.20507812 228.18333496 70.78515625 228.69638184 71.3828125 229.22497559 C71.75148438 229.74317871 72.12015625 230.26138184 72.5 230.79528809 C72.06982422 232.89343262 72.06982422 232.89343262 71.5 234.79528809 C59.93820348 234.86497173 48.37645739 234.91819244 36.81449318 234.9507246 C31.44510068 234.96634284 26.07585246 234.98751072 20.70654297 235.02160645 C15.51939868 235.05433716 10.33239268 235.07216996 5.14515305 235.07991982 C3.17172445 235.08543877 1.19830293 235.09621568 -0.77506638 235.11247826 C-16.02124349 235.23306119 -28.00694549 234.59701891 -39.69921875 223.75622559 C-49.56222839 213.43743916 -50.6365601 202.34629787 -50.70532227 188.63952637 C-50.71522186 187.41945389 -50.72512146 186.19938141 -50.73532104 184.94233704 C-50.76143026 181.6101593 -50.78332445 178.27800451 -50.80332303 174.94578791 C-50.82525669 171.45841101 -50.85260912 167.97107665 -50.87937927 164.48373413 C-50.92920671 157.88596256 -50.97418226 151.28816726 -51.01740164 144.69034946 C-51.06685928 137.17641954 -51.12174567 129.66253231 -51.17708123 122.14864373 C-51.29074845 106.69756444 -51.3974279 91.24644523 -51.5 75.79528809 C-58.1 75.46528809 -64.7 75.13528809 -71.5 74.79528809 C-71.83 73.47528809 -72.16 72.15528809 -72.5 70.79528809 C-71.54379845 69.20988083 -71.54379845 69.20988083 -69.99642944 67.65679932 C-69.12584396 66.76506516 -69.12584396 66.76506516 -68.2376709 65.85531616 C-67.58737915 65.21514557 -66.9370874 64.57497498 -66.26708984 63.91540527 C-65.5925174 63.23207123 -64.91794495 62.54873718 -64.22293091 61.84469604 C-61.98138497 59.58107827 -59.72195982 57.33631511 -57.4609375 55.09216309 C-55.90133527 53.52919463 -54.34247606 51.96548442 -52.78433228 50.40106201 C-49.51192355 47.12127098 -46.2306139 43.85072117 -42.94287109 40.58630371 C-38.7255902 36.39748636 -34.53111956 32.18665769 -30.34306908 27.96863937 C-27.12650471 24.73401944 -23.89814078 21.51138888 -20.66606522 18.29227448 C-19.11461677 16.744166 -17.56688657 15.19232215 -16.02293015 13.63674164 C-13.86356864 11.46470421 -11.6888658 9.30930639 -9.50927734 7.15759277 C-8.5520578 6.1851915 -8.5520578 6.1851915 -7.57550049 5.19314575 C-5.11898257 2.79461244 -3.29725603 1.04890738 0 0 Z " fill="#FDFEFE" transform="translate(430.5,339.2047119140625)"/>
<path d="M0 0 C2.86356097 1.29994696 4.92226181 2.67378073 7.13848877 4.89797974 C7.73297821 5.48971985 8.32746765 6.08145996 8.93997192 6.69113159 C9.58014252 7.33849274 10.22031311 7.98585388 10.87988281 8.65283203 C11.56321686 9.33587402 12.2465509 10.01891602 12.95059204 10.72265625 C15.20620976 12.97966638 17.45466222 15.2436763 19.703125 17.5078125 C21.26638892 19.07480686 22.83009523 20.64135999 24.39422607 22.20748901 C28.50858445 26.32948142 32.6169012 30.45744484 36.72399902 34.58666992 C40.91654166 38.79967584 45.11475588 43.00702158 49.3125 47.21484375 C57.54723528 55.4710249 65.77560065 63.73352357 74 72 C73.67 72.99 73.34 73.98 73 75 C62.605 75.495 62.605 75.495 52 76 C51.95463258 85.96268491 51.91801715 95.92530007 51.89637566 105.88806534 C51.88598354 110.51526 51.87190888 115.14237971 51.84912109 119.76953125 C51.82722837 124.24345374 51.81539708 128.71730458 51.81024551 133.19127655 C51.80657902 134.88951493 51.7994202 136.58774985 51.78853989 138.28595734 C51.66596272 158.22948219 54.07212481 171.50074204 68.2578125 186.1171875 C70.37431672 188.3422304 72.24384225 190.49293342 74 193 C71.42453722 195.57546278 69.68428352 195.25294489 66.17294312 195.29327393 C64.94965805 195.29191437 64.94965805 195.29191437 63.70166016 195.29052734 C62.84282227 195.29724457 61.98398437 195.30396179 61.09912109 195.31088257 C58.24571 195.32995214 55.39253346 195.33379269 52.5390625 195.3359375 C50.55284529 195.34236436 48.56662903 195.34909264 46.58041382 195.35610962 C42.40563772 195.36810837 38.23094448 195.37178829 34.05615234 195.37060547 C28.73240603 195.37040331 23.40919974 195.39758688 18.08558083 195.43214989 C13.9760398 195.45451503 9.86662611 195.45843991 5.75703049 195.45738602 C3.79642265 195.45973209 1.83581077 195.46849902 -0.12473679 195.48405075 C-14.95431038 195.59056696 -27.78790967 194.92231463 -39 184 C-47.50237758 174.67972032 -50.17062579 164.85348912 -50.11352539 152.42431641 C-50.11367142 151.58463318 -50.11381744 150.74494995 -50.1139679 149.87982178 C-50.11327445 147.12037521 -50.10550874 144.36099719 -50.09765625 141.6015625 C-50.09579005 139.68199704 -50.0943671 137.7624311 -50.09336853 135.84286499 C-50.08955925 130.8024564 -50.07974257 125.76207684 -50.06866455 120.72167969 C-50.05841623 115.5735717 -50.05386359 110.42545901 -50.04882812 105.27734375 C-50.03811883 95.18488106 -50.02053494 85.09244749 -50 75 C-56.93 75 -63.86 75 -71 75 C-69.875 69.375 -69.875 69.375 -67.22227478 66.74125671 C-66.33672661 65.84746056 -66.33672661 65.84746056 -65.43328857 64.93560791 C-64.78233215 64.29903259 -64.13137573 63.66245728 -63.46069336 63.0065918 C-62.77779739 62.32311172 -62.09490143 61.63963165 -61.39131165 60.93544006 C-59.13350809 58.68042146 -56.86187088 56.43989831 -54.58984375 54.19921875 C-53.02098556 52.63782142 -51.45300863 51.07553815 -49.88587952 49.5124054 C-45.76002077 45.40181488 -41.62229079 41.303378 -37.48199463 37.20733643 C-33.25877171 33.02503994 -29.04685762 28.83138897 -24.83398438 24.63867188 C-16.56703366 16.41461313 -8.28750045 8.20334644 0 0 Z " fill="#FDFDFE" transform="translate(585,379)"/>
<path d="M0 0 C0.99 0.33 1.98 0.66 3 1 C2.99907821 1.8442903 2.99815641 2.68858061 2.99720669 3.55845547 C2.97515337 24.07130856 2.95858938 44.58415962 2.94818783 65.09702206 C2.94302444 75.01675275 2.93598093 84.93647555 2.92456055 94.85620117 C2.91461502 103.49896979 2.90814689 112.14173268 2.90591151 120.78450686 C2.90460417 125.36372463 2.90151692 129.94292605 2.89426994 134.5221386 C2.88751179 138.82711706 2.88538262 143.13207233 2.88689232 147.43705559 C2.8866159 149.02178066 2.88460956 150.60650646 2.88079453 152.19122696 C2.87586047 154.34540411 2.87700063 156.4994923 2.87974548 158.65367126 C2.87882369 159.86214187 2.8779019 161.07061247 2.87695217 162.31570339 C2.69411364 164.91877543 2.69411364 164.91877543 4 166 C4.14115161 168.67058851 4.04247107 171.32432238 4 174 C0.41777589 168.62666383 -0.25025039 163.28837974 -0.24050903 156.93214417 C-0.24221788 156.2564606 -0.24392673 155.58077704 -0.24568737 154.88461822 C-0.24895921 152.63984621 -0.23801712 150.39537884 -0.22705078 148.15063477 C-0.22648617 146.53385932 -0.22680421 144.91708337 -0.22793579 143.30030823 C-0.22850834 138.92478399 -0.2167698 134.54936996 -0.20278788 130.17387128 C-0.19026429 125.59613943 -0.18910873 121.01840491 -0.18673706 116.44065857 C-0.18052708 107.77812179 -0.16412277 99.11563564 -0.14403808 90.45312113 C-0.12166409 80.58858285 -0.11068188 70.72404213 -0.10064721 60.85948479 C-0.07975613 40.57296163 -0.04458951 20.28648401 0 0 Z " fill="#4545AB" transform="translate(325,374)"/>
<path d="M0 0 C1.65 0 3.3 0 5 0 C4.34 0.66 3.68 1.32 3 2 C2.79638121 4.52658921 2.71677804 6.94403173 2.7253418 9.47216797 C2.72023087 10.24322372 2.71511993 11.01427948 2.70985413 11.80870056 C2.69590455 14.36994098 2.69692069 16.93091347 2.69921875 19.4921875 C2.69533107 21.27662252 2.69099625 23.06105661 2.68623352 24.8454895 C2.67875714 28.59656765 2.67907013 32.34755176 2.68432617 36.09863281 C2.69008348 40.87750156 2.67328806 45.65597799 2.6499815 50.43478203 C2.63514703 54.12741301 2.63438624 57.81995206 2.63749123 61.51260757 C2.63698158 63.27224623 2.63181156 65.03189053 2.62167931 66.79150009 C2.57206582 76.62450071 2.90058335 85.5432183 6 95 C6.66 95 7.32 95 8 95 C8.12375 95.804375 8.2475 96.60875 8.375 97.4375 C8.58125 98.283125 8.7875 99.12875 9 100 C9.66 100.33 10.32 100.66 11 101 C10.01 101 9.02 101 8 101 C-1.7541431 89.59604634 -0.14211333 74.06975824 -0.09765625 60.05859375 C-0.09578838 58.32267803 -0.09436622 56.58676178 -0.09336853 54.85084534 C-0.08957241 50.30860915 -0.0797673 45.76640555 -0.06866455 41.22418213 C-0.05838761 36.57849569 -0.05385751 31.93280393 -0.04882812 27.28710938 C-0.0381421 18.19139203 -0.02110104 9.09569874 0 0 Z " fill="#3E3FBD" transform="translate(636,455)"/>
<path d="M0 0 C0.66 0 1.32 0 2 0 C2.00808685 1.04490097 2.01617371 2.08980194 2.02450562 3.16636658 C2.10216247 13.03820191 2.18995039 22.90990274 2.28752708 32.78156185 C2.33736397 37.85605602 2.38369474 42.93053063 2.421875 48.00512695 C2.45888753 52.90706738 2.50528996 57.80883904 2.55806351 62.71063423 C2.57652291 64.57598456 2.59166168 66.44137096 2.60334396 68.30677605 C2.62035199 70.9298703 2.64942039 73.5525851 2.68115234 76.17553711 C2.68331253 76.9379924 2.68547272 77.70044769 2.68769836 78.48600769 C2.81175838 86.57156495 4.5799301 93.69348703 8 101 C6.35 101 4.7 101 3 101 C0.58727174 90.16491944 0.6524195 79.39521271 0.5859375 68.359375 C0.56719512 66.38111593 0.5476195 64.40286459 0.5272522 62.42462158 C0.47624907 57.25612989 0.43645445 52.08761236 0.39910889 46.91900635 C0.35886811 41.62953469 0.30786805 36.34016752 0.2578125 31.05078125 C0.16143071 20.70059457 0.07690691 10.35034845 0 0 Z " fill="#12199C" transform="translate(533,455)"/>
<path d="M0 0 C5.82071622 -0.02464638 11.64140234 -0.0428343 17.4621582 -0.05493164 C19.44393441 -0.05997267 21.42570689 -0.06680538 23.4074707 -0.07543945 C26.24952109 -0.08751515 29.09152247 -0.09323045 31.93359375 -0.09765625 C32.82525742 -0.10281754 33.71692108 -0.10797882 34.63560486 -0.11329651 C36.75740601 -0.11349177 38.8791078 -0.0621003 41 0 C41.495 0.495 41.495 0.495 42 1 C44.30947571 1.18773803 46.62317735 1.32421148 48.9375 1.4375 C55.09812801 1.77832576 61.00093248 2.54610834 67 4 C63.70911826 6.19392116 63.5066933 6.21681217 59.8984375 5.57421875 C59.03476562 5.43733643 58.17109375 5.3004541 57.28125 5.15942383 C56.3221875 5.00368896 55.363125 4.8479541 54.375 4.6875 C42.26404004 2.9171239 30.22069143 2.55058255 18 2.3125 C17.06162292 2.29408051 16.12324585 2.27566101 15.15643311 2.25668335 C9.77113536 2.15477961 4.385798 2.07035432 -1 2 C-0.67 1.34 -0.34 0.68 0 0 Z " fill="#1D1DA2" transform="translate(408,73)"/>
<path d="M0 0 C0.69530319 0.2816803 1.39060638 0.5633606 2.10697937 0.85357666 C12.709996 4.66510247 22.80914527 4.6045606 33.95703125 4.609375 C35.95628684 4.62438309 37.95553016 4.64111567 39.95475769 4.65948486 C45.17425152 4.70287558 50.39357818 4.7230943 55.61322021 4.73822021 C60.9564389 4.75789401 66.29947972 4.79985198 71.64257812 4.83984375 C82.09499683 4.91483902 92.54737514 4.96531553 103 5 C103 5.33 103 5.66 103 6 C91.30778488 6.02322664 79.61557529 6.04096756 67.92334175 6.05181217 C62.49348253 6.05701847 57.06363916 6.06407501 51.63378906 6.07543945 C46.38830282 6.08634864 41.14283177 6.0922938 35.89733505 6.09487724 C33.90159745 6.09671706 31.90586063 6.10030965 29.91012955 6.10573006 C27.10299162 6.11304722 24.29591554 6.11398647 21.48876953 6.11352539 C20.67380508 6.11712067 19.85884064 6.12071594 19.0191803 6.12442017 C14.01417161 6.11559299 9.12036627 5.77995332 4.1468792 5.21475887 C1.86208202 4.95023186 1.86208202 4.95023186 -1 5 C-0.67 3.35 -0.34 1.7 0 0 Z " fill="#1E1F9F" transform="translate(243,569)"/>
<path d="M0 0 C1.12897705 0.32531708 2.2579541 0.65063416 3.42114258 0.98580933 C8.08187639 2.14445488 12.47890325 2.26888119 17.26171875 2.22705078 C18.15046188 2.22734283 19.03920502 2.22763489 19.95487976 2.22793579 C22.86585567 2.22655258 25.77656931 2.21103925 28.6875 2.1953125 C30.71630717 2.19157878 32.74511616 2.1887335 34.77392578 2.18673706 C40.09382167 2.17912889 45.41360702 2.15950473 50.73345947 2.1373291 C56.16994736 2.11680984 61.60645324 2.10772237 67.04296875 2.09765625 C77.69536086 2.07625607 88.34767121 2.04215432 99 2 C99 2.66 99 3.32 99 4 C66.99 4 34.98 4 2 4 C2 3.34 2 2.68 2 2 C1.34 2 0.68 2 0 2 C0 1.34 0 0.68 0 0 Z " fill="#1E1DA3" transform="translate(559,571)"/>
<path d="M0 0 C0.99 0.495 0.99 0.495 2 1 C1.67 2.32 1.34 3.64 1 5 C-28.7 5 -58.4 5 -89 5 C-89 4.67 -89 4.34 -89 4 C-45.44 3.505 -45.44 3.505 -1 3 C-0.67 2.01 -0.34 1.02 0 0 Z " fill="#CFD1FD" transform="translate(501,569)"/>
<path d="M0 0 C0.495 1.485 0.495 1.485 1 3 C0.14921875 3.77859375 -0.7015625 4.5571875 -1.578125 5.359375 C-12.6932783 15.60058282 -23.36704276 26.26144425 -34 37 C-34.66 36.67 -35.32 36.34 -36 36 C-24.12 24.12 -12.24 12.24 0 0 Z " fill="#D4D5FB" transform="translate(407,361)"/>
<path d="M0 0 C0.66 0.33 1.32 0.66 2 1 C1.25 5.75 1.25 5.75 -1 8 C-1.69748583 9.31747324 -2.36959957 10.64914193 -3 12 C-3.66 12 -4.32 12 -5 12 C-5.33 13.32 -5.66 14.64 -6 16 C-6.66 16 -7.32 16 -8 16 C-8.0825 16.928125 -8.165 17.85625 -8.25 18.8125 C-9.12205166 22.51871956 -9.93511191 22.98866719 -13 25 C-13.33 25.99 -13.66 26.98 -14 28 C-16.0625 29.6875 -16.0625 29.6875 -18 31 C-18.66 30.67 -19.32 30.34 -20 30 C-19.5153125 29.42894531 -19.030625 28.85789062 -18.53125 28.26953125 C-11.28413524 19.50330974 -5.53241838 9.9122496 0 0 Z " fill="#2928AE" transform="translate(799,483)"/>
<path d="M0 0 C0.99 0 1.98 0 3 0 C3.04254356 1.99954746 3.04080783 4.00041636 3 6 C0.69990227 8.30009773 -4.84790666 7.18537365 -7.9375 7.1875 C-9.33645508 7.20586914 -9.33645508 7.20586914 -10.76367188 7.22460938 C-11.65505859 7.22654297 -12.54644531 7.22847656 -13.46484375 7.23046875 C-14.285896 7.23457764 -15.10694824 7.23868652 -15.95288086 7.24291992 C-18 7 -18 7 -20 5 C-13.07 5 -6.14 5 1 5 C0.67 3.35 0.34 1.7 0 0 Z " fill="#3A38B2" transform="translate(346,368)"/>
<path d="M0 0 C0.99 0.66 1.98 1.32 3 2 C-1.95 6.95 -6.9 11.9 -12 17 C-12.33 15.68 -12.66 14.36 -13 13 C-12.34 12.34 -11.68 11.68 -11 11 C-10.01 11 -9.02 11 -8 11 C-7.67 10.01 -7.34 9.02 -7 8 C-6.34 8 -5.68 8 -5 8 C-5 7.01 -5 6.02 -5 5 C-4.34 5 -3.68 5 -3 5 C-3 4.34 -3 3.68 -3 3 C-2.01 3 -1.02 3 0 3 C0 2.01 0 1.02 0 0 Z " fill="#181FA8" transform="translate(552,408)"/>
<path d="M0 0 C1 3 1 3 -0.25 6.625 C-2 10 -2 10 -5 11 C-4.67 12.98 -4.34 14.96 -4 17 C-5.65 17.66 -7.3 18.32 -9 19 C-8.42334609 14.2128572 -6.35917004 10.74871176 -3.9375 6.6875 C-3.56044922 6.04232422 -3.18339844 5.39714844 -2.79492188 4.73242188 C-1.86962507 3.15121848 -0.93567319 1.5750854 0 0 Z " fill="#2524A9" transform="translate(120,318)"/>
<path d="M0 0 C0.33 0 0.66 0 1 0 C1.31614454 6.0067463 0.57738849 9.46338768 -2 15 C-2.76703124 17.64330766 -3.47924226 20.2932046 -4.15625 22.9609375 C-4.4346875 23.63382812 -4.713125 24.30671875 -5 25 C-5.99 25.33 -6.98 25.66 -8 26 C-6.39098107 21.06323737 -4.69976127 16.17409025 -2.875 11.3125 C-1.48986665 7.54832081 -0.43360987 4.0108913 0 0 Z " fill="#3232AF" transform="translate(810,452)"/>
<path d="M0 0 C0.66 0 1.32 0 2 0 C0.24933204 3.88609811 -2.18324006 7.27812258 -4.625 10.75 C-5.04523438 11.35199219 -5.46546875 11.95398438 -5.8984375 12.57421875 C-6.92993137 14.05113043 -7.96464579 15.52579194 -9 17 C-11 14 -11 14 -11 12 C-9.68 12 -8.36 12 -7 12 C-7 10.35 -7 8.7 -7 7 C-5.35 6.34 -3.7 5.68 -2 5 C-2 4.01 -2 3.02 -2 2 C-1.34 2 -0.68 2 0 2 C0 1.34 0 0.68 0 0 Z " fill="#2325A9" transform="translate(227,171)"/>
<path d="M0 0 C0.33 0.99 0.66 1.98 1 3 C-0.27086885 5.5417377 -1.6939081 6.30077439 -4 8 C-7.46566254 10.87357896 -10.84865924 13.78160943 -14 17 C-14.66 16.67 -15.32 16.34 -16 16 C-10.72 10.72 -5.44 5.44 0 0 Z " fill="#E1E7FE" transform="translate(575,389)"/>
<path d="M0 0 C0.66 0 1.32 0 2 0 C2.99 3.96 3.98 7.92 5 12 C5.66 12 6.32 12 7 12 C7.12375 12.804375 7.2475 13.60875 7.375 14.4375 C7.684375 15.7059375 7.684375 15.7059375 8 17 C8.66 17.33 9.32 17.66 10 18 C9.01 18 8.02 18 7 18 C2.61672812 12.87534385 0 6.72453031 0 0 Z " fill="#2323A6" transform="translate(637,538)"/>
<path d="M0 0 C0.33 0.99 0.66 1.98 1 3 C0.0409375 3.1546875 0.0409375 3.1546875 -0.9375 3.3125 C-1.618125 3.539375 -2.29875 3.76625 -3 4 C-3.33 4.99 -3.66 5.98 -4 7 C-6.66559313 8.77706209 -9.0280615 9.87548273 -12 11 C-11.84765625 9.234375 -11.84765625 9.234375 -11 7 C-8.49609375 5.078125 -8.49609375 5.078125 -5.4375 3.25 C-4.42558594 2.63640625 -3.41367187 2.0228125 -2.37109375 1.390625 C-1.58863281 0.93171875 -0.80617188 0.4728125 0 0 Z " fill="#2628B4" transform="translate(319,154)"/>
<path d="M0 0 C0.99 0.495 0.99 0.495 2 1 C2.52734375 2.8203125 2.52734375 2.8203125 2.9375 5.125 C3.79668888 9.42094438 5.14572058 13.03858488 7 17 C5.35 17 3.7 17 2 17 C1.66151348 15.10507994 1.32943089 13.20901534 1 11.3125 C0.814375 10.25675781 0.62875 9.20101562 0.4375 8.11328125 C0.04931926 5.35095938 -0.08259976 2.78257957 0 0 Z " fill="#1E1EA8" transform="translate(534,539)"/>
<path d="M0 0 C0.99 0.66 1.98 1.32 3 2 C1.68 2.33 0.36 2.66 -1 3 C-1 3.66 -1 4.32 -1 5 C-2.875 7.125 -2.875 7.125 -5 9 C-5.66 9 -6.32 9 -7 9 C-7 9.99 -7 10.98 -7 12 C-8.32 12.33 -9.64 12.66 -11 13 C-11 10 -11 10 -8.84765625 7.7734375 C-7.46900391 6.58621094 -7.46900391 6.58621094 -6.0625 5.375 C-5.14597656 4.57835937 -4.22945312 3.78171875 -3.28515625 2.9609375 C-2.15400391 1.99027344 -2.15400391 1.99027344 -1 1 C-0.67 0.67 -0.34 0.34 0 0 Z " fill="#F3F4FD" transform="translate(741,484)"/>
<path d="M0 0 C1.0209375 0.433125 1.0209375 0.433125 2.0625 0.875 C5.32893093 2.12597355 8.62846123 3.07447955 12 4 C12 6.31 12 8.62 12 11 C7.81576108 7.49102731 3.80411834 3.91939465 0 0 Z " fill="#2629A9" transform="translate(752,286)"/>
<path d="M0 0 C0.99 0.66 1.98 1.32 3 2 C1.35718838 3.66964521 -0.28932761 5.3356464 -1.9375 7 C-3.31228516 8.3921875 -3.31228516 8.3921875 -4.71484375 9.8125 C-7 12 -7 12 -8 12 C-8 10.35 -8 8.7 -8 7 C-6.68 7 -5.36 7 -4 7 C-3.67 5.68 -3.34 4.36 -3 3 C-2.01 3 -1.02 3 0 3 C0 2.01 0 1.02 0 0 Z " fill="#1B22A9" transform="translate(528,432)"/>
<path d="M0 0 C-0.95319472 2.38298679 -1.56168165 3.73085715 -3.78125 5.09375 C-6.17273542 6.0705539 -8.18271089 6.39847449 -10.75 6.625 C-11.54921875 6.69976563 -12.3484375 6.77453125 -13.171875 6.8515625 C-14.07679688 6.92503906 -14.07679688 6.92503906 -15 7 C-12.35658072 5.23772048 -9.76922765 3.80128992 -6.9375 2.375 C-6.05964844 1.92898438 -5.18179688 1.48296875 -4.27734375 1.0234375 C-2 0 -2 0 0 0 Z " fill="#302CB4" transform="translate(729,553)"/>
<path d="M0 0 C0.66 0 1.32 0 2 0 C2 0.99 2 1.98 2 3 C2.99 3.33 3.98 3.66 5 4 C5 5.65 5 7.3 5 9 C7.31 9.66 9.62 10.32 12 11 C12 11.33 12 11.66 12 12 C9.36 12 6.72 12 4 12 C3.3291288 10.3767313 2.66342971 8.75132422 2 7.125 C1.62875 6.22007812 1.2575 5.31515625 0.875 4.3828125 C0 2 0 2 0 0 Z " fill="#2B2DA6" transform="translate(667,241)"/>
<path d="M0 0 C0.4122583 0.4844458 0.8245166 0.9688916 1.24926758 1.46801758 C3.33331874 3.29167133 4.28540863 3.40922589 7.01171875 3.51171875 C7.76904297 3.54716797 8.52636719 3.58261719 9.30664062 3.61914062 C10.48516602 3.65297852 10.48516602 3.65297852 11.6875 3.6875 C12.48478516 3.72166016 13.28207031 3.75582031 14.10351562 3.79101562 C16.06851904 3.87338104 18.03423696 3.93837067 20 4 C20 4.33 20 4.66 20 5 C13.4 5 6.8 5 0 5 C-0.33 3.68 -0.66 2.36 -1 1 C-0.67 0.67 -0.34 0.34 0 0 Z " fill="#D7DDFE" transform="translate(359,409)"/>
<path d="M0 0 C4.21814817 3.9700218 7.61227103 8.30840284 11 13 C10.67 13.66 10.34 14.32 10 15 C8.32742872 12.87941855 6.66184582 10.75395924 5 8.625 C4.28457031 7.72007812 4.28457031 7.72007812 3.5546875 6.796875 C0 2.2265625 0 2.2265625 0 0 Z " fill="#2724A5" transform="translate(588,200)"/>
<path d="M0 0 C0.66 0 1.32 0 2 0 C0.31326082 4.49797113 -1.81673892 8.72886302 -4 13 C-4.99 13 -5.98 13 -7 13 C-6.67 12.01 -6.34 11.02 -6 10 C-5.34 10 -4.68 10 -4 10 C-4 8.68 -4 7.36 -4 6 C-3.34 6 -2.68 6 -2 6 C-1.855625 5.38125 -1.71125 4.7625 -1.5625 4.125 C-1 2 -1 2 0 0 Z " fill="#2623A6" transform="translate(211,194)"/>
<path d="M0 0 C0.66 0.33 1.32 0.66 2 1 C1 4 1 4 -2 6 C-2.33 6.99 -2.66 7.98 -3 9 C-5.0625 10.6875 -5.0625 10.6875 -7 12 C-7.66 11.67 -8.32 11.34 -9 11 C-6.03 7.37 -3.06 3.74 0 0 Z " fill="#2222A5" transform="translate(788,502)"/>
<path d="M0 0 C0.99 0 1.98 0 3 0 C4.84526962 2.62596061 5.98375849 4.95127546 7 8 C7.66 8 8.32 8 9 8 C9 9.65 9 11.3 9 13 C5.55131413 8.91266859 2.76206846 4.56194093 0 0 Z " fill="#2B2BA8" transform="translate(782,317)"/>
<path d="M0 0 C0 0.99 0 1.98 0 3 C-0.66 3 -1.32 3 -2 3 C-2 3.99 -2 4.98 -2 6 C-3.32 6 -4.64 6 -6 6 C-6.33 6.99 -6.66 7.98 -7 9 C-7.99 8.34 -8.98 7.68 -10 7 C-6.7 4.69 -3.4 2.38 0 0 Z " fill="#2221A9" transform="translate(163,274)"/>
<path d="M0 0 C1.670625 0.061875 1.670625 0.061875 3.375 0.125 C1.02222731 2.84926311 -1.24996331 3.9391763 -4.625 5.125 C-4.955 4.135 -5.285 3.145 -5.625 2.125 C-3.625 0.125 -3.625 0.125 0 0 Z " fill="#1B21A9" transform="translate(145.625,225.875)"/>
<path d="M0 0 C0.33 0 0.66 0 1 0 C1.144375 1.134375 1.28875 2.26875 1.4375 3.4375 C1.61171478 6.80777201 1.61171478 6.80777201 3 8 C3.14115161 10.67058851 3.04247107 13.32432238 3 16 C0.3668962 12.05034431 -0.12274339 9.45124115 -0.0625 4.8125 C-0.05347656 3.91144531 -0.04445313 3.01039063 -0.03515625 2.08203125 C-0.02355469 1.39496094 -0.01195312 0.70789063 0 0 Z " fill="#1C1BA3" transform="translate(326,532)"/>
<path d="M0 0 C-1.375 1.5 -1.375 1.5 -3 3 C-6.04200046 3 -8.99532806 2.44513658 -12 2 C-8.34215498 -0.11029521 -3.98761141 -1.99380571 0 0 Z " fill="#DDE3F9" transform="translate(377,81)"/>
<path d="M0 0 C0.66 0.33 1.32 0.66 2 1 C-0.88341534 5.21422242 -3.04303419 6.76075855 -8 8 C-5.58443874 4.80800833 -3.31996462 2.25283313 0 0 Z " fill="#2726A9" transform="translate(303,165)"/>
<path d="M0 0 C0.66 0.66 1.32 1.32 2 2 C3.98821313 2.39764263 5.98944339 2.73775349 8 3 C7.67 3.66 7.34 4.32 7 5 C5.58194169 4.71517632 4.16559621 4.42181856 2.75 4.125 C1.96109375 3.96257812 1.1721875 3.80015625 0.359375 3.6328125 C-1.96831144 3.00849925 -3.89031952 2.15161458 -6 1 C-3.125 0.375 -3.125 0.375 0 0 Z " fill="#2322A7" transform="translate(493,80)"/>
<path d="M0 0 C3.63 1.65 7.26 3.3 11 5 C10.01 5.66 9.02 6.32 8 7 C5.36 5.68 2.72 4.36 0 3 C0 2.01 0 1.02 0 0 Z " fill="#2A23AB" transform="translate(145,556)"/>
<path d="M0 0 C0 2.62113708 -0.31292445 4.50935112 -1 7 C-2.98 7.33 -4.96 7.66 -7 8 C-6.02133662 6.85373678 -5.04205413 5.70800212 -4.0625 4.5625 C-3.51722656 3.92441406 -2.97195312 3.28632813 -2.41015625 2.62890625 C-1.63204305 1.73008851 -0.84063472 0.84063472 0 0 Z " fill="#1718A5" transform="translate(144,289)"/>
<path d="M0 0 C3.26460973 1.80412643 4.88929795 2.83394693 7 6 C5.68 5.67 4.36 5.34 3 5 C2.67 5.66 2.34 6.32 2 7 C2 6.34 2 5.68 2 5 C1.34 5 0.68 5 0 5 C0 3.35 0 1.7 0 0 Z " fill="#1C21A7" transform="translate(557,169)"/>
<path d="M0 0 C-1.31224548 3.93673644 -2.91910327 6.22719294 -6 9 C-6 7.68 -6 6.36 -6 5 C-5.34 5 -4.68 5 -4 5 C-4 3.68 -4 2.36 -4 1 C-2 0 -2 0 0 0 Z " fill="#2026A6" transform="translate(753,467)"/>
<path d="M0 0 C2.5625 0.25 2.5625 0.25 5 1 C5.33 1.66 5.66 2.32 6 3 C5.01 3.33 4.02 3.66 3 4 C2.34 3.67 1.68 3.34 1 3 C0.67 3.66 0.34 4.32 0 5 C0 4.34 0 3.68 0 3 C-0.66 2.67 -1.32 2.34 -2 2 C-1.34 1.34 -0.68 0.68 0 0 Z " fill="#E0E8FC" transform="translate(273,299)"/>
<path d="M0 0 C0.66 0 1.32 0 2 0 C2.99 3.3 3.98 6.6 5 10 C1 7 1 7 0.25 3.3125 C0.1675 2.219375 0.085 1.12625 0 0 Z " fill="#211EA6" transform="translate(615,245)"/>
<path d="M0 0 C1.17539996 0.92652701 2.34010577 1.86663387 3.5 2.8125 C4.1496875 3.33457031 4.799375 3.85664063 5.46875 4.39453125 C7 6 7 6 7 9 C6.34 8.67 5.68 8.34 5 8 C5 7.34 5 6.68 5 6 C4.360625 5.7525 3.72125 5.505 3.0625 5.25 C1 4 1 4 0.37109375 1.921875 C0.24863281 1.28765625 0.12617187 0.6534375 0 0 Z " fill="#2727A8" transform="translate(573,183)"/>
<path d="M0 0 C2.97 0 5.94 0 9 0 C9 0.66 9 1.32 9 2 C10.32 2 11.64 2 13 2 C13 2.66 13 3.32 13 4 C11.39431334 3.71682074 9.79047953 3.42312209 8.1875 3.125 C7.29417969 2.96257812 6.40085937 2.80015625 5.48046875 2.6328125 C3 2 3 2 0 0 Z " fill="#3030AF" transform="translate(500,85)"/>
<path d="M0 0 C-3.465 2.97 -3.465 2.97 -7 6 C-6.75 3.625 -6.75 3.625 -6 1 C-2.69333333 -1.34666667 -2.69333333 -1.34666667 0 0 Z " fill="#191CA9" transform="translate(586,379)"/>
<path d="M0 0 C-1.36983503 3.16115776 -1.9890638 3.9927092 -5 6 C-5.33 5.01 -5.66 4.02 -6 3 C-3.375 0 -3.375 0 0 0 Z " fill="#282BB9" transform="translate(111,253)"/>
<path d="M0 0 C0.99 0.33 1.98 0.66 3 1 C3 2.32 3 3.64 3 5 C3.66 5 4.32 5 5 5 C5 6.98 5 8.96 5 11 C0 3.5 0 3.5 0 0 Z " fill="#292AAD" transform="translate(660,224)"/>
<path d="M0 0 C0.99 0 1.98 0 3 0 C1.60667426 3.36720387 0.0210714 4.9859524 -3 7 C-3 5.35 -3 3.7 -3 2 C-2.34 2 -1.68 2 -1 2 C-0.67 1.34 -0.34 0.68 0 0 Z " fill="#2C2EAF" transform="translate(248,146)"/>
<path d="M0 0 C0.33 0.66 0.66 1.32 1 2 C1.66 2.33 2.32 2.66 3 3 C0.69 4.65 -1.62 6.3 -4 8 C-4 6.68 -4 5.36 -4 4 C-2.68 3.67 -1.36 3.34 0 3 C0 2.01 0 1.02 0 0 Z " fill="#2120B1" transform="translate(262,132)"/>
<path d="M0 0 C4.05606165 0.46800711 7.46588679 0.87953208 11 3 C11 3.66 11 4.32 11 5 C7.27566618 3.7874262 3.62197194 2.49140021 0 1 C0 0.67 0 0.34 0 0 Z " fill="#312FB1" transform="translate(523,93)"/>
<path d="M0 0 C5 2 5 2 10 4 C10 4.33 10 4.66 10 5 C4.5388601 4.64766839 4.5388601 4.64766839 2 4 C0.5 1.9375 0.5 1.9375 0 0 Z " fill="#1E1EA0" transform="translate(397,568)"/>
<path d="M0 0 C2.475 0.99 2.475 0.99 5 2 C5 2.66 5 3.32 5 4 C3.02 4.33 1.04 4.66 -1 5 C-0.67 3.35 -0.34 1.7 0 0 Z " fill="#1917AA" transform="translate(243,569)"/>
<path d="M0 0 C0.99 0 1.98 0 3 0 C3.33 0.66 3.66 1.32 4 2 C4.99 2.33 5.98 2.66 7 3 C7.33 4.65 7.66 6.3 8 8 C6.85073734 7.04578192 5.70569459 6.08647955 4.5625 5.125 C3.92441406 4.59132813 3.28632813 4.05765625 2.62890625 3.5078125 C1 2 1 2 0 0 Z " fill="#211C9F" transform="translate(474,381)"/>
<path d="M0 0 C-0.33 1.98 -0.66 3.96 -1 6 C-2.65 4.35 -4.3 2.7 -6 1 C-3.92446352 0.4465236 -2.15634036 0 0 0 Z " fill="#191AA8" transform="translate(344,359)"/>
<path d="M0 0 C1.98 1.65 3.96 3.3 6 5 C5.34 5.66 4.68 6.32 4 7 C2.68 7 1.36 7 0 7 C0 6.34 0 5.68 0 5 C0.66 5 1.32 5 2 5 C1.34 3.35 0.68 1.7 0 0 Z " fill="#1D24AA" transform="translate(582,193)"/>
<path d="M0 0 C2.0625 0.4375 2.0625 0.4375 4 1 C1.03 3.475 1.03 3.475 -2 6 C-1.125 1.125 -1.125 1.125 0 0 Z " fill="#191FA9" transform="translate(557,403)"/>
<path d="M0 0 C2.0625 0.4375 2.0625 0.4375 4 1 C1.03 3.475 1.03 3.475 -2 6 C-1.125 1.125 -1.125 1.125 0 0 Z " fill="#1A1FA9" transform="translate(565,395)"/>
<path d="M0 0 C2.0625 0.4375 2.0625 0.4375 4 1 C1.03 3.475 1.03 3.475 -2 6 C-1.125 1.125 -1.125 1.125 0 0 Z " fill="#1B1FAB" transform="translate(205,363)"/>
<path d="M0 0 C0 3.90838866 -1.50567876 5.11594107 -4 8 C-4.99 7.67 -5.98 7.34 -7 7 C-4.69 4.69 -2.38 2.38 0 0 Z " fill="#D9E0FE" transform="translate(213,359)"/>
<path d="M0 0 C2.0625 0.4375 2.0625 0.4375 4 1 C1.03 3.475 1.03 3.475 -2 6 C-1.125 1.125 -1.125 1.125 0 0 Z " fill="#181AA7" transform="translate(269,299)"/>
<path d="M0 0 C2.31 1.98 4.62 3.96 7 6 C6.34 6.66 5.68 7.32 5 8 C4.67 7.01 4.34 6.02 4 5 C3.01 4.67 2.02 4.34 1 4 C0.67 2.68 0.34 1.36 0 0 Z " fill="#2226A5" transform="translate(99,519)"/>
<path d="M0 0 C0.99 0.33 1.98 0.66 3 1 C2.34 1 1.68 1 1 1 C1 1.99 1 2.98 1 4 C-0.32 4.33 -1.64 4.66 -3 5 C-3 4.01 -3 3.02 -3 2 C-2.01 1.34 -1.02 0.68 0 0 Z " fill="#E9EEFA" transform="translate(733,492)"/>
<path d="M0 0 C1.32 0.33 2.64 0.66 4 1 C1.03 3.475 1.03 3.475 -2 6 C-2 4.68 -2 3.36 -2 2 C-1.34 2 -0.68 2 0 2 C0 1.34 0 0.68 0 0 Z " fill="#1B20AA" transform="translate(533,427)"/>
<path d="M0 0 C1.32 0.33 2.64 0.66 4 1 C1.03 3.475 1.03 3.475 -2 6 C-2 4.68 -2 3.36 -2 2 C-1.34 2 -0.68 2 0 2 C0 1.34 0 0.68 0 0 Z " fill="#191EA8" transform="translate(221,347)"/>
<path d="M0 0 C1.32 0.33 2.64 0.66 4 1 C1.03 3.475 1.03 3.475 -2 6 C-2 4.68 -2 3.36 -2 2 C-1.34 2 -0.68 2 0 2 C0 1.34 0 0.68 0 0 Z " fill="#191EA8" transform="translate(253,315)"/>
<path d="M0 0 C0.33 0.66 0.66 1.32 1 2 C1.99 2 2.98 2 4 2 C4 2.66 4 3.32 4 4 C1.69 4.33 -0.62 4.66 -3 5 C-2.01 3.35 -1.02 1.7 0 0 Z " fill="#2224AE" transform="translate(124,312)"/>
<path d="M0 0 C0.78375 0.04125 1.5675 0.0825 2.375 0.125 C0.725 1.775 -0.925 3.425 -2.625 5.125 C-3.285 4.135 -3.945 3.145 -4.625 2.125 C-2.625 0.125 -2.625 0.125 0 0 Z " fill="#E2E9FB" transform="translate(157.625,275.875)"/>
<path d="M0 0 C0.66 0 1.32 0 2 0 C1.38722388 2.96175123 0.74627478 4.38058783 -1 7 C-1.66 7 -2.32 7 -3 7 C-1.125 2.25 -1.125 2.25 0 0 Z " fill="#282CAD" transform="translate(255,218)"/>
<path d="M0 0 C-2.62198774 2.15377564 -4.64404172 3.40072174 -8 4 C-8 3.01 -8 2.02 -8 1 C-5.07175348 0.02391783 -3.04386724 -0.08226668 0 0 Z " fill="#1C1DA4" transform="translate(168,217)"/>
</svg>
