<?xml version="1.0" encoding="UTF-8"?>
<svg version="1.1" xmlns="http://www.w3.org/2000/svg" width="419" height="379">
<path d="M0 0 C138.27 0 276.54 0 419 0 C419 125.07 419 250.14 419 379 C280.73 379 142.46 379 0 379 C0 253.93 0 128.86 0 0 Z " fill="#EB5990" transform="translate(0,0)"/>
<path d="M0 0 C138.27 0 276.54 0 419 0 C419 125.07 419 250.14 419 379 C280.73 379 142.46 379 0 379 C0 253.93 0 128.86 0 0 Z M78 21 C78 21.66 78 22.32 78 23 C77.05125 23 76.1025 23 75.125 23 C67.52950636 24.122411 61.58378975 30.82578033 57.1875 36.6875 C48.13056586 51.27549236 48.2649651 64.21602512 48.30541992 80.99121094 C48.29371999 83.62564322 48.28010189 86.26000478 48.26426697 88.89440918 C48.23062321 95.28390063 48.22411843 101.67313519 48.22825512 108.06270334 C48.23135783 113.26202969 48.22575163 118.46127742 48.21410561 123.66059113 C48.21080138 125.16394496 48.2074978 126.66729879 48.20419484 128.17065263 C48.20254806 128.91915051 48.20090128 129.66764839 48.1992046 130.43882802 C48.16948886 144.56406123 48.17261642 158.68914786 48.18555877 172.81439665 C48.19629676 185.70301733 48.164235 198.59111798 48.11210009 211.47962424 C48.05884047 224.74989983 48.03558083 238.01992812 48.04394037 251.29031205 C48.04808035 258.72607286 48.04057841 266.16136799 48.00133324 273.59703827 C47.96821812 279.92825902 47.96360062 286.25874725 47.99442299 292.58999178 C48.00935222 295.81291814 48.00763708 299.03422975 47.97906494 302.25710297 C47.8495826 317.97394555 48.42132181 332.29893807 59.32817364 344.63277817 C62.66091423 347.95023768 62.66091423 347.95023768 67 349 C67 349.66 67 350.32 67 351 C68.1446875 351.433125 68.1446875 351.433125 69.3125 351.875 C72 353 72 353 75 355 C75.99 355 76.98 355 78 355 C78 355.66 78 356.32 78 357 C81.32845778 357.74456599 84.40405138 358.12568675 87.81237602 358.12863445 C88.75853118 358.1318589 89.70468633 358.13508335 90.67951286 358.1384055 C92.22633835 358.1360826 92.22633835 358.1360826 93.80441284 358.13371277 C94.90630514 358.13597833 96.00819744 358.13824388 97.14348042 358.14057809 C100.84289729 358.14691803 104.54227752 358.14608873 108.24169922 358.14526367 C110.8911452 358.14825515 113.54058828 358.15162927 116.19003296 358.15544128 C122.64404958 358.16374448 129.09805707 358.16649597 135.55207859 358.16705366 C140.79837318 358.16752896 146.04466476 358.16958437 151.2909584 358.17275429 C166.16709222 358.18155976 181.04321882 358.1861738 195.91935526 358.18542381 C197.12208935 358.18536388 197.12208935 358.18536388 198.34912109 358.18530273 C199.1519234 358.18526185 199.95472571 358.18522097 200.78185536 358.18517885 C213.79393872 358.18477236 226.80599314 358.1943431 239.81806813 358.2084411 C253.18065893 358.22280457 266.54323561 358.22971131 279.90583432 358.22884732 C287.40717422 358.22851536 294.90848379 358.23126236 302.40981674 358.24202538 C308.79619129 358.25112997 315.18252175 358.25330595 321.56889997 358.24651595 C324.82646617 358.2432506 328.08393019 358.24428123 331.3414917 358.2518692 C334.87494364 358.25956724 338.40817285 358.25495862 341.94161987 358.24723816 C343.4817532 358.2549535 343.4817532 358.2549535 345.05300033 358.26282471 C351.98139229 358.22933381 357.57697169 357.23074741 363.9375 354.375 C364.948125 353.92125 365.95875 353.4675 367 353 C367 352.34 367 351.68 367 351 C367.66 350.814375 368.32 350.62875 369 350.4375 C373.24189188 348.40492681 376.94365448 345.59480838 380 342 C380 340.68 380 339.36 380 338 C380.66 338 381.32 338 382 338 C389.70051636 325.22586046 388.83725838 312.06999392 388.74462891 297.5847168 C388.74949092 294.91744432 388.75670429 292.25027147 388.76675415 289.58302307 C388.78562634 283.1193827 388.77262457 276.65619229 388.74822827 270.19258561 C388.72084848 262.65514743 388.72427597 255.11781374 388.72849493 247.58033846 C388.73485896 234.12923207 388.71162611 220.67833828 388.67236328 207.22729492 C388.63432362 194.19174738 388.62019999 181.15644869 388.63134766 168.12084961 C388.64347422 153.89865222 388.64309197 139.67656392 388.62037599 125.45437557 C388.61796157 123.93700429 388.6155496 122.41963301 388.61314011 120.90226173 C388.61193303 120.15581998 388.61072595 119.40937822 388.6094823 118.64031702 C388.60173965 113.3925147 388.60250498 108.14475313 388.6063118 102.89694786 C388.61056392 96.50125389 388.60004484 90.10577726 388.57108469 83.71014442 C388.55663928 80.45016347 388.55055914 77.19056113 388.55757141 73.93054581 C388.56402873 70.3914336 388.54581899 66.8532695 388.52139282 63.31425476 C388.52895147 62.29168207 388.53651012 61.26910939 388.54429781 60.21554965 C388.47360919 54.41732809 387.6270398 50.13328493 384.95432603 44.96160823 C383.99309115 42.98579892 383.45761971 41.14297358 383 39 C382.34 39 381.68 39 381 39 C381 38.34 381 37.68 381 37 C379.35126195 35.29317519 379.35126195 35.29317519 377.25 33.5625 C376.20585938 32.66724609 376.20585938 32.66724609 375.140625 31.75390625 C371.50075188 28.32725299 371.50075188 28.32725299 367 27 C367 26.34 367 25.68 367 25 C363.5647952 22.70986347 362.014669 22.82157027 358 23 C358 22.34 358 21.68 358 21 C351.97924393 19.94704368 346.12087451 19.85965505 340.01754761 19.87301636 C338.92070243 19.87145637 337.82385725 19.86989638 336.69377434 19.86828911 C333.02353766 19.86430487 329.35334245 19.86745879 325.68310547 19.87060547 C323.0498238 19.8692503 320.41654498 19.86750586 317.78326416 19.86529541 C311.37698056 19.86085345 304.97070868 19.8618071 298.56442462 19.86470805 C293.35820679 19.86696786 288.15199225 19.8672721 282.94577408 19.86618423 C282.20436931 19.866031 281.46296454 19.86587777 280.69909296 19.86571989 C279.19289636 19.86540016 277.68669975 19.86507595 276.18050314 19.8647473 C262.06428527 19.86189722 247.9480739 19.86517234 233.8318571 19.87054767 C221.71944445 19.87501713 209.60704138 19.87423769 197.49462891 19.86962891 C183.42527837 19.86427801 169.35593352 19.86216992 155.28658211 19.86524117 C153.78658621 19.86555972 152.2865903 19.86587409 150.78659439 19.86618423 C149.67957478 19.86641565 149.67957478 19.86641565 148.55019113 19.86665174 C143.34919295 19.8675152 138.14819839 19.86605771 132.94720078 19.86370468 C125.94915098 19.86060818 118.9511196 19.86281106 111.95307159 19.86859894 C109.38152471 19.8699237 106.80997631 19.86953722 104.23843002 19.86733627 C100.73509428 19.86461374 97.23181709 19.86801952 93.72848511 19.87301636 C92.70505001 19.87078564 91.68161491 19.86855491 90.62716663 19.86625659 C89.68797826 19.86886434 88.7487899 19.87147209 87.78114128 19.87415886 C86.56850036 19.87440239 86.56850036 19.87440239 85.33136165 19.87465084 C82.81070888 20.01017752 80.46074945 20.44983078 78 21 Z " fill="#FEFDFE" transform="translate(0,0)"/>
<path d="M0 0 C1.18851562 0.00902344 2.37703125 0.01804687 3.6015625 0.02734375 C4.51679688 0.03894531 5.43203125 0.05054687 6.375 0.0625 C6.375 0.7225 6.375 1.3825 6.375 2.0625 C7.426875 2.4028125 7.426875 2.4028125 8.5 2.75 C12.13177921 4.40798616 14.44908515 6.33607934 17.375 9.0625 C17.87 10.5475 17.87 10.5475 18.375 12.0625 C19.47900146 12.08231934 20.58300293 12.10213867 21.72045898 12.12255859 C25.85251025 12.19916073 29.98423418 12.28778975 34.1159668 12.37988281 C35.89747613 12.41794856 37.67905648 12.4528387 39.46069336 12.484375 C42.0352501 12.53051659 44.60932729 12.5884246 47.18359375 12.6484375 C48.36072182 12.66576431 48.36072182 12.66576431 49.56163025 12.68344116 C55.81592755 12.84693216 62.55303784 13.17528511 67.86328125 16.7265625 C74.18528387 23.52237688 78.49304482 30.16982721 78.50871277 39.66659546 C78.51511024 41.41629387 78.51511024 41.41629387 78.52163696 43.20133972 C78.52118378 44.48245132 78.52073059 45.76356293 78.52026367 47.08349609 C78.5232556 48.44526766 78.5266582 49.80703838 78.53044128 51.16880798 C78.53928242 54.86926579 78.54161945 58.56970048 78.54225707 62.27016783 C78.54320636 65.35911257 78.54688492 68.44805191 78.55042917 71.53699458 C78.55857428 78.82512156 78.56101336 86.11323618 78.56030273 93.40136719 C78.55970202 100.91933304 78.57025251 108.43722712 78.5860464 115.9551748 C78.59912283 122.40961589 78.60448658 128.86403353 78.60384732 135.31848776 C78.60359235 139.1734549 78.60644301 143.02835828 78.61702538 146.88331223 C78.62670803 150.50959528 78.62678443 154.13575364 78.61950874 157.76204109 C78.61796486 159.72556792 78.62630863 161.68909473 78.63494873 163.65260315 C78.63075424 164.8247084 78.62655975 165.99681366 78.62223816 167.20443726 C78.62278293 168.22096563 78.62332769 169.23749401 78.62388897 170.28482628 C78.36100863 173.21864777 77.60355215 175.39978276 76.375 178.0625 C75.715 178.0625 75.055 178.0625 74.375 178.0625 C74.313125 178.619375 74.25125 179.17625 74.1875 179.75 C72.62083622 184.20896616 68.34777153 187.62757551 64.375 190.0625 C63.055 190.0625 61.735 190.0625 60.375 190.0625 C60.375 190.7225 60.375 191.3825 60.375 192.0625 C20.445 192.0625 -19.485 192.0625 -60.625 192.0625 C-60.625 191.4025 -60.625 190.7425 -60.625 190.0625 C-62.605 189.7325 -64.585 189.4025 -66.625 189.0625 C-66.625 188.4025 -66.625 187.7425 -66.625 187.0625 C-67.49125 186.69125 -67.49125 186.69125 -68.375 186.3125 C-70.97408658 184.86856301 -72.70336838 183.32728013 -74.625 181.0625 C-74.625 180.0725 -74.625 179.0825 -74.625 178.0625 C-75.285 178.0625 -75.945 178.0625 -76.625 178.0625 C-77.68791885 174.87374344 -77.75078497 172.61266028 -77.75198364 169.26185608 C-77.75480347 168.05187454 -77.75762329 166.84189301 -77.76052856 165.59524536 C-77.7585842 164.25238022 -77.75653603 162.90951523 -77.75439453 161.56665039 C-77.7557494 160.15399633 -77.75752982 158.74134262 -77.75970459 157.32868958 C-77.76426913 153.48986931 -77.76249326 149.65107588 -77.7593255 145.81225514 C-77.75679637 141.79690938 -77.75914104 137.78156594 -77.76071167 133.76622009 C-77.76253195 127.02163276 -77.76013097 120.27705637 -77.75537109 113.5324707 C-77.74993095 105.73389561 -77.7516899 97.93534667 -77.7571975 90.13677222 C-77.76173527 83.44370871 -77.76237585 76.75065307 -77.75975883 70.05758852 C-77.75819944 66.05903376 -77.75799303 62.0604913 -77.76129532 58.06193733 C-77.76418358 54.30189859 -77.76218072 50.54189355 -77.75640106 46.78185844 C-77.75507851 45.40157502 -77.75545904 44.02128876 -77.75766373 42.64100647 C-77.76039502 40.7573812 -77.75636316 38.87374973 -77.75198364 36.99012756 C-77.75160662 35.93580567 -77.75122959 34.88148378 -77.75084114 33.79521275 C-77.63975984 31.38301846 -77.32016923 29.36463051 -76.625 27.0625 C-75.965 27.0625 -75.305 27.0625 -74.625 27.0625 C-74.398125 26.340625 -74.17125 25.61875 -73.9375 24.875 C-71.19519489 18.9986319 -66.90635599 16.15764781 -61.04003906 13.88500977 C-53.22236326 12.00212803 -44.98958476 12.66379131 -37 12.8125 C-35.11850859 12.83259517 -33.23699646 12.8508406 -31.35546875 12.8671875 C-26.77812833 12.91094546 -22.20179581 12.97980598 -17.625 13.0625 C-17.43248657 11.8863916 -17.43248657 11.8863916 -17.23608398 10.68652344 C-16.46989753 7.39648267 -15.27318496 6.42593508 -12.6875 4.3125 C-11.97722656 3.71953125 -11.26695312 3.1265625 -10.53515625 2.515625 C-6.93655175 -0.2219637 -4.48617472 -0.04398211 0 0 Z " fill="#EA5A90" transform="translate(218.625,92.9375)"/>
<path d="M0 0 C1.18851562 0.00902344 2.37703125 0.01804687 3.6015625 0.02734375 C4.51679688 0.03894531 5.43203125 0.05054687 6.375 0.0625 C6.375 0.7225 6.375 1.3825 6.375 2.0625 C7.426875 2.4028125 7.426875 2.4028125 8.5 2.75 C12.13177921 4.40798616 14.44908515 6.33607934 17.375 9.0625 C17.87 10.5475 17.87 10.5475 18.375 12.0625 C19.47900146 12.08231934 20.58300293 12.10213867 21.72045898 12.12255859 C25.85251025 12.19916073 29.98423418 12.28778975 34.1159668 12.37988281 C35.89747613 12.41794856 37.67905648 12.4528387 39.46069336 12.484375 C42.0352501 12.53051659 44.60932729 12.5884246 47.18359375 12.6484375 C48.36072182 12.66576431 48.36072182 12.66576431 49.56163025 12.68344116 C55.81592755 12.84693216 62.55303784 13.17528511 67.86328125 16.7265625 C74.18528387 23.52237688 78.49304482 30.16982721 78.50871277 39.66659546 C78.51511024 41.41629387 78.51511024 41.41629387 78.52163696 43.20133972 C78.52118378 44.48245132 78.52073059 45.76356293 78.52026367 47.08349609 C78.5232556 48.44526766 78.5266582 49.80703838 78.53044128 51.16880798 C78.53928242 54.86926579 78.54161945 58.56970048 78.54225707 62.27016783 C78.54320636 65.35911257 78.54688492 68.44805191 78.55042917 71.53699458 C78.55857428 78.82512156 78.56101336 86.11323618 78.56030273 93.40136719 C78.55970202 100.91933304 78.57025251 108.43722712 78.5860464 115.9551748 C78.59912283 122.40961589 78.60448658 128.86403353 78.60384732 135.31848776 C78.60359235 139.1734549 78.60644301 143.02835828 78.61702538 146.88331223 C78.62670803 150.50959528 78.62678443 154.13575364 78.61950874 157.76204109 C78.61796486 159.72556792 78.62630863 161.68909473 78.63494873 163.65260315 C78.63075424 164.8247084 78.62655975 165.99681366 78.62223816 167.20443726 C78.62278293 168.22096563 78.62332769 169.23749401 78.62388897 170.28482628 C78.36100863 173.21864777 77.60355215 175.39978276 76.375 178.0625 C75.715 178.0625 75.055 178.0625 74.375 178.0625 C74.313125 178.619375 74.25125 179.17625 74.1875 179.75 C72.62083622 184.20896616 68.34777153 187.62757551 64.375 190.0625 C63.055 190.0625 61.735 190.0625 60.375 190.0625 C60.375 190.7225 60.375 191.3825 60.375 192.0625 C20.445 192.0625 -19.485 192.0625 -60.625 192.0625 C-60.625 191.4025 -60.625 190.7425 -60.625 190.0625 C-62.605 189.7325 -64.585 189.4025 -66.625 189.0625 C-66.625 188.4025 -66.625 187.7425 -66.625 187.0625 C-67.49125 186.69125 -67.49125 186.69125 -68.375 186.3125 C-70.97408658 184.86856301 -72.70336838 183.32728013 -74.625 181.0625 C-74.625 180.0725 -74.625 179.0825 -74.625 178.0625 C-75.285 178.0625 -75.945 178.0625 -76.625 178.0625 C-77.68791885 174.87374344 -77.75078497 172.61266028 -77.75198364 169.26185608 C-77.75480347 168.05187454 -77.75762329 166.84189301 -77.76052856 165.59524536 C-77.7585842 164.25238022 -77.75653603 162.90951523 -77.75439453 161.56665039 C-77.7557494 160.15399633 -77.75752982 158.74134262 -77.75970459 157.32868958 C-77.76426913 153.48986931 -77.76249326 149.65107588 -77.7593255 145.81225514 C-77.75679637 141.79690938 -77.75914104 137.78156594 -77.76071167 133.76622009 C-77.76253195 127.02163276 -77.76013097 120.27705637 -77.75537109 113.5324707 C-77.74993095 105.73389561 -77.7516899 97.93534667 -77.7571975 90.13677222 C-77.76173527 83.44370871 -77.76237585 76.75065307 -77.75975883 70.05758852 C-77.75819944 66.05903376 -77.75799303 62.0604913 -77.76129532 58.06193733 C-77.76418358 54.30189859 -77.76218072 50.54189355 -77.75640106 46.78185844 C-77.75507851 45.40157502 -77.75545904 44.02128876 -77.75766373 42.64100647 C-77.76039502 40.7573812 -77.75636316 38.87374973 -77.75198364 36.99012756 C-77.75160662 35.93580567 -77.75122959 34.88148378 -77.75084114 33.79521275 C-77.63975984 31.38301846 -77.32016923 29.36463051 -76.625 27.0625 C-75.965 27.0625 -75.305 27.0625 -74.625 27.0625 C-74.398125 26.340625 -74.17125 25.61875 -73.9375 24.875 C-71.19519489 18.9986319 -66.90635599 16.15764781 -61.04003906 13.88500977 C-53.22236326 12.00212803 -44.98958476 12.66379131 -37 12.8125 C-35.11850859 12.83259517 -33.23699646 12.8508406 -31.35546875 12.8671875 C-26.77812833 12.91094546 -22.20179581 12.97980598 -17.625 13.0625 C-17.43248657 11.8863916 -17.43248657 11.8863916 -17.23608398 10.68652344 C-16.46989753 7.39648267 -15.27318496 6.42593508 -12.6875 4.3125 C-11.97722656 3.71953125 -11.26695312 3.1265625 -10.53515625 2.515625 C-6.93655175 -0.2219637 -4.48617472 -0.04398211 0 0 Z M-68.3125 23.3125 C-74.37994437 30.52783925 -74.05212688 37.45400888 -73.99731445 46.53759766 C-73.99974532 47.89996111 -74.0034675 49.26232278 -74.00837708 50.62467957 C-74.01774762 54.30846372 -74.00839414 57.99198039 -73.99504495 61.67574358 C-73.98369371 65.53711496 -73.98784067 69.39847389 -73.98979187 73.25985718 C-73.99067348 79.74099069 -73.97962069 86.22201934 -73.96118164 92.703125 C-73.93999818 100.19164956 -73.93650873 107.68002075 -73.9427436 115.16856921 C-73.94844102 122.38152819 -73.94278829 129.59443328 -73.93157005 136.80738449 C-73.9269309 139.87345758 -73.92604723 142.93949763 -73.9281559 146.00557327 C-73.93004163 149.61551749 -73.9219131 153.22530592 -73.9060955 156.83521461 C-73.89984081 158.78914535 -73.90335628 160.74309971 -73.90716553 162.69703674 C-73.90008072 163.86336136 -73.89299591 165.02968597 -73.88569641 166.23135376 C-73.88364354 167.24268686 -73.88159067 168.25401997 -73.87947559 169.29599953 C-73.27109681 175.90991555 -69.56730833 180.83188407 -64.625 185.0625 C-62.0858003 185.98763477 -60.36905267 186.0625 -57.625 186.0625 C-57.625 186.7225 -57.625 187.3825 -57.625 188.0625 C-19.675 188.0625 18.275 188.0625 57.375 188.0625 C57.375 187.4025 57.375 186.7425 57.375 186.0625 C58.468125 185.959375 59.56125 185.85625 60.6875 185.75 C64.26820179 185.36131196 64.26820179 185.36131196 66.3125 183.625 C67.56243667 182.10177901 67.56243667 182.10177901 67.375 180.0625 C68.365 179.7325 69.355 179.4025 70.375 179.0625 C74.3167055 172.620706 73.80508519 165.88858948 73.77905273 158.52734375 C73.78476179 157.15837041 73.79172812 155.78940182 73.79985046 154.42044067 C73.81773636 150.7179548 73.8166224 147.0157065 73.81090808 143.31319046 C73.80781013 140.2167628 73.81391528 137.12038037 73.81994683 134.02395916 C73.83397491 126.71743162 73.83244461 119.41102105 73.82104492 112.10449219 C73.80956017 104.57728969 73.82364907 97.05044335 73.8504414 89.52328777 C73.87261906 83.04918001 73.87923129 76.57518388 73.87336498 70.10104084 C73.86999975 66.23930132 73.87238166 62.37779018 73.88961601 58.51608276 C73.9051167 54.88467347 73.90109569 51.25379091 73.88231087 47.62240219 C73.87688612 45.66168135 73.89111456 43.70093668 73.90600586 41.74026489 C73.84946648 34.97053606 73.5225228 30.5216095 69.375 25.0625 C67.20528794 23.06547959 67.20528794 23.06547959 64.8125 21.6875 C64.04808594 21.20539063 63.28367187 20.72328125 62.49609375 20.2265625 C58.81698519 18.20745688 55.95738541 17.94301648 51.83203125 17.96484375 C50.22231445 17.96967773 50.22231445 17.96967773 48.58007812 17.97460938 C47.46052734 17.98298828 46.34097656 17.99136719 45.1875 18 C43.49077148 18.00676758 43.49077148 18.00676758 41.75976562 18.01367188 C38.96479073 18.02546502 36.1699218 18.0419235 33.375 18.0625 C33.33761719 19.06410156 33.30023438 20.06570312 33.26171875 21.09765625 C32.52576148 37.15563906 32.52576148 37.15563906 27.59129333 41.70812988 C24.92768765 43.33585122 23.33275291 43.45336071 20.22680664 43.48242188 C19.20216812 43.49833374 18.1775296 43.51424561 17.12184143 43.53063965 C16.02073532 43.53084106 14.91962921 43.53104248 13.78515625 43.53125 C12.64848007 43.53886353 11.51180389 43.54647705 10.34068298 43.55432129 C7.93751217 43.56512377 5.5342944 43.56797481 3.13110352 43.56347656 C-0.54555557 43.56250448 -4.22012674 43.60412327 -7.89648438 43.6484375 C-10.23176648 43.65364462 -12.56705584 43.65633269 -14.90234375 43.65625 C-16.00142563 43.67264526 -17.10050751 43.68904053 -18.2328949 43.70593262 C-25.8499077 43.63696964 -25.8499077 43.63696964 -29.79516602 40.71289062 C-32.045642 37.45322855 -32.73772066 34.92080755 -32.94140625 31.05078125 C-32.98330078 30.29345703 -33.02519531 29.53613281 -33.06835938 28.75585938 C-33.10767578 27.97017578 -33.14699219 27.18449219 -33.1875 26.375 C-33.23068359 25.57771484 -33.27386719 24.78042969 -33.31835938 23.95898438 C-33.42427368 21.99368553 -33.52512551 20.02811504 -33.625 18.0625 C-37.83320145 17.97507199 -42.04116776 17.92196359 -46.25 17.875 C-47.43980469 17.84986328 -48.62960938 17.82472656 -49.85546875 17.79882812 C-57.55697388 17.73429037 -62.26830808 18.2522463 -68.3125 23.3125 Z " fill="#F8D4E5" transform="translate(218.625,92.9375)"/>
<path d="M0 0 C2.65011372 2.51421045 3.23787128 3.71918306 3.4375 7.3125 C4.0975 7.3125 4.7575 7.3125 5.4375 7.3125 C5.9325 8.7975 5.9325 8.7975 6.4375 10.3125 C10.7275 10.6425 15.0175 10.9725 19.4375 11.3125 C19.4375 17.2525 19.4375 23.1925 19.4375 29.3125 C18.7775 29.3125 18.1175 29.3125 17.4375 29.3125 C17.1075 30.3025 16.7775 31.2925 16.4375 32.3125 C9.22936984 32.41376342 2.02142248 32.48390779 -5.18725586 32.53222656 C-7.64045059 32.55236533 -10.09359719 32.57967818 -12.54663086 32.61425781 C-16.06896833 32.66267482 -19.59067223 32.68544629 -23.11328125 32.703125 C-24.76339958 32.73409271 -24.76339958 32.73409271 -26.44685364 32.76568604 C-27.46768539 32.76598816 -28.48851715 32.76629028 -29.5402832 32.76660156 C-30.88930473 32.77992523 -30.88930473 32.77992523 -32.26557922 32.79351807 C-34.5625 32.3125 -34.5625 32.3125 -36.35510254 30.41003418 C-37.69051552 28.09010684 -37.91568594 26.85268153 -37.85546875 24.203125 C-37.84580078 23.44902344 -37.83613281 22.69492188 -37.82617188 21.91796875 C-37.80103516 21.14066406 -37.77589844 20.36335938 -37.75 19.5625 C-37.73646484 18.76972656 -37.72292969 17.97695312 -37.70898438 17.16015625 C-37.67375223 15.21064436 -37.61994821 13.26148374 -37.5625 11.3125 C-36.68207031 11.34472656 -35.80164063 11.37695312 -34.89453125 11.41015625 C-31.26244509 11.3738757 -28.08934847 11.20281419 -24.5625 10.3125 C-22.61575411 8.14609916 -21.71476235 6.14817357 -20.578125 3.48046875 C-19.5625 1.3125 -19.5625 1.3125 -16.875 -0.75 C-10.83945505 -2.4581731 -5.72918253 -2.71382331 0 0 Z " fill="#E95A90" transform="translate(227.5625,99.6875)"/>
<path d="M0 0 C4.63413309 6.95119964 5.43537028 11.77653085 5.38768005 19.98713684 C5.39306559 21.09663954 5.39845113 22.20614224 5.40399987 23.34926623 C5.4183122 27.0686502 5.41116737 30.78767991 5.40405273 34.50708008 C5.40975464 37.17314278 5.41661754 39.83918001 5.42485046 42.50523376 C5.44204018 48.99657333 5.44287799 55.48781609 5.43763756 61.97917251 C5.43359431 67.25689919 5.43504127 72.53459729 5.44038582 77.81232262 C5.44113424 78.56380943 5.44188266 79.31529624 5.44265376 80.08955538 C5.44418527 81.6162786 5.44572361 83.14300182 5.44726873 84.66972502 C5.46099484 98.98541707 5.45555571 113.30105446 5.44408352 127.61674526 C5.43415492 140.70505421 5.44708511 153.79322173 5.47101771 166.88150886 C5.49541915 180.32777454 5.50501378 193.77397438 5.49836498 207.22026175 C5.49487458 214.76639301 5.49709279 222.31241555 5.51461601 229.85853004 C5.52935125 236.28366631 5.52995649 242.70861732 5.5125451 249.13375 C5.50404267 252.40989727 5.50404158 255.68564638 5.51719666 258.96178818 C5.53038806 262.5188078 5.51887377 266.07493106 5.50120544 269.63191223 C5.51561295 271.1739567 5.51561295 271.1739567 5.53031152 272.74715358 C5.46303677 279.33941082 4.16468075 284.20831611 1 290 C0.06087115 287.18261345 -0.12603606 285.47748777 -0.12863445 282.56310272 C-0.1318589 281.64981343 -0.13508335 280.73652413 -0.1384055 279.79555941 C-0.1368569 278.79080678 -0.1353083 277.78605416 -0.13371277 276.75085449 C-0.13597833 275.68460075 -0.13824388 274.61834701 -0.14057809 273.51978254 C-0.14693338 269.92919313 -0.14608775 266.33864131 -0.14526367 262.74804688 C-0.14825417 260.18107555 -0.15165644 257.61410468 -0.15544128 255.0471344 C-0.16375349 248.78803048 -0.16649637 242.52893598 -0.16705366 236.26982701 C-0.16752847 231.18410999 -0.16958147 226.09839609 -0.17275429 221.01268005 C-0.18156177 206.602505 -0.18617342 192.19233739 -0.18542381 177.78215963 C-0.18538386 177.00503816 -0.1853439 176.22791669 -0.18530273 175.42724609 C-0.18526185 174.64917907 -0.18522097 173.87111205 -0.18517885 173.06946725 C-0.18477217 160.45224548 -0.19434705 147.83505352 -0.2084411 135.21784037 C-0.22278941 122.27117671 -0.22971217 109.3245276 -0.22884732 96.37785578 C-0.22851486 89.1057678 -0.23128366 81.83371108 -0.24202538 74.56163025 C-0.25205733 67.72613871 -0.2518109 60.89071439 -0.24450874 54.05521965 C-0.24345838 51.54088685 -0.24585235 49.02655001 -0.2518692 46.5122242 C-0.25952832 43.09111873 -0.25498487 39.67024558 -0.24723816 36.24914551 C-0.25238172 35.24439289 -0.25752529 34.23964026 -0.26282471 33.20444059 C-0.25822592 32.2911513 -0.25362712 31.37786201 -0.24888897 30.43689728 C-0.24910634 29.64680661 -0.24932371 28.85671594 -0.24954766 28.04268312 C0 26 0 26 2 23 C2.06097997 19.89112909 2.06097997 19.89112909 1.6875 16.5 C1.58824219 15.3553125 1.48898437 14.210625 1.38671875 13.03125 C1.09435724 9.96035852 1.09435724 9.96035852 0 7 C-0.03954234 4.66700175 -0.04401732 2.33291811 0 0 Z " fill="#E65C92" transform="translate(383,43)"/>
<path d="M0 0 C1.32 0 2.64 0 4 0 C3.99815641 0.74268222 3.99631283 1.48536444 3.99441338 2.25055218 C3.95024928 20.3196563 3.91715069 38.38874966 3.89637566 56.45789623 C3.88606203 65.19599025 3.87200004 73.93404824 3.84912109 82.67211914 C3.82918987 90.28800601 3.81628419 97.9038668 3.81182301 105.51977903 C3.80921518 109.5525325 3.80308383 113.58521134 3.78853989 117.6179409 C3.77496021 121.41407249 3.77077814 125.21009872 3.77378464 129.00625229 C3.77323465 130.39901998 3.76925946 131.79179121 3.76158905 133.18453789 C3.75162239 135.08765485 3.75522636 136.9908284 3.75949097 138.89396667 C3.75764738 139.95863757 3.75580379 141.02330847 3.75390434 142.12024212 C4.28404325 148.32381239 7.39228637 152.96435014 12 157 C14.39005307 158.09204829 16.38647588 158.52956566 19 159 C19 159.66 19 160.32 19 161 C58.6 160.67 98.2 160.34 139 160 C139 160.99 139 161.98 139 163 C138.34 163 137.68 163 137 163 C137 163.66 137 164.32 137 165 C97.07 165 57.14 165 16 165 C16 164.34 16 163.68 16 163 C14.02 162.67 12.04 162.34 10 162 C10 161.34 10 160.68 10 160 C9.13375 159.62875 9.13375 159.62875 8.25 159.25 C5.65091342 157.80606301 3.92163162 156.26478013 2 154 C2 153.01 2 152.02 2 151 C1.34 151 0.68 151 0 151 C-1.06291885 147.81124344 -1.12578497 145.55016028 -1.12698364 142.19935608 C-1.12980347 140.98937454 -1.13262329 139.77939301 -1.13552856 138.53274536 C-1.1335842 137.18988022 -1.13153603 135.84701523 -1.12939453 134.50415039 C-1.1307494 133.09149633 -1.13252982 131.67884262 -1.13470459 130.26618958 C-1.13926913 126.42736931 -1.13749326 122.58857588 -1.1343255 118.74975514 C-1.13179637 114.73440938 -1.13414104 110.71906594 -1.13571167 106.70372009 C-1.13753195 99.95913276 -1.13513097 93.21455637 -1.13037109 86.4699707 C-1.12493095 78.67139561 -1.1266899 70.87284667 -1.1321975 63.07427222 C-1.13673527 56.38120871 -1.13737585 49.68815307 -1.13475883 42.99508852 C-1.13319944 38.99653376 -1.13299303 34.9979913 -1.13629532 30.99943733 C-1.13918358 27.23939859 -1.13718072 23.47939355 -1.13140106 19.71935844 C-1.13007851 18.33907502 -1.13045904 16.95878876 -1.13266373 15.57850647 C-1.13539502 13.6948812 -1.13136316 11.81124973 -1.12698364 9.92762756 C-1.12660662 8.87330567 -1.12622959 7.81898378 -1.12584114 6.73271275 C-1.01475984 4.32051846 -0.69516923 2.30213051 0 0 Z " fill="#FEEDF8" transform="translate(142,120)"/>
<path d="M0 0 C4.64674781 6.97012172 5.43262891 11.80103648 5.3742218 20.03424072 C5.37819621 21.14868238 5.38217061 22.26312404 5.38626546 23.41133666 C5.39589298 27.14707541 5.38406729 30.88243591 5.37231445 34.61816406 C5.37474221 37.29558329 5.3783449 39.97297745 5.38337708 42.65039062 C5.39285873 49.16746827 5.38627151 55.68443509 5.37411413 62.2015045 C5.36048928 69.78777523 5.36213232 77.37401961 5.36424746 84.96029946 C5.3674362 98.49145939 5.35577456 112.02256663 5.33618164 125.55371094 C5.31716288 138.69174808 5.31009816 151.82972352 5.31567383 164.96777344 C5.32172623 179.27148582 5.32156562 193.57517109 5.310188 207.87888122 C5.30898068 209.40271107 5.30777469 210.92654093 5.30657005 212.45037079 C5.30566475 213.57505075 5.30566475 213.57505075 5.30474115 214.72245152 C5.30085656 220.01451761 5.30125765 225.30657362 5.3031559 230.59864044 C5.30527389 237.04186997 5.3000835 243.48504538 5.28554235 249.92825964 C5.27827991 253.21761083 5.27530162 256.50686659 5.27878571 259.7962265 C5.28198498 263.35547102 5.27298295 266.91447416 5.26069641 270.47369385 C5.26447573 271.52211338 5.26825506 272.57053292 5.27214891 273.65072274 C5.26631671 274.59848824 5.26048452 275.54625374 5.25447559 276.52273941 C5.25360882 277.34499897 5.25274204 278.16725853 5.251849 279.01443505 C5 281 5 281 3 283 C2.99826375 282.45478425 2.9965275 281.90956851 2.99473864 281.34783107 C2.89159643 248.99735383 2.78345987 216.64689766 2.66888306 184.29645901 C2.65511432 180.40768178 2.6413871 176.51890441 2.62768555 172.63012695 C2.62495724 171.85597715 2.62222894 171.08182734 2.61941796 170.28421845 C2.57540415 157.76734707 2.53474949 145.25046693 2.49534739 132.73358027 C2.45480899 119.87961309 2.41063485 107.02566208 2.36312145 94.17171878 C2.33394267 86.2471857 2.30756268 78.32265365 2.28482103 70.39809944 C2.26704583 64.31030695 2.2441997 58.22254397 2.21950912 52.13477516 C2.21019593 49.64561523 2.20250045 47.15644861 2.19658089 44.66727829 C2.9954891 25.59943637 2.9954891 25.59943637 0 7 C-0.03954234 4.66700175 -0.04401732 2.33291811 0 0 Z " fill="#DA7FA3" transform="translate(383,43)"/>
<path d="M0 0 C1.06347656 0.00322266 2.12695312 0.00644531 3.22265625 0.00976562 C4.86427734 0.02233398 4.86427734 0.02233398 6.5390625 0.03515625 C7.65667969 0.03966797 8.77429688 0.04417969 9.92578125 0.04882812 C12.67193054 0.06056381 15.41796836 0.07698262 18.1640625 0.09765625 C18.1640625 0.75765625 18.1640625 1.41765625 18.1640625 2.09765625 C17.47779785 2.08718262 16.7915332 2.07670898 16.08447266 2.06591797 C12.98603961 2.02443751 9.88766489 1.99835556 6.7890625 1.97265625 C5.70882812 1.95589844 4.62859375 1.93914062 3.515625 1.921875 C1.96875 1.91220703 1.96875 1.91220703 0.390625 1.90234375 C-0.56247559 1.89187012 -1.51557617 1.88139648 -2.49755859 1.87060547 C-5.0282588 1.86633758 -5.0282588 1.86633758 -6.8359375 4.09765625 C-8.82415063 4.49529888 -10.82538089 4.83540974 -12.8359375 5.09765625 C-12.9390625 5.71640625 -13.0421875 6.33515625 -13.1484375 6.97265625 C-13.8359375 9.09765625 -13.8359375 9.09765625 -16.8359375 11.09765625 C-17.30053831 13.71784618 -17.30053831 13.71784618 -17.23466492 16.84292603 C-17.25347214 18.67712852 -17.25347214 18.67712852 -17.2726593 20.54838562 C-17.27148512 21.91067531 -17.27002592 23.27296479 -17.26831055 24.63525391 C-17.27732276 26.06411084 -17.28764864 27.49296 -17.29919434 28.92179871 C-17.32685433 32.80794018 -17.33606096 36.69393534 -17.34204841 40.58016253 C-17.35140879 44.63881805 -17.37761016 48.69736326 -17.40205383 52.75595093 C-17.44578707 60.44466903 -17.47429202 68.13336582 -17.49737722 75.82217062 C-17.52439242 84.57422976 -17.5683061 93.32617831 -17.61366594 102.07815862 C-17.70660989 120.08459951 -17.77824586 138.09106965 -17.8359375 156.09765625 C-18.1659375 155.10765625 -18.4959375 154.11765625 -18.8359375 153.09765625 C-19.4959375 153.09765625 -20.1559375 153.09765625 -20.8359375 153.09765625 C-20.9294704 135.11251504 -20.9999605 117.12743715 -21.04318619 99.1421051 C-21.06379208 90.79078022 -21.09187477 82.43960665 -21.13769531 74.08837891 C-21.17762371 66.80756654 -21.20338466 59.52686379 -21.21229148 52.24594498 C-21.21749612 48.3924019 -21.22968729 44.53917235 -21.25885773 40.68572998 C-21.28612202 37.05447665 -21.29436052 33.42366432 -21.28836823 29.79231834 C-21.28998363 27.83286777 -21.31144863 25.87346461 -21.33361816 23.91413879 C-21.29305031 15.2041984 -20.02114772 10.03725837 -14.4609375 3.16015625 C-10.14130122 -0.23384368 -5.33905064 -0.02870457 0 0 Z " fill="#DF719A" transform="translate(165.8359375,111.90234375)"/>
<path d="M0 0 C0.99 0.33 1.98 0.66 3 1 C3.07000715 19.34955234 3.12294739 37.69907013 3.15543652 56.04872704 C3.17092114 64.56833733 3.19204099 73.08786476 3.22631836 81.60742188 C3.25617205 89.03100724 3.27556339 96.45453261 3.28226548 103.87817633 C3.28618462 107.81083133 3.2954279 111.74331466 3.31719017 115.67591476 C3.33749185 119.37440108 3.34384674 123.07264436 3.33932304 126.77118111 C3.34054711 128.78185747 3.35672219 130.79250713 3.3732605 132.80311584 C3.36707451 134.58683342 3.36707451 134.58683342 3.36076355 136.40658569 C3.36352893 137.44452459 3.36629431 138.48246349 3.36914349 139.55185509 C3.24732614 140.35974291 3.12550879 141.16763073 3 142 C1.515 142.99 1.515 142.99 0 144 C-1.05978156 140.82065532 -1.10899643 138.62455407 -1.08229065 135.28633118 C-1.07525116 134.09581146 -1.06821167 132.90529175 -1.06095886 131.67869568 C-1.04801285 130.37102737 -1.03506683 129.06335907 -1.02172852 127.71606445 C-1.01158526 126.32648018 -1.00189164 124.93689257 -0.99261475 123.54730225 C-0.96613837 119.77276087 -0.93335791 115.99829724 -0.89946485 112.22381616 C-0.86511726 108.28003157 -0.83654063 104.33620533 -0.80735779 100.39237976 C-0.75120878 92.92321583 -0.68985271 85.45410407 -0.62663645 77.98499697 C-0.55492322 69.48209684 -0.48899872 60.97915494 -0.42356598 52.47620451 C-0.28882891 34.98408177 -0.14680432 17.49202555 0 0 Z " fill="#FEEFFB" transform="translate(292,124)"/>
<path d="M0 0 C0.94350526 -0.00199105 1.88701051 -0.0039821 2.85910684 -0.00603348 C4.40142174 -0.00166422 4.40142174 -0.00166422 5.97489452 0.00279331 C7.07355868 0.00193889 8.17222284 0.00108446 9.30417985 0.00020415 C12.99230139 -0.00144536 16.68037763 0.00406211 20.36849499 0.00952244 C23.00959405 0.00980445 25.65069033 0.00969035 28.29178905 0.00907993 C33.98135187 0.00855571 39.67090321 0.01169188 45.36046314 0.01731777 C53.58659989 0.02544656 61.8127311 0.02804941 70.03887143 0.02930576 C83.38540274 0.03149411 96.73192793 0.03814832 110.07845592 0.04760838 C123.04297384 0.0567881 136.0074901 0.0638662 148.97201061 0.06811619 C149.77121181 0.06837891 150.57041301 0.06864164 151.39383242 0.06891232 C155.40321034 0.07021736 159.41258826 0.07148107 163.4219662 0.07272422 C196.68108376 0.08309008 229.94019383 0.1007025 263.19930553 0.12304783 C263.19930553 0.45304783 263.19930553 0.78304783 263.19930553 1.12304783 C262.64313022 1.12364492 262.0869549 1.12424201 261.51392579 1.12485719 C228.52048133 1.16078304 195.52714513 1.21747092 162.53378786 1.30096878 C158.56861574 1.31098575 154.6034432 1.32082996 150.63827038 1.33056736 C149.45422259 1.33347942 149.45422259 1.33347942 148.24625465 1.33645031 C135.47974261 1.36743683 122.71324852 1.3844416 109.94670597 1.39624205 C96.83845308 1.40867099 83.73029414 1.43621163 70.62210059 1.47766089 C62.53936535 1.50274653 54.45678603 1.51616872 46.37401131 1.5144774 C40.16690064 1.51444401 33.96002059 1.53547742 27.75298023 1.56421566 C25.21341904 1.57271354 22.67382461 1.57446539 20.13425541 1.56885052 C16.65675493 1.56218782 13.18019083 1.58018725 9.70278454 1.6040659 C8.20856374 1.59242527 8.20856374 1.59242527 6.68415666 1.58054948 C-7.21752363 1.74859806 -18.00540461 7.81897871 -28.80069447 16.12304783 C-26.54424779 10.57543032 -21.6924669 7.30889664 -16.80069447 4.12304783 C-14.24943748 3.27262883 -12.51382725 3.12304783 -9.80069447 3.12304783 C-9.80069447 2.46304783 -9.80069447 1.80304783 -9.80069447 1.12304783 C-6.47511185 0.37884408 -3.40542735 -0.00159207 0 0 Z " fill="#D76E96" transform="translate(87.8006944656372,19.876952171325684)"/>
<path d="M0 0 C1.83331382 0.02009644 3.66664891 0.03834165 5.5 0.0546875 C9.95886523 0.09843264 14.41669438 0.16728561 18.875 0.25 C18.875 0.58 18.875 0.91 18.875 1.25 C17.82521973 1.27505615 16.77543945 1.3001123 15.69384766 1.32592773 C11.80618676 1.41996267 7.91870619 1.5201928 4.03125 1.62231445 C2.34737358 1.66567817 0.66345277 1.7073522 -1.02050781 1.74731445 C-3.43828724 1.80498234 -5.85584295 1.8686865 -8.2734375 1.93359375 C-9.40632706 1.95866249 -9.40632706 1.95866249 -10.56210327 1.98423767 C-14.47239799 2.02555107 -14.47239799 2.02555107 -18.125 3.25 C-17.5172876 3.24476318 -16.9095752 3.23952637 -16.28344727 3.23413086 C-3.51971615 3.13915725 9.14462568 3.29308596 21.875 4.25 C21.875 4.58 21.875 4.91 21.875 5.25 C17.585 5.25 13.295 5.25 8.875 5.25 C8.98911804 8.00084547 9.11585949 10.75011947 9.25 13.5 C9.2809375 14.27730469 9.311875 15.05460937 9.34375 15.85546875 C9.60158242 21.32379907 9.60158242 21.32379907 11.875 26.25 C10.885 26.25 9.895 26.25 8.875 26.25 C9.37 27.735 9.37 27.735 9.875 29.25 C7.28624622 28.30079028 6.10433811 27.6640827 4.75 25.21875 C3.57546103 21.23370706 3.66003786 17.56537802 3.75 13.4375 C3.75902344 12.64923828 3.76804688 11.86097656 3.77734375 11.04882812 C3.80077496 9.11575334 3.83664162 7.1828362 3.875 5.25 C-0.33410555 5.33116856 -4.5417933 5.44399046 -8.75 5.5625 C-9.93980469 5.58505859 -11.12960938 5.60761719 -12.35546875 5.63085938 C-19.61373694 5.85387879 -24.64197681 6.34748068 -30.375 11.125 C-32.2534726 13.40600245 -33.19477731 15.45933193 -34.125 18.25 C-34.455 16.93 -34.785 15.61 -35.125 14.25 C-35.785 14.25 -36.445 14.25 -37.125 14.25 C-35.5086182 9.10696701 -32.94673057 6.00746177 -28.35205078 3.14575195 C-19.38059311 -1.14905159 -9.69671021 -0.185332 0 0 Z " fill="#FDD9EB" transform="translate(181.125,105.75)"/>
<path d="M0 0 C0.99 0.33 1.98 0.66 3 1 C3.09153754 35.93122064 3.16202956 70.86241703 3.20426132 105.79373235 C3.2092642 109.91685041 3.21444148 114.03996823 3.21972656 118.16308594 C3.2207758 118.98393114 3.22182505 119.80477634 3.22290608 120.65049563 C3.24031558 133.94489061 3.27185626 147.23921646 3.30861118 160.53357042 C3.34600547 174.17284476 3.36823265 187.81208287 3.37635398 201.45140636 C3.3818449 209.86893855 3.39919301 218.28627538 3.43166587 226.70374744 C3.4527951 232.47441482 3.45920367 238.24498106 3.45400551 244.01568432 C3.45144115 247.34617604 3.45757647 250.67605047 3.4768219 254.00652885 C3.49666831 257.61743008 3.4919577 261.22748948 3.48101807 264.83840942 C3.49266943 265.89094316 3.5043208 266.94347689 3.51632524 268.02790558 C3.46728438 274.00010398 2.92577349 277.41167759 -1 282 C-1.625 280.25 -1.625 280.25 -2 278 C-1.6828101 277.39200286 -1.3656202 276.78400572 -1.03881848 276.15758443 C0.16763055 273.65183806 0.24862788 271.99890292 0.24609566 269.22864914 C0.25007775 268.26623456 0.25405985 267.30381998 0.25816262 266.31224132 C0.25233693 265.25777285 0.24651125 264.20330438 0.24050903 263.11688232 C0.24307231 261.43341576 0.24307231 261.43341576 0.24568737 259.71593976 C0.24899104 255.94174719 0.23796396 252.16773098 0.22705078 248.39355469 C0.22648686 245.69348753 0.22671472 242.9934313 0.22793579 240.29336548 C0.22898489 234.47335726 0.22270572 228.65339386 0.21146011 222.83339691 C0.19521141 214.41864771 0.18999775 206.0039202 0.18748413 197.58915702 C0.18310604 183.93702989 0.16979384 170.28492665 0.15087891 156.6328125 C0.13252306 143.37044393 0.11836511 130.10808184 0.10986328 116.84570312 C0.10933783 116.02831723 0.10881239 115.21093134 0.10827102 114.36877617 C0.10566096 110.26822323 0.10313354 106.16767024 0.10064721 102.06711721 C0.07991116 68.04472748 0.04468252 34.02236667 0 0 Z " fill="#FEE9F8" transform="translate(387,50)"/>
<path d="M0 0 C0.84354578 2.38060955 1.16697422 3.5680712 0.24090171 5.96363491 C-0.13726685 6.65096787 -0.51543541 7.33830083 -0.90506363 8.04646206 C-3.48058977 13.49091423 -3.56439657 18.30761752 -3.51898193 24.25660706 C-3.52648319 25.35868891 -3.53398444 26.46077077 -3.541713 27.59624904 C-3.5619382 31.27212343 -3.5538972 34.94737796 -3.54589844 38.62329102 C-3.55463625 41.26500178 -3.56494818 43.90666288 -3.57722473 46.5483551 C-3.60048804 52.22695668 -3.60928745 57.90543073 -3.60811615 63.58407784 C-3.60644381 71.79430156 -3.62681306 80.00435574 -3.65247145 88.21453416 C-3.69351114 101.53665058 -3.71685485 114.85873641 -3.72900391 128.1809082 C-3.74083994 141.11811257 -3.76105121 154.05525939 -3.79248047 166.99243164 C-3.79441657 167.79058194 -3.79635267 168.58873225 -3.79834744 169.41106892 C-3.80811232 173.41536466 -3.81804138 177.41965996 -3.82805204 181.42395508 C-3.91081922 214.61594541 -3.96483959 247.80792457 -4 281 C-4.33 281 -4.66 281 -5 281 C-5.06867761 246.6123885 -5.12153462 212.22479267 -5.15319599 177.83712739 C-5.15694808 173.77667205 -5.16083105 169.71621685 -5.16479492 165.65576172 C-5.16558185 164.8474036 -5.16636878 164.03904548 -5.16717956 163.20619166 C-5.18023086 150.12009236 -5.20388319 137.03403263 -5.23145839 123.9479568 C-5.25952026 110.51885327 -5.27617791 97.08977045 -5.28226548 83.66063881 C-5.28638031 75.37519954 -5.29937324 67.0898721 -5.3237494 58.80446726 C-5.33961623 53.12163163 -5.34439822 47.43885376 -5.34050413 41.7559976 C-5.33858404 38.47803787 -5.34315614 35.20031446 -5.35761642 31.92238045 C-5.37254114 28.36484584 -5.36895317 24.80778982 -5.36076355 21.25024414 C-5.36950207 20.21909988 -5.3782406 19.18795563 -5.38724393 18.12556458 C-5.34944267 12.05062294 -4.48985577 7.55598674 -2 2 C-1.34 2 -0.68 2 0 2 C0 1.34 0 0.68 0 0 Z " fill="#FFEEFB" transform="translate(53,42)"/>
<path d="M0 0 C1.17219543 0.78345715 2.33763668 1.57702836 3.5 2.375 C4.47453125 3.03628906 4.47453125 3.03628906 5.46875 3.7109375 C5.9740625 4.13632812 6.479375 4.56171875 7 5 C7 5.66 7 6.32 7 7 C9.97 7.495 9.97 7.495 13 8 C13 8.66 13 9.32 13 10 C50.95 10 88.9 10 128 10 C128 10.66 128 11.32 128 12 C113.97815946 12.04686307 99.95633118 12.08192536 85.93442822 12.10362434 C79.42281049 12.11404115 72.91124555 12.12816192 66.3996582 12.15087891 C60.11026303 12.17268227 53.82091849 12.18458444 47.53148842 12.18975449 C45.13744625 12.1934368 42.74340671 12.20062732 40.34938622 12.21146011 C36.98441045 12.22607456 33.6196413 12.22797378 30.25463867 12.22705078 C29.27495621 12.23424133 28.29527374 12.24143188 27.28590393 12.24884033 C20.66943588 12.22932779 14.46774705 11.3816975 8 10 C8 9.34 8 8.68 8 8 C6.35 7.67 4.7 7.34 3 7 C3 6.34 3 5.68 3 5 C2.01 4.67 1.02 4.34 0 4 C0 2.68 0 1.36 0 0 Z " fill="#E07DA1" transform="translate(145,275)"/>
<path d="M0 0 C6.1055471 -0.02464513 12.21106551 -0.04283371 18.31665039 -0.05493164 C20.39543156 -0.05997288 22.47420916 -0.06680574 24.55297852 -0.07543945 C27.53402586 -0.08751422 30.51502649 -0.09323024 33.49609375 -0.09765625 C34.89921059 -0.10539818 34.89921059 -0.10539818 36.33067322 -0.11329651 C37.19149002 -0.11337204 38.05230682 -0.11344757 38.93920898 -0.11352539 C40.08171364 -0.11685631 40.08171364 -0.11685631 41.24729919 -0.12025452 C43 0 43 0 44 1 C44 2.65 44 4.3 44 6 C29.48 6 14.96 6 0 6 C0 4.02 0 2.04 0 0 Z " fill="#F9AECC" transform="translate(169,179)"/>
<path d="M0 0 C0.66 0 1.32 0 2 0 C1.67 1.32 1.34 2.64 1 4 C0.34 4 -0.32 4 -1 4 C-1.268125 4.61875 -1.53625 5.2375 -1.8125 5.875 C-3 8 -3 8 -6 10 C-8.6875 10.125 -8.6875 10.125 -11 10 C-11 10.66 -11 11.32 -11 12 C-48.95 12 -86.9 12 -126 12 C-126 11.34 -126 10.68 -126 10 C-125.41892707 9.99668985 -124.83785414 9.99337971 -124.23917294 9.98996925 C-110.08317177 9.90865563 -95.92727516 9.81653593 -81.77142239 9.71247292 C-74.92568114 9.6624073 -68.07995151 9.61596385 -61.23413086 9.578125 C-54.62697363 9.54159504 -48.01993905 9.49486846 -41.41288948 9.44193649 C-38.89276441 9.42341072 -36.37261188 9.40829607 -33.8524456 9.39665604 C-30.32133745 9.37976286 -26.79052183 9.3507195 -23.25952148 9.31884766 C-22.21870422 9.31668747 -21.17788696 9.31452728 -20.10552979 9.31230164 C-14.73358215 9.250403 -10.00914374 9.04581544 -5 7 C-4.67 6.01 -4.34 5.02 -4 4 C-1.9375 3.3125 -1.9375 3.3125 0 3 C0 2.01 0 1.02 0 0 Z " fill="#DC86A6" transform="translate(287,269)"/>
<path d="M0 0 C18.48 0.33 36.96 0.66 56 1 C56 1.99 56 2.98 56 4 C53.49450555 5.25274723 51.80264368 5.12029624 48.99951172 5.11352539 C47.43811966 5.11341209 47.43811966 5.11341209 45.84518433 5.11329651 C44.71807037 5.10813522 43.59095642 5.10297394 42.4296875 5.09765625 C41.27832306 5.0962413 40.12695862 5.09482635 38.94070435 5.09336853 C35.25211014 5.08775716 31.56357595 5.0752027 27.875 5.0625 C25.37890712 5.05748647 22.8828133 5.05292331 20.38671875 5.04882812 C14.25779191 5.03778403 8.12890024 5.0210348 2 5 C1.34 3.35 0.68 1.7 0 0 Z " fill="#FEDBEE" transform="translate(190,132)"/>
<path d="M0 0 C13.86 0 27.72 0 42 0 C42 0.33 42 0.66 42 1 C34.08 1 26.16 1 18 1 C18.061875 3.330625 18.12375 5.66125 18.1875 8.0625 C18.24580868 13.72087127 18.05667661 18.13195948 15 23 C14.01 23.66 13.02 24.32 12 25 C12 24.34 12 23.68 12 23 C-5.49 23 -22.98 23 -41 23 C-41 22.67 -41 22.34 -41 22 C-15.755 21.505 -15.755 21.505 10 21 C10.33 20.34 10.66 19.68 11 19 C11.66 19 12.32 19 13 19 C13 13.06 13 7.12 13 1 C8.71 1 4.42 1 0 1 C0 0.67 0 0.34 0 0 Z " fill="#F9CBDF" transform="translate(234,110)"/>
<path d="M0 0 C14.52 0 29.04 0 44 0 C44 1.32 44 2.64 44 4 C29.48 4 14.96 4 0 4 C0 2.68 0 1.36 0 0 Z " fill="#FEE3F4" transform="translate(224,233)"/>
<path d="M0 0 C14.52 0 29.04 0 44 0 C44 1.32 44 2.64 44 4 C29.48 4 14.96 4 0 4 C0 2.68 0 1.36 0 0 Z " fill="#FEE3F4" transform="translate(168,233)"/>
<path d="M0 0 C14.19 0 28.38 0 43 0 C43 1.32 43 2.64 43 4 C28.81 4 14.62 4 0 4 C0 2.68 0 1.36 0 0 Z " fill="#FEE2EF" transform="translate(226,180)"/>
<path d="M0 0 C1.98 0.99 1.98 0.99 4 2 C4 2.99 4 3.98 4 5 C5.09876465 5.01981934 6.1975293 5.03963867 7.32958984 5.06005859 C11.4486183 5.13675763 15.56732271 5.22536983 19.68603516 5.31738281 C21.46070914 5.35540924 23.23545332 5.39030545 25.01025391 5.421875 C43.15955016 5.74870532 43.15955016 5.74870532 52 8 C52 8.99 52 9.98 52 11 C50.57965454 10.76228882 50.57965454 10.76228882 49.13061523 10.51977539 C44.39953411 9.84695564 39.68224593 9.77177341 34.91015625 9.68359375 C33.96563095 9.66281265 33.02110565 9.64203156 32.04795837 9.62062073 C29.05287427 9.55562646 26.05770807 9.496475 23.0625 9.4375 C21.02277822 9.39426703 18.98306452 9.35065127 16.94335938 9.30664062 C11.96232212 9.19999695 6.9812029 9.0985906 2 9 C1.34 6.03 0.68 3.06 0 0 Z " fill="#FEEFF9" transform="translate(231,101)"/>
<path d="M0 0 C12.54 0 25.08 0 38 0 C38 0.33 38 0.66 38 1 C33.71 1 29.42 1 25 1 C25.11411804 3.75084547 25.24085949 6.50011947 25.375 9.25 C25.4059375 10.02730469 25.436875 10.80460937 25.46875 11.60546875 C25.72658242 17.07379907 25.72658242 17.07379907 28 22 C27.01 22 26.02 22 25 22 C25.33 22.99 25.66 23.98 26 25 C23.41124622 24.05079028 22.22933811 23.4140827 20.875 20.96875 C19.70002308 16.98222117 19.78574798 13.31481377 19.875 9.1875 C19.936875 5.1346875 19.936875 5.1346875 20 1 C13.4 1 6.8 1 0 1 C0 0.67 0 0.34 0 0 Z " fill="#FBCDE2" transform="translate(165,110)"/>
<path d="M0 0 C1.18851563 0.00902344 2.37703125 0.01804687 3.6015625 0.02734375 C4.51679688 0.03894531 5.43203125 0.05054687 6.375 0.0625 C6.375 0.7225 6.375 1.3825 6.375 2.0625 C7.07625 2.289375 7.7775 2.51625 8.5 2.75 C12.61821571 4.630055 16.58209928 6.96697666 18.25 11.375 C18.29125 11.931875 18.3325 12.48875 18.375 13.0625 C17.715 13.0625 17.055 13.0625 16.375 13.0625 C16.08625 12.423125 15.7975 11.78375 15.5 11.125 C14.54676549 8.91043921 14.54676549 8.91043921 12.375 8.0625 C13.035 10.0425 13.695 12.0225 14.375 14.0625 C13.715 14.0625 13.055 14.0625 12.375 14.0625 C11.9625 13.11375 11.55 12.165 11.125 11.1875 C9.26983518 7.87470568 8.77671718 7.32306541 5.375 6.0625 C2.92025777 5.78498208 2.92025777 5.78498208 0.375 5.875 C-0.470625 5.88144531 -1.31625 5.88789062 -2.1875 5.89453125 C-4.45752477 6.05095924 -6.44461604 6.43160186 -8.625 7.0625 C-8.625 6.0725 -8.625 5.0825 -8.625 4.0625 C-10.275 4.7225 -11.925 5.3825 -13.625 6.0625 C-8.71239666 1.02061763 -7.02742014 -0.06889628 0 0 Z " fill="#FEF2FC" transform="translate(218.625,92.9375)"/>
<path d="M0 0 C0.66 0 1.32 0 2 0 C1.625 2.4375 1.625 2.4375 1 5 C-1.99485229 6.49742614 -5.06822877 6.14219599 -8.3515625 6.1328125 C-9.45085587 6.13424759 -9.45085587 6.13424759 -10.57235718 6.13571167 C-12.12750331 6.13639298 -13.68265228 6.13454209 -15.23779297 6.13037109 C-17.59479353 6.12506796 -19.9515995 6.13029373 -22.30859375 6.13671875 C-23.82291708 6.13605706 -25.33724029 6.13477403 -26.8515625 6.1328125 C-27.89577866 6.13584885 -27.89577866 6.13584885 -28.96109009 6.13894653 C-33.7359776 6.11660362 -38.30126945 5.81551418 -43 5 C-43.33 4.34 -43.66 3.68 -44 3 C-29.48 3 -14.96 3 0 3 C0 2.01 0 1.02 0 0 Z " fill="#E47FA6" transform="translate(268,234)"/>
<path d="M0 0 C14.19 0 28.38 0 43 0 C43 0.99 43 1.98 43 3 C28.81 3 14.62 3 0 3 C0 2.01 0 1.02 0 0 Z " fill="#FEE8F4" transform="translate(169,181)"/>
<path d="M0 0 C4.29 0 8.58 0 13 0 C13 0.99 13 1.98 13 3 C9.37 2.67 5.74 2.34 2 2 C2.14139481 4.25028329 2.28828003 6.50022206 2.4375 8.75 C2.55931641 10.62945312 2.55931641 10.62945312 2.68359375 12.546875 C2.92253426 16.12364137 2.92253426 16.12364137 4 20 C20.5 20 37 20 54 20 C54 20.33 54 20.66 54 21 C46.79186984 21.10126342 39.58392248 21.17140779 32.37524414 21.21972656 C29.92204941 21.23986533 27.46890281 21.26717818 25.01586914 21.30175781 C21.49353167 21.35017482 17.97182777 21.37294629 14.44921875 21.390625 C12.79910042 21.42159271 12.79910042 21.42159271 11.11564636 21.45318604 C10.09481461 21.45348816 9.07398285 21.45379028 8.0222168 21.45410156 C6.67319527 21.46742523 6.67319527 21.46742523 5.29692078 21.48101807 C3 21 3 21 1.20739746 19.09753418 C-0.12801552 16.77760684 -0.35318594 15.54018153 -0.29296875 12.890625 C-0.28330078 12.13652344 -0.27363281 11.38242188 -0.26367188 10.60546875 C-0.23853516 9.82816406 -0.21339844 9.05085938 -0.1875 8.25 C-0.17396484 7.45722656 -0.16042969 6.66445312 -0.14648438 5.84765625 C-0.11125223 3.89814436 -0.05744821 1.94898374 0 0 Z " fill="#E1769F" transform="translate(190,111)"/>
<path d="M0 0 C3.89601908 -0.05398641 7.79128862 -0.09366918 11.6875 -0.125 C12.79029297 -0.14175781 13.89308594 -0.15851563 15.02929688 -0.17578125 C16.09599609 -0.18222656 17.16269531 -0.18867187 18.26171875 -0.1953125 C19.73064575 -0.21102295 19.73064575 -0.21102295 21.22924805 -0.22705078 C24.17112772 0.01402315 26.33237726 0.76944458 29 2 C25.81445408 2.96541545 23.11247293 3.05239684 19.796875 2.87890625 C18.8171875 2.83056641 17.8375 2.78222656 16.828125 2.73242188 C15.30445313 2.64831055 15.30445313 2.64831055 13.75 2.5625 C12.203125 2.48418945 12.203125 2.48418945 10.625 2.40429688 C8.08300961 2.27484366 5.54143407 2.13988672 3 2 C2.93941406 3.12019531 2.87882813 4.24039063 2.81640625 5.39453125 C2.73198576 6.86719984 2.64733851 8.33985544 2.5625 9.8125 C2.50352539 10.91948242 2.50352539 10.91948242 2.44335938 12.04882812 C2.25618965 15.23071342 2.01279207 17.96162378 1 21 C0.01 21 -0.98 21 -2 21 C-1.01 10.605 -1.01 10.605 0 0 Z " fill="#E0749C" transform="translate(252,111)"/>
<path d="M0 0 C14.52 0 29.04 0 44 0 C44 0.66 44 1.32 44 2 C41.19711611 2.80225837 38.78433888 3.10461725 35.87402344 3.02172852 C34.67323151 2.99158409 34.67323151 2.99158409 33.44818115 2.96083069 C32.59387512 2.93379562 31.73956909 2.90676056 30.859375 2.87890625 C29.97719299 2.85529526 29.09501099 2.83168427 28.18609619 2.80735779 C25.37389292 2.73090504 22.56197786 2.64680169 19.75 2.5625 C17.84115984 2.5092609 15.9323057 2.45652063 14.0234375 2.40429688 C9.3487765 2.27531479 4.67435932 2.13947175 0 2 C0 1.34 0 0.68 0 0 Z " fill="#FEF4FD" transform="translate(202,133)"/>
<path d="M0 0 C0.26425781 0.57492187 0.52851563 1.14984375 0.80078125 1.7421875 C3.13866179 6.14379972 6.43418331 10.77676181 11.015625 12.9609375 C13.10713054 13.5860666 13.10713054 13.5860666 16 14 C12.98968256 14.93423645 12.13349732 15.04449911 9 14 C9 14.99 9 15.98 9 17 C8.34 17 7.68 17 7 17 C7 16.34 7 15.68 7 15 C6.4225 14.7525 5.845 14.505 5.25 14.25 C2.44529548 12.69183082 0.84719472 11.66817015 -1 9 C-1.0371782 5.92483209 -0.59214059 3.01219342 0 0 Z " fill="#FEE4F2" transform="translate(145,265)"/>
<path d="M0 0 C-8.46863469 3.80073801 -8.46863469 3.80073801 -11.5 4.9375 C-17.50276106 7.48867345 -23.07311123 10.70883881 -28 15 C-25.74355333 9.45238249 -20.89177243 6.18584881 -16 3 C-13.44874301 2.149581 -11.71313279 2 -9 2 C-9 1.34 -9 0.68 -9 0 C-5.5657338 -0.85856655 -3.38317487 -0.97591583 0 0 Z " fill="#E386A9" transform="translate(87,21)"/>
<path d="M0 0 C1.18851563 0.00902344 2.37703125 0.01804687 3.6015625 0.02734375 C4.51679688 0.03894531 5.43203125 0.05054687 6.375 0.0625 C6.375 0.7225 6.375 1.3825 6.375 2.0625 C5.45267578 2.04509766 5.45267578 2.04509766 4.51171875 2.02734375 C3.29935547 2.01380859 3.29935547 2.01380859 2.0625 2 C1.26199219 1.98839844 0.46148437 1.97679688 -0.36328125 1.96484375 C-2.79361334 1.96592145 -2.79361334 1.96592145 -5.625 3.0625 C-1.995 3.3925 1.635 3.7225 5.375 4.0625 C5.375 4.3925 5.375 4.7225 5.375 5.0625 C0.755 5.7225 -3.865 6.3825 -8.625 7.0625 C-8.625 6.0725 -8.625 5.0825 -8.625 4.0625 C-10.275 4.7225 -11.925 5.3825 -13.625 6.0625 C-8.71239666 1.02061763 -7.02742014 -0.06889628 0 0 Z " fill="#F9C5DB" transform="translate(218.625,92.9375)"/>
<path d="M0 0 C3.00070057 3.00070057 2.42675355 6.46733711 2.5625 10.5 C2.53488889 15.91548653 2.53488889 15.91548653 4 21 C4.039992 22.99960012 4.04346799 25.00047242 4 27 C-2.01319406 19.89056681 -0.12417703 8.80277183 0 0 Z " fill="#DE6A96" transform="translate(50,307)"/>
<path d="M0 0 C0.66 0 1.32 0 2 0 C2.33 0.99 2.66 1.98 3 3 C7.29 3.33 11.58 3.66 16 4 C16 9.94 16 15.88 16 22 C15.67 22 15.34 22 15 22 C15 16.39 15 10.78 15 5 C12.710625 5.185625 10.42125 5.37125 8.0625 5.5625 C5.71153582 5.75311872 3.35694954 5.90968426 1 6 C0 5 0 5 -0.0625 2.4375 C-0.041875 1.633125 -0.02125 0.82875 0 0 Z " fill="#E37CA3" transform="translate(231,107)"/>
<path d="M0 0 C-0.61454696 3.99455527 -2.70646737 6.74466336 -5 10 C-5.66 9.34 -6.32 8.68 -7 8 C-7.99 8.495 -7.99 8.495 -9 9 C-8.875 6.75 -8.875 6.75 -8 4 C-2.91891892 0 -2.91891892 0 0 0 Z " fill="#FBD1E3" transform="translate(210,97)"/>
<path d="M0 0 C2.31 0 4.62 0 7 0 C7 0.66 7 1.32 7 2 C7.928125 1.95875 8.85625 1.9175 9.8125 1.875 C13 2 13 2 16 4 C16 4.66 16 5.32 16 6 C17.65 6.66 19.3 7.32 21 8 C20.01 8.495 20.01 8.495 19 9 C16.96855359 8.06553465 14.96466413 7.06775224 13 6 C13 5.34 13 4.68 13 4 C11.783125 3.855625 10.56625 3.71125 9.3125 3.5625 C6.17329623 3.17219047 3.0924866 2.67648144 0 2 C0 1.34 0 0.68 0 0 Z " fill="#E0769E" transform="translate(351,21)"/>
<path d="M0 0 C0 3 0 3 -1.0625 4.5 C-6.55374562 8.75128693 -11.28517071 9.35341207 -18 9 C-18 8.67 -18 8.34 -18 8 C-16.02 8 -14.04 8 -12 8 C-12 7.34 -12 6.68 -12 6 C-10.948125 5.566875 -9.89625 5.13375 -8.8125 4.6875 C-5.70539018 3.36129459 -2.85481805 1.8167024 0 0 Z " fill="#DE7199" transform="translate(291,277)"/>
<path d="M0 0 C0.66 0.33 1.32 0.66 2 1 C2 5 2 5 -0.5 7.75 C-1.325 8.4925 -2.15 9.235 -3 10 C-3.66 9.67 -4.32 9.34 -5 9 C-5 8.67 -5 8.34 -5 8 C-6.65 7.67 -8.3 7.34 -10 7 C-10 6.67 -10 6.34 -10 6 C-8.3603125 5.62875 -8.3603125 5.62875 -6.6875 5.25 C-2.94091591 3.97997149 -1.89404734 3.34243648 0 0 Z " fill="#FCDBEA" transform="translate(286,273)"/>
<path d="M0 0 C3.31918377 0.54033224 5.40129987 1.23731482 7.51171875 3.92578125 C10.10156078 8.34112797 11.67206106 11.75792376 11 17 C9.38113139 14.57169709 7.99950457 12.19015821 6.625 9.625 C4.69953495 6.12259621 2.63500968 3.02538149 0 0 Z " fill="#E178A2" transform="translate(286,110)"/>
<path d="M0 0 C-3.04088255 1.59101028 -5.62803675 2.35772129 -9 3 C-12.20898563 3.7913437 -12.20898563 3.7913437 -15 5 C-15.33 5.99 -15.66 6.98 -16 8 C-16.66 8 -17.32 8 -18 8 C-17.0967987 4.6581552 -16.33647374 3.24394346 -13.5 1.1875 C-8.91200265 -0.36914196 -4.7966471 -0.25594757 0 0 Z " fill="#DE7CA0" transform="translate(224,98)"/>
<path d="M0 0 C1.17219543 0.78345715 2.33763668 1.57702836 3.5 2.375 C4.47453125 3.03628906 4.47453125 3.03628906 5.46875 3.7109375 C5.9740625 4.13632812 6.479375 4.56171875 7 5 C7 5.66 7 6.32 7 7 C9.97 7.495 9.97 7.495 13 8 C9.18510326 9.46726798 6.70988378 8.43336419 3 7 C3 6.34 3 5.68 3 5 C2.01 4.67 1.02 4.34 0 4 C0 2.68 0 1.36 0 0 Z " fill="#E484A6" transform="translate(145,275)"/>
<path d="M0 0 C0.66 0.33 1.32 0.66 2 1 C1.67 1.99 1.34 2.98 1 4 C0.34 4 -0.32 4 -1 4 C-1.061875 4.61875 -1.12375 5.2375 -1.1875 5.875 C-2 8 -2 8 -4.5625 9.25 C-5.366875 9.4975 -6.17125 9.745 -7 10 C-5.6062718 5.56541027 -3.39417765 3.12621626 0 0 Z " fill="#E37DA3" transform="translate(154,113)"/>
<path d="M0 0 C0.33 0 0.66 0 1 0 C1.02693575 2.12493141 1.04636628 4.24995912 1.0625 6.375 C1.07410156 7.55835937 1.08570313 8.74171875 1.09765625 9.9609375 C1 13 1 13 0 15 C-1.32 15 -2.64 15 -4 15 C-3.67 13.68 -3.34 12.36 -3 11 C-2.34 11 -1.68 11 -1 11 C-0.67 7.37 -0.34 3.74 0 0 Z " fill="#DC6391" transform="translate(245,116)"/>
<path d="M0 0 C3.61941735 1.50239966 6.7321794 2.82145293 10 5 C7.69 4.67 5.38 4.34 3 4 C3 4.99 3 5.98 3 7 C2.34 7 1.68 7 1 7 C1 6.34 1 5.68 1 5 C-0.32 4.34 -1.64 3.68 -3 3 C-2.01 2.01 -1.02 1.02 0 0 Z " fill="#FBD3E4" transform="translate(151,275)"/>
<path d="M0 0 C2.375 0.125 2.375 0.125 5 1 C6.8125 3.5625 6.8125 3.5625 8 6 C7.01 6.495 7.01 6.495 6 7 C5.71125 6.360625 5.4225 5.72125 5.125 5.0625 C4.17176549 2.84793921 4.17176549 2.84793921 2 2 C2.66 3.98 3.32 5.96 4 8 C3.34 8 2.68 8 2 8 C1.01 5.69 0.02 3.38 -1 1 C-0.67 0.67 -0.34 0.34 0 0 Z " fill="#FACCE2" transform="translate(229,99)"/>
<path d="M0 0 C0.66 0 1.32 0 2 0 C1.67 1.32 1.34 2.64 1 4 C0.34 4 -0.32 4 -1 4 C-1.226875 4.61875 -1.45375 5.2375 -1.6875 5.875 C-3.37929835 8.61410209 -4.99244161 9.05024472 -8 10 C-8 9.34 -8 8.68 -8 8 C-7.01 7.67 -6.02 7.34 -5 7 C-4.67 6.01 -4.34 5.02 -4 4 C-1.9375 3.3125 -1.9375 3.3125 0 3 C0 2.01 0 1.02 0 0 Z " fill="#DE7BA1" transform="translate(287,269)"/>
<path d="M0 0 C0 3.34419152 -0.47519394 4.06840321 -2.375 6.6875 C-2.81585938 7.31011719 -3.25671875 7.93273438 -3.7109375 8.57421875 C-4.13632812 9.04472656 -4.56171875 9.51523437 -5 10 C-5.66 10 -6.32 10 -7 10 C-5.6062718 5.56541027 -3.39417765 3.12621626 0 0 Z " fill="#DD6E97" transform="translate(61,34)"/>
<path d="M0 0 C1.48206495 0.254496 2.96068615 0.52911762 4.4375 0.8125 C5.67306641 1.03873047 5.67306641 1.03873047 6.93359375 1.26953125 C7.95646484 1.63111328 7.95646484 1.63111328 9 2 C9.33 2.99 9.66 3.98 10 5 C3.47692308 4.50769231 3.47692308 4.50769231 1.0625 1.9375 C0.711875 1.298125 0.36125 0.65875 0 0 Z " fill="#DD719B" transform="translate(151,274)"/>
<path d="M0 0 C1.98 1.65 3.96 3.3 6 5 C3.07175348 5.97608217 1.04386724 6.08226668 -2 6 C-1.34 4.02 -0.68 2.04 0 0 Z " fill="#DE6994" transform="translate(372,30)"/>
<path d="M0 0 C-0.57344937 2.86724686 -0.8614515 3.8614515 -3 6 C-5.125 5.625 -5.125 5.625 -7 5 C-2.25 0 -2.25 0 0 0 Z " fill="#FBD9E9" transform="translate(380,342)"/>
<path d="M0 0 C0.93045933 2.55144824 1.08564091 3.74006478 0.22265625 6.359375 C-0.16019531 7.14828125 -0.54304688 7.9371875 -0.9375 8.75 C-1.50791016 9.94882812 -1.50791016 9.94882812 -2.08984375 11.171875 C-2.39019531 11.77515625 -2.69054688 12.3784375 -3 13 C-3.33 13 -3.66 13 -4 13 C-3 5.57142857 -3 5.57142857 -2 2 C-1.34 2 -0.68 2 0 2 C0 1.34 0 0.68 0 0 Z " fill="#F9CBDF" transform="translate(53,42)"/>
<path d="M0 0 C0.99 0 1.98 0 3 0 C3.33 2.31 3.66 4.62 4 7 C4.66 7 5.32 7 6 7 C5.67 7.66 5.34 8.32 5 9 C1.9083091 6.47043472 1.09068668 3.77545388 0 0 Z " fill="#E27CA1" transform="translate(54,334)"/>
<path d="M0 0 C0 0.99 0 1.98 0 3 C-1.32 3.33 -2.64 3.66 -4 4 C-4 3.34 -4 2.68 -4 2 C-5.65 1.67 -7.3 1.34 -9 1 C-9 0.67 -9 0.34 -9 0 C-5.62182575 -0.84454356 -3.32534757 -1.10844919 0 0 Z " fill="#FAD1E2" transform="translate(285,279)"/>
<path d="M0 0 C2 4 2 4 2 7 C2.66 7 3.32 7 4 7 C4.33 8.32 4.66 9.64 5 11 C3.68 10.67 2.36 10.34 1 10 C0.67 6.7 0.34 3.4 0 0 Z " fill="#DB769D" transform="translate(140,264)"/>
<path d="M0 0 C-0.25 1.875 -0.25 1.875 -1 4 C-3.0625 5.25 -3.0625 5.25 -5 6 C-5 4.68 -5 3.36 -5 2 C-2 0 -2 0 0 0 Z " fill="#FEEEF9" transform="translate(210,97)"/>
<path d="M0 0 C0.33 0 0.66 0 1 0 C1 1.98 1 3.96 1 6 C-0.65 6.66 -2.3 7.32 -4 8 C-4 7.34 -4 6.68 -4 6 C-3.34 6 -2.68 6 -2 6 C-1.855625 5.195625 -1.71125 4.39125 -1.5625 3.5625 C-1 1 -1 1 0 0 Z " fill="#F8C9DD" transform="translate(384,332)"/>
<path d="M0 0 C-0.66 0 -1.32 0 -2 0 C-2.33 0.99 -2.66 1.98 -3 3 C-4.65 3.33 -6.3 3.66 -8 4 C-7 1 -7 1 -5.125 -0.25 C-3 -1 -3 -1 0 0 Z " fill="#DD7DA1" transform="translate(369,351)"/>
<path d="M0 0 C0.33 0.66 0.66 1.32 1 2 C-1 5 -1 5 -3.625 5.6875 C-4.800625 5.8421875 -4.800625 5.8421875 -6 6 C-4.75453595 2.26360784 -3.36595047 1.81243487 0 0 Z " fill="#FCD4E5" transform="translate(372,348)"/>
<path d="M0 0 C0.99 0.33 1.98 0.66 3 1 C1.68 3.31 0.36 5.62 -1 8 C-1.93065133 5.39417629 -2.14917407 4.35801776 -1.0625 1.75 C-0.711875 1.1725 -0.36125 0.595 0 0 Z " fill="#FBDAE9" transform="translate(387,324)"/>
<path d="M0 0 C1.65 0.99 3.3 1.98 5 3 C4.34 3.66 3.68 4.32 3 5 C0.375 4.625 0.375 4.625 -2 4 C-1.34 2.68 -0.68 1.36 0 0 Z " fill="#FDE1EF" transform="translate(226,95)"/>
</svg>
