<?xml version="1.0" encoding="UTF-8"?>
<svg version="1.1" xmlns="http://www.w3.org/2000/svg" width="1698" height="385">
<path d="M0 0 C2.86477513 3.42857477 5.20603564 6.87938938 7.3984375 10.76953125 C8.03531494 11.89311035 8.67219238 13.01668945 9.32836914 14.17431641 C9.66160187 14.76674133 9.99483459 15.35916626 10.33816528 15.96954346 C12.1187723 19.13454294 13.91401229 22.29123997 15.70703125 25.44921875 C16.25160225 26.40973145 16.25160225 26.40973145 16.80717468 27.38964844 C20.1778933 33.32943033 23.61085978 39.23189531 27.0625 45.125 C33.7927702 56.6283216 40.45656049 68.16923906 47.10888672 79.71777344 C50.23680148 85.14659942 53.36858448 90.57319281 56.5 96 C57.75001879 98.16665583 59.00001878 100.3333225 60.25 102.5 C60.86875 103.5725 61.4875 104.645 62.125 105.75 C187.75 323.5 187.75 323.5 189.62646484 326.75268555 C190.87141282 328.91049803 192.1165289 331.06821353 193.36181641 333.22583008 C196.56552651 338.77716592 199.7659363 344.33036541 202.9609375 349.88671875 C211.62711794 364.97468841 211.62711794 364.97468841 220.56396484 379.90307617 C223 383.90035035 223 383.90035035 223 385 C76.15 385 -70.7 385 -222 385 C-219.36 380.38 -216.72 375.76 -214 371 C-211.51245767 366.55273837 -211.51245767 366.55273837 -209.03149414 362.10180664 C-202.67732596 350.68303397 -196.16978573 339.36363404 -189.5625 328.08984375 C-185.8678669 321.78429581 -182.21147319 315.45705564 -178.5625 309.125 C-177.93996338 308.04484619 -177.31742676 306.96469238 -176.67602539 305.85180664 C-175.41423174 303.66203666 -174.15259466 301.47217645 -172.89111328 299.28222656 C-169.76319852 293.85340058 -166.63141552 288.42680719 -163.5 283 C-162.24998121 280.83334417 -160.99998122 278.6666775 -159.75 276.5 C-117.25 202.83333333 -74.75 129.16666667 -32.25 55.5 C-31.32078735 53.88931641 -31.32078735 53.88931641 -30.37280273 52.24609375 C-29.13023981 50.0923828 -27.88756511 47.93873633 -26.64477539 45.78515625 C-23.74685377 40.76315738 -20.84996651 35.74057193 -17.95724487 30.71557617 C-16.94052802 28.94954478 -15.92344342 27.18372569 -14.90625 25.41796875 C-13.63599127 23.21265845 -12.36640982 21.00695784 -11.09765625 18.80078125 C-7.46359212 12.49366105 -3.76901741 6.22744663 0 0 Z " fill="#010101" transform="translate(222,0)"/>
<path d="M0 0 C1.43472656 1.20076172 1.43472656 1.20076172 2.8984375 2.42578125 C10.28233573 8.76637892 15.92691095 15.64544211 21 24 C21.5256958 24.84208008 21.5256958 24.84208008 22.06201172 25.70117188 C36.12663124 48.55212585 39.64630447 76.83081416 35 103 C34 104 34 104 31.26885128 104.12304783 C30.03825765 104.12212604 28.80766401 104.12120424 27.53977966 104.12025452 C26.51556816 104.12153615 26.51556816 104.12153615 25.47066551 104.12284368 C23.16588309 104.12450043 20.86117228 104.11897397 18.55639648 104.11352539 C16.91094972 104.11324353 15.26550284 104.11340122 13.62005615 104.1139679 C9.13884241 104.11425593 4.65765519 104.10835821 0.17644763 104.10139394 C-4.50142105 104.09516142 -9.17929028 104.09455668 -13.85716248 104.09336853 C-22.72175168 104.09025491 -31.58632862 104.08204111 -40.45091242 104.07201904 C-50.54022202 104.06085885 -60.6295322 104.05534769 -70.71884644 104.05032361 C-91.47923782 104.03985852 -112.23961814 104.02225849 -133 104 C-132.04778395 105.772649 -131.09232802 107.54355791 -130.13549805 109.3137207 C-129.60377487 110.30008011 -129.0720517 111.28643951 -128.5242157 112.3026886 C-120.67303794 126.19643822 -106.64134204 134.51742723 -91.76171875 138.96875 C-72.13693045 143.85797061 -51.63495326 141.36283043 -34.01953125 131.296875 C-29.00823423 128.18594838 -24.4841269 124.81739083 -20 121 C-4.94465611 129.57338165 10.10569274 138.14852597 25 147 C17.22583237 164.08019095 -4.62700651 175.46317237 -21.38745117 181.984375 C-57.47119054 195.46487434 -97.01831952 193.88225307 -132 178 C-156.46713335 166.39836591 -177.19112943 145.20482565 -186.375 119.5625 C-196.15990865 90.27689045 -194.20368803 58.30305906 -180.5625 30.5625 C-175.64288782 21.13588827 -169.2130339 13.75928776 -162 6 C-161.38511719 5.30777344 -160.77023437 4.61554688 -160.13671875 3.90234375 C-121.73407662 -37.46067336 -41.1597847 -35.43136105 0 0 Z M-124 42 C-128.63589421 48.12880929 -131.27146285 53.72390094 -134 61 C-97.04 61 -60.08 61 -22 61 C-24.52311794 53.43064619 -26.52442213 49.11942283 -31 43 C-31.5775 42.13375 -32.155 41.2675 -32.75 40.375 C-36.354342 36.57041678 -40.59874482 33.81303466 -45 31 C-45.61617187 30.60554688 -46.23234375 30.21109375 -46.8671875 29.8046875 C-71.3847452 15.96588826 -105.22545384 21.59427521 -124 42 Z " fill="#040404" transform="translate(1571,122)"/>
<path d="M0 0 C3.43015653 3.1741747 6.42292023 6.5482606 9.35546875 10.1796875 C9.9896875 10.90414062 10.62390625 11.62859375 11.27734375 12.375 C20.70284739 23.44448684 26.53439971 36.22699602 30.35546875 50.1796875 C30.67515625 51.33984375 30.99484375 52.5 31.32421875 53.6953125 C34.73390843 68.53377684 35.35825072 86.23012298 32.35546875 101.1796875 C31.35546875 102.1796875 31.35546875 102.1796875 28.62432003 102.30273533 C27.3937264 102.30181354 26.16313276 102.30089174 24.89524841 102.29994202 C23.87103691 102.30122365 23.87103691 102.30122365 22.82613426 102.30253118 C20.52135184 102.30418793 18.21664103 102.29866147 15.91186523 102.29321289 C14.26641847 102.29293103 12.62097159 102.29308872 10.9755249 102.2936554 C6.49431116 102.29394343 2.01312394 102.28804571 -2.46808362 102.28108144 C-7.1459523 102.27484892 -11.82382153 102.27424418 -16.50169373 102.27305603 C-25.36628293 102.26994241 -34.23085987 102.26172861 -43.09544367 102.25170654 C-53.18475327 102.24054635 -63.27406345 102.23503519 -73.36337769 102.23001111 C-94.12376907 102.21954602 -114.88414939 102.20194599 -135.64453125 102.1796875 C-134.58925433 104.2381406 -133.52170649 106.29030512 -132.44921875 108.33984375 C-131.85608887 109.48332275 -131.26295898 110.62680176 -130.65185547 111.80493164 C-122.69364748 125.18443894 -108.89424215 132.79529794 -94.3984375 137.15625 C-75.9913835 141.71013388 -56.57333834 139.90126579 -39.64453125 131.1796875 C-33.66158868 127.55672348 -28.08867249 123.56247485 -22.64453125 119.1796875 C-7.63704933 127.83345737 7.36674521 136.49345133 22.35546875 145.1796875 C13.95512546 162.54115069 -8.12075514 174.37241141 -25.5390625 180.80078125 C-62.68274085 193.6921977 -102.11995238 191.60193814 -137.59375 174.78125 C-161.50054364 162.43565899 -181.1816285 141.20053214 -189.74536133 115.56982422 C-198.85167358 86.56162896 -196.56048557 54.05068392 -182.61938477 26.88696289 C-178.16694105 18.71047745 -172.58128873 12.07385382 -165.99462891 5.53710938 C-164.8265618 4.36270555 -163.70531669 3.14207903 -162.59375 1.9140625 C-122.9468725 -41.21359012 -42.02285046 -35.8777069 0 0 Z M-126.64453125 40.1796875 C-130.43693509 44.97524332 -136.64453125 52.89611696 -136.64453125 59.1796875 C-99.68453125 59.1796875 -62.72453125 59.1796875 -24.64453125 59.1796875 C-29.65598477 44.14532693 -38.376764 33.39794031 -52.64453125 26.1796875 C-78.42606468 16.37376323 -107.19796843 19.53693891 -126.64453125 40.1796875 Z " fill="#040404" transform="translate(927.64453125,123.8203125)"/>
<path d="M0 0 C8.04039365 -0.39570176 16.07666717 -0.69675743 24.12441826 -0.88080692 C27.86283152 -0.96920285 31.59454734 -1.08873589 35.32910156 -1.2824707 C59.31336887 -2.49384903 59.31336887 -2.49384903 65.25149536 1.52304077 C68.80149585 5.40959042 70.5939476 9.87311096 72.23010254 14.81918335 C73.33292876 17.94305621 74.99209777 20.62386409 76.73046875 23.43359375 C77.88355831 25.43446621 79.03589289 27.43577394 80.1875 29.4375 C81.4830528 31.68620951 82.77862632 33.93490708 84.07421875 36.18359375 C84.72438965 37.31265137 85.37456055 38.44170898 86.04443359 39.60498047 C89.19332054 45.0716998 92.34683264 50.53574887 95.5 56 C96.7500235 58.16665311 98.00002347 60.33331979 99.25 62.5 C99.86875 63.5725 100.4875 64.645 101.125 65.75 C136.75 127.5 136.75 127.5 138.62768555 130.75512695 C139.86818812 132.90501869 141.10922956 135.05459959 142.35083008 137.20385742 C145.27543382 142.26796479 148.19453767 147.33500902 151.09432983 152.4133606 C152.46063872 154.80537117 153.83005286 157.19559708 155.19970703 159.58569336 C156.16221014 161.26828963 157.12022931 162.95344836 158.078125 164.63867188 C158.66464844 165.66154297 159.25117187 166.68441406 159.85546875 167.73828125 C160.36746826 168.63587158 160.87946777 169.53346191 161.40698242 170.45825195 C163.09234808 173.14734649 164.97363079 175.56051152 167 178 C167.37584229 177.34854004 167.75168457 176.69708008 168.13891602 176.02587891 C174.02880859 165.81673177 179.91870117 155.60758464 185.80859375 145.3984375 C186.41896484 144.34043945 187.02933594 143.28244141 187.65820312 142.19238281 C188.89510728 140.04845933 190.13208754 137.90457974 191.36914062 135.76074219 C194.50958117 130.31807441 197.64868634 124.87464455 200.78515625 119.4296875 C207.40222892 107.9455118 214.04633977 96.47803106 220.73291016 85.03417969 C227.53587623 73.38340815 234.26642186 61.69096256 241 50 C243.5200909 45.6245717 246.04105973 41.24965081 248.5625 36.875 C249.10253662 35.93672363 249.64257324 34.99844727 250.19897461 34.03173828 C251.36988111 32.00030654 252.57534088 29.98856826 253.80664062 27.99316406 C255.7131444 24.74970265 257.05887814 21.40062352 258.44335938 17.90527344 C261.35725814 11.15270657 264.27403593 4.80363682 270 0 C279.50620684 -3.58960952 290.2116659 -2.38596304 300.16571045 -1.64794922 C303.87017517 -1.39987279 307.57864438 -1.29231994 311.2890625 -1.171875 C318.53688647 -0.91635502 325.76504791 -0.50856567 333 0 C328.79498884 8.60860981 324.39929491 17.00978844 319.5 25.25 C318.26891013 27.34078023 317.03846367 29.43193942 315.80859375 31.5234375 C315.18065918 32.58916992 314.55272461 33.65490234 313.90576172 34.75292969 C310.76168946 40.10985526 307.66202384 45.49221436 304.5625 50.875 C303.94052734 51.95426758 303.31855469 53.03353516 302.67773438 54.14550781 C301.4153306 56.33614966 300.15312377 58.526905 298.89111328 60.71777344 C295.76319852 66.14659942 292.63141552 71.57319281 289.5 77 C288.24998121 79.16665583 286.99998122 81.3333225 285.75 83.5 C258.25 131.16666667 230.75 178.83333333 203.25 226.5 C202.63084717 227.5732251 202.01169434 228.6464502 201.3737793 229.75219727 C200.1279423 231.91159395 198.88201182 234.07093669 197.63598633 236.23022461 C194.44651047 241.75767597 191.25883115 247.28615121 188.07421875 252.81640625 C181.10677118 264.91186046 174.11025277 276.98785531 167 289 C164.13522487 285.57142523 161.79396436 282.12061062 159.6015625 278.23046875 C158.96476563 277.10705078 158.32796875 275.98363281 157.671875 274.82617188 C157.33865234 274.23376709 157.00542969 273.6413623 156.66210938 273.03100586 C154.88002139 269.86326896 153.08349256 266.70372498 151.2890625 263.54296875 C150.92580872 262.90221405 150.56255493 262.26145935 150.18829346 261.60128784 C146.84211298 255.70484665 143.42956457 249.84830489 140 244 C134.59579018 234.77237738 129.27347238 225.50004626 123.97949219 216.20898438 C119.36497196 208.11255867 114.70904745 200.04193491 110 192 C104.5964354 182.77199471 99.27347639 173.5000533 93.97949219 164.20898438 C89.36497196 156.11255867 84.70904745 148.04193491 80 140 C74.5964354 130.77199471 69.27347639 121.5000533 63.97949219 112.20898438 C59.36497196 104.11255867 54.70904745 96.04193491 50 88 C44.59742794 78.77368973 39.27493024 69.50372642 33.98251343 60.21401978 C29.30746902 52.00995571 24.58540558 43.83514002 19.8125 35.6875 C15.0264145 27.51109914 10.29625339 19.30509517 5.625 11.0625 C5.05885986 10.06629639 4.49271973 9.07009277 3.90942383 8.04370117 C3.39532959 7.13338135 2.88123535 6.22306152 2.3515625 5.28515625 C1.89604004 4.47957275 1.44051758 3.67398926 0.97119141 2.84399414 C0 1 0 1 0 0 Z " fill="#030303" transform="translate(444,30)"/>
<path d="M0 0 C0.87140625 0.67546875 1.7428125 1.3509375 2.640625 2.046875 C10.12198452 8.24005341 17.79427218 17.26458499 22 26 C21.24082275 26.43231934 20.48164551 26.86463867 19.69946289 27.31005859 C16.79961152 28.96216428 13.90030995 30.61522617 11.00143433 32.26904297 C9.71230959 33.00435233 8.42302411 33.73937995 7.13357544 34.47412109 C0.88360347 38.03621677 -5.36401703 41.59799012 -11.5390625 45.2890625 C-12.31902588 45.75521973 -13.09898926 46.22137695 -13.90258789 46.70166016 C-15.30895748 47.54703977 -16.71198867 48.39800629 -18.11108398 49.25537109 C-22.67449336 52 -22.67449336 52 -26 52 C-27.4296875 50.20703125 -27.4296875 50.20703125 -28.875 47.8125 C-36.94818477 35.14868075 -49.96014443 27.78108425 -64.4453125 24.5078125 C-84.09005587 21.70142059 -102.42186497 25.10678657 -118.6484375 36.9296875 C-128.53307873 45.6321125 -134.92795224 60.01635033 -136.31933594 72.97387695 C-136.47230736 76.05205189 -136.51891161 79.10562646 -136.5 82.1875 C-136.49141968 83.82452881 -136.49141968 83.82452881 -136.48266602 85.49462891 C-136.15031077 100.64868503 -131.59774583 113.2333702 -121.5625 124.8125 C-105.59613752 138.44232163 -88.67783808 142.41592431 -68 141 C-55.27647219 139.5048389 -40.03745807 132.55531808 -31.91796875 122.39453125 C-31.34691406 121.54246094 -30.77585937 120.69039062 -30.1875 119.8125 C-29.60355469 118.95269531 -29.01960938 118.09289062 -28.41796875 117.20703125 C-26.99408379 115.0775134 -26.99408379 115.0775134 -26 113 C-22.35809496 113.68857049 -19.52423419 115.22732118 -16.30078125 117.02734375 C-15.18098877 117.6505249 -14.06119629 118.27370605 -12.9074707 118.91577148 C-11.70901553 119.58944691 -10.51069432 120.26336072 -9.3125 120.9375 C-8.09409822 121.61875713 -6.87559191 122.29982735 -5.65698242 122.98071289 C3.64077586 128.18724372 12.86002579 133.52117202 22 139 C17.49538837 146.74909075 12.53399068 152.889163 6 159 C5.195625 159.845625 4.39125 160.69125 3.5625 161.5625 C-19.4917533 183.49215558 -51.24137836 191.79927181 -82.49609375 191.18359375 C-115.7045358 189.44357505 -145.20435454 177.82865369 -168 153 C-173.36128308 146.85709249 -177.40472768 140.30498301 -181 133 C-181.51691406 131.95070312 -182.03382812 130.90140625 -182.56640625 129.8203125 C-186.87092494 120.47767294 -189.10606646 111.06883471 -191 101 C-191.29003906 99.60974609 -191.29003906 99.60974609 -191.5859375 98.19140625 C-195.32525197 69.37046355 -188.794832 40.9692881 -172.0625 17.25390625 C-152.64705298 -7.8374275 -125.56497433 -21.33891536 -94.37890625 -25.3359375 C-60.73993612 -28.94883124 -26.65085785 -21.2742697 0 0 Z " fill="#040404" transform="translate(1340,122)"/>
<path d="M0 0 C17.82 0 35.64 0 54 0 C54.33 14.52 54.66 29.04 55 44 C56.98 40.04 58.96 36.08 61 32 C72.26235562 15.10646656 91.59605368 5.99864404 111 2 C118.92852552 0.44992872 125.80240291 0 134 0 C134 19.47 134 38.94 134 59 C129.38 58.34 124.76 57.68 120 57 C102.17499262 56.02772687 86.20998483 60.1866139 72.32421875 71.76171875 C60.37360328 83.27046272 55.21225277 99.25207973 54.84178162 115.53063965 C54.82141156 117.19941243 54.80597504 118.86825051 54.79467773 120.53710938 C54.78477814 121.45511322 54.77487854 122.37311707 54.76467896 123.31893921 C54.73330933 126.32718402 54.70840444 129.33544457 54.68359375 132.34375 C54.66300299 134.43982331 54.64200598 136.53589266 54.62062073 138.63195801 C54.56561916 144.12932112 54.51611386 149.62672033 54.46777344 155.12414551 C54.40852933 161.73057982 54.34242277 168.33694864 54.27747345 174.94332886 C54.17973996 184.96217899 54.09069522 194.98107255 54 205 C36.18 205 18.36 205 0 205 C0 137.35 0 69.7 0 0 Z " fill="#020202" transform="translate(997,102)"/>
<path d="M0 0 C18.15 0 36.3 0 55 0 C55 91.41 55 182.82 55 277 C36.85 277 18.7 277 0 277 C0 185.59 0 94.18 0 0 Z " fill="#050505" transform="translate(1643,30)"/>
</svg>
